<svg xmlns="http://www.w3.org/2000/svg" viewBox="0 0 224.66 99.91"><defs><style>.cls-1,.cls-3{font-size:9px;fill:#1d1d1b;}.cls-1{font-family:Arial-BoldMT, Arial;font-weight:700;}.cls-2{letter-spacing:-0.04em;}.cls-3{font-family:ArialMT, Arial;}.cls-4{letter-spacing:0.28em;}.cls-5{letter-spacing:0em;}.cls-6{letter-spacing:0em;}.cls-7{letter-spacing:0.28em;}.cls-8{letter-spacing:-0.06em;}.cls-9{letter-spacing:-0.05em;}.cls-10{fill:#010101;}</style></defs><g id="Layer_2" data-name="Layer 2"><g id="Layer_1-2" data-name="Layer 1"><text class="cls-1" transform="translate(0 7.72)"><tspan class="cls-2">A</tspan><tspan x="6.17" y="0" xml:space="preserve"> ve B kümeleri için</tspan></text><text class="cls-3" transform="translate(0.16 96.99)">A<tspan class="cls-4" x="6" y="0">)</tspan><tspan class="cls-5" x="11.49" y="0">13</tspan></text><text class="cls-3" transform="translate(46.16 96.99)">B<tspan class="cls-4" x="6" y="0">)</tspan><tspan x="11.49" y="0">14</tspan></text><text class="cls-3" transform="translate(95.16 96.99)">C<tspan class="cls-4" x="6.5" y="0">)</tspan><tspan class="cls-6" x="11.99" y="0">15</tspan></text><text class="cls-3" transform="translate(148.16 96.99)">D<tspan class="cls-7" x="6.5" y="0">)</tspan><tspan class="cls-6" x="11.99" y="0">16</tspan></text><text class="cls-3" transform="translate(0.03 27.81)">2s(A) = 3s(B) = 5 . s(<tspan class="cls-8" x="83.52" y="0">A</tspan><tspan class="cls-6" x="89.03" y="0"> </tspan></text><text class="cls-3" transform="translate(96.94 27.81)"><tspan xml:space="preserve"> B)</tspan></text><text class="cls-3" transform="translate(0.03 47.9)">s(<tspan class="cls-9" x="7.5" y="0">A</tspan><tspan class="cls-6" x="13.01" y="0"> </tspan></text><text class="cls-3" transform="translate(25.42 47.9)">B) = 57</text><text class="cls-1" transform="translate(0 69.4)">olduğuna göre, s(A) – s(B) kaçtır?</text><text class="cls-3" transform="translate(203.16 96.99)">E<tspan class="cls-4" x="6" y="0">)</tspan><tspan x="11.49" y="0">17</tspan></text><path class="cls-10" d="M21.68,45.4a2.74,2.74,0,0,1-.59,1.9,2.19,2.19,0,0,1-1.71.64,2.19,2.19,0,0,1-1.71-.64,2.73,2.73,0,0,1-.58-1.9V43.32h.56V45.4a2.23,2.23,0,0,0,.41,1.49,1.61,1.61,0,0,0,1.32.49,1.64,1.64,0,0,0,1.33-.49,2.23,2.23,0,0,0,.41-1.49V43.32h.56Z"/><path class="cls-10" d="M92.27,25.73a2.67,2.67,0,0,1,.59-1.9,2.59,2.59,0,0,1,3.41,0,2.72,2.72,0,0,1,.59,1.9v2.08H96.3V25.73a2.33,2.33,0,0,0-.41-1.5,2.07,2.07,0,0,0-2.65,0,2.28,2.28,0,0,0-.42,1.5v2.08h-.55Z"/></g></g></svg>