<svg xmlns="http://www.w3.org/2000/svg" viewBox="0 0 231.75 75.9"><defs><style>.cls-1,.cls-11,.cls-2,.cls-4,.cls-5,.cls-7{font-size:9px;}.cls-1,.cls-11,.cls-2,.cls-3,.cls-4,.cls-5,.cls-7{fill:#1d1d1b;}.cls-1,.cls-11{font-family:ArialMT, Arial;}.cls-2{font-family:MMTimesRoman;}.cls-4,.cls-7{font-family:Arial-BoldMT, Arial;font-weight:700;}.cls-5{font-family:MMTimesBold;}.cls-6{letter-spacing:1.64em;}.cls-7{letter-spacing:1.64em;}.cls-8{letter-spacing:0em;}.cls-9{letter-spacing:2.09em;}.cls-10{letter-spacing:2.46em;}.cls-11{letter-spacing:2.84em;}.cls-12{letter-spacing:2.58em;}</style></defs><g id="Layer_2" data-name="Layer 2"><g id="Layer_1-2" data-name="Layer 1"><text class="cls-1" transform="translate(3.94 18.1)">y</text><text class="cls-1" transform="translate(4 7.72)">x</text><text class="cls-1" transform="translate(27.47 7.72)">z</text><text class="cls-1" transform="translate(28.47 19.76)">t</text><text class="cls-1" transform="translate(50.78 19.88)">3</text><text class="cls-1" transform="translate(50.85 7.72)">2</text><text class="cls-2" transform="translate(38.47 13.26)">=</text><text class="cls-2" transform="translate(15 13.26)">=</text><rect class="cls-3" y="10.38" width="12.53" height="0.34"/><rect class="cls-3" x="23.6" y="10.38" width="12.41" height="0.34"/><rect class="cls-3" x="47.06" y="10.38" width="12.81" height="0.34"/><text class="cls-1" transform="translate(59.97 13.66)"><tspan xml:space="preserve"> olduğuna göre,</tspan></text><text class="cls-4" transform="translate(4.75 45.45)">y</text><text class="cls-4" transform="translate(19.57 45.45)">2</text><text class="cls-4" transform="translate(24.56 45.45)">t</text><text class="cls-4" transform="translate(56.06 43.64)">y</text><text class="cls-5" transform="translate(10.85 32.77)">+</text><text class="cls-4" transform="translate(18.81 33.21)">2</text><text class="cls-4" transform="translate(3.99 33.21)"><tspan class="cls-6">x</tspan><tspan x="19.8" y="0">z</tspan></text><text class="cls-5" transform="translate(52.99 30.86)">+</text><text class="cls-7" transform="translate(46.16 31.3)">x<tspan class="cls-8" x="19.8" y="0">y</tspan></text><text class="cls-4" transform="translate(60.97 31.3)">3</text><text class="cls-5" transform="translate(11.59 45.02)">+</text><text class="cls-5" transform="translate(34.19 38.77)">+</text><rect class="cls-3" y="35.86" width="32.34" height="0.41"/><rect class="cls-3" x="42.16" y="35.86" width="32.85" height="0.41"/><text class="cls-4" transform="translate(77.6 39.17)">ifadesinin değeri kaçtır?</text><text class="cls-1" transform="translate(0.06 66.76)">A) </text><text class="cls-1" transform="translate(15.47 72.98)">9</text><text class="cls-1" transform="translate(15.6 60.82)">4</text><rect class="cls-3" x="11.66" y="63.48" width="12.97" height="0.34"/><text class="cls-1" transform="translate(61.29 60.82)">7</text><text class="cls-1" transform="translate(55.06 66.76)"> </text><text class="cls-1" transform="translate(24.72 66.76)"><tspan class="cls-9"> </tspan><tspan x="21.34" y="0">B)</tspan></text><text class="cls-1" transform="translate(61.31 72.98)">3</text><rect class="cls-3" x="57.66" y="63.48" width="12.69" height="0.34"/><text class="cls-1" transform="translate(70.44 66.76)"><tspan class="cls-10"> </tspan><tspan x="24.62" y="0">C) </tspan></text><text class="cls-1" transform="translate(110.81 72.98)">3</text><text class="cls-1" transform="translate(110.85 60.73)">8</text><rect class="cls-3" x="107.15" y="63.48" width="12.72" height="0.35"/><text class="cls-11" transform="translate(119.97 66.76)"> <tspan class="cls-8" x="28.1" y="0">D)</tspan></text><text class="cls-1" transform="translate(163.22 60.82)">11</text><text class="cls-1" transform="translate(157.56 66.76)"> </text><text class="cls-1" transform="translate(166 72.98)">3</text><rect class="cls-3" x="160.15" y="63.48" width="17.09" height="0.34"/><text class="cls-1" transform="translate(177.34 66.76)"><tspan class="cls-12"> </tspan><tspan x="25.72" y="0">E)</tspan></text><text class="cls-1" transform="translate(217.72 60.73)">13</text><text class="cls-1" transform="translate(212.07 66.76)"> </text><text class="cls-1" transform="translate(220.5 72.98)">3</text><rect class="cls-3" x="214.66" y="63.48" width="17.09" height="0.35"/></g></g></svg>