<svg xmlns="http://www.w3.org/2000/svg" viewBox="0 0 232.73 116.96"><defs><style>.cls-1,.cls-4,.cls-5,.cls-7{font-size:9px;}.cls-1,.cls-2,.cls-4,.cls-5,.cls-7{fill:#1d1d1b;}.cls-1,.cls-5,.cls-7{font-family:ArialMT, Arial;}.cls-3{letter-spacing:-0.05em;}.cls-4{font-family:Arial-BoldMT, Arial;font-weight:700;}.cls-5{letter-spacing:2.13em;}.cls-6{letter-spacing:0em;}.cls-7{letter-spacing:2.82em;}.cls-8{letter-spacing:0em;}.cls-9{letter-spacing:2.48em;}</style></defs><g id="Layer_2" data-name="Layer 2"><g id="Layer_1-2" data-name="Layer 1"><text class="cls-1" transform="translate(0.01 7.72)">Ahmet ve Mehmet atış poligonunda hedefe birer kez ateş</text><rect class="cls-2" x="0.11" y="59.95" width="12.81" height="0.34"/><rect class="cls-2" x="28.12" y="59.95" width="12.97" height="0.34"/><text class="cls-1" transform="translate(15.42 114.04)">3</text><text class="cls-1" transform="translate(15.11 101.88)">1</text><rect class="cls-2" x="11.77" y="104.54" width="12.69" height="0.34"/><text class="cls-1" transform="translate(0.01 20.72)">ediyo<tspan class="cls-3" x="21.52" y="0">r</tspan><tspan x="24.03" y="0">.</tspan></text><text class="cls-4" transform="translate(0.01 46.23)">Ahmet ve Mehmet&apos;in hedefi vurma olasılıkları sırasıyla</text><text class="cls-1" transform="translate(3.83 69.36)">5</text><text class="cls-1" transform="translate(3.89 57.3)">2</text><text class="cls-4" transform="translate(13.02 63.23)"><tspan xml:space="preserve"> ve </tspan></text><text class="cls-1" transform="translate(31.94 69.45)">9</text><text class="cls-1" transform="translate(32.06 57.29)">4</text><text class="cls-4" transform="translate(41.19 63.23)"><tspan xml:space="preserve"> olduğuna göre, ikisinin de hedefi vurmama</tspan></text><text class="cls-4" transform="translate(0.02 80.23)">olasılığı kaçtır?</text><text class="cls-1" transform="translate(61.56 101.88)">2</text><text class="cls-1" transform="translate(55.18 107.82)"> </text><text class="cls-1" transform="translate(61.49 114.04)">3</text><rect class="cls-2" x="57.77" y="104.54" width="12.81" height="0.34"/><text class="cls-1" transform="translate(95.17 107.82)">C)</text><text class="cls-1" transform="translate(111.07 113.95)">5</text><rect class="cls-2" x="107.26" y="104.54" width="12.97" height="0.34"/><text class="cls-1" transform="translate(164.2 114.04)">45</text><rect class="cls-2" x="160.26" y="104.54" width="17.97" height="0.34"/><text class="cls-1" transform="translate(218.55 101.79)">37</text><text class="cls-1" transform="translate(212.18 107.82)"> </text><text class="cls-1" transform="translate(218.7 114.04)">45</text><rect class="cls-2" x="214.77" y="104.54" width="17.97" height="0.34"/><text class="cls-1" transform="translate(0.17 107.82)">A) </text><text class="cls-5" transform="translate(24.55 107.82)"> <tspan class="cls-6" x="21.63" y="0">B)</tspan></text><text class="cls-1" transform="translate(70.68 107.82)"> </text><text class="cls-1" transform="translate(111.2 101.89)">4</text><text class="cls-1" transform="translate(104.67 107.82)"> </text><text class="cls-7" transform="translate(120.33 107.82)"> <tspan class="cls-8" x="27.84" y="0">D) </tspan></text><text class="cls-1" transform="translate(166.58 101.79)">8</text><text class="cls-1" transform="translate(178.32 107.82)"><tspan class="cls-9"> </tspan><tspan x="24.85" y="0">E)</tspan></text></g></g></svg>