<svg xmlns="http://www.w3.org/2000/svg" xmlns:xlink="http://www.w3.org/1999/xlink" viewBox="0 0 234.67 435.87"><defs><style>.cls-1,.cls-21{fill:none;}.cls-2{clip-path:url(#clip-path);}.cls-3{fill:#bcc5cc;}.cls-4{fill:#7f94a0;}.cls-5{fill:#dadfe4;}.cls-6{fill:#2b2522;}.cls-7{fill:#0d4e40;}.cls-8{fill:#a3afb9;}.cls-9{fill:#3a5965;}.cls-10{fill:#b61918;}.cls-11{fill:#235e2a;}.cls-12{fill:#4a4240;}.cls-13{fill:#c9d0d6;}.cls-14{fill:#40675b;}.cls-15,.cls-16,.cls-18,.cls-23{font-size:9px;}.cls-15,.cls-23{fill:#fff;}.cls-15{font-family:MyriadPro-Regular, Myriad Pro;}.cls-16,.cls-18{fill:#1d1d1b;}.cls-16,.cls-22{font-family:Arial-BoldMT, Arial;font-weight:700;}.cls-17{fill:#e30613;}.cls-18,.cls-23{font-family:ArialMT, Arial;}.cls-19{letter-spacing:-0.05em;}.cls-20{clip-path:url(#clip-path-2);}.cls-21{stroke:#e30613;stroke-miterlimit:10;stroke-width:0.75px;}.cls-22{font-size:11px;fill:#e6007e;}.cls-24{letter-spacing:0.28em;}.cls-25{letter-spacing:1.33em;}</style><clipPath id="clip-path" transform="translate(0 0)"><rect class="cls-1" x="16.16" width="87.95" height="118.19"/></clipPath><clipPath id="clip-path-2" transform="translate(0 0)"><rect class="cls-1" x="16.16" y="290.24" width="130.49" height="93.61"/></clipPath></defs><g id="Layer_2" data-name="Layer 2"><g id="Layer_1-2" data-name="Layer 1"><g class="cls-2"><path class="cls-3" d="M92.31,118.19H28a11.8,11.8,0,0,1-11.8-11.8V11.8A11.8,11.8,0,0,1,28,0H92.31a11.8,11.8,0,0,1,11.8,11.8v94.59a11.8,11.8,0,0,1-11.8,11.8" transform="translate(0 0)"/><path class="cls-4" d="M25.28,101.61V5.32A3.21,3.21,0,0,0,20,2.89a11.38,11.38,0,0,0-3.81,8.51v94.08a12.71,12.71,0,0,0,12.72,12.71H92.71a11.35,11.35,0,0,0,7.66-3,3.2,3.2,0,0,0-2.24-5.51H33.39a8.12,8.12,0,0,1-8.11-8.12" transform="translate(0 0)"/><path class="cls-5" d="M100.84,91.77a1.31,1.31,0,0,1-1.31-1.3V18.91l0-1.85c-.09-6.8-.16-12.68-11-12.68H30.64a1.31,1.31,0,0,1,0-2.61H88.47c13.44,0,13.55,8.46,13.64,15.26q0,.91,0,1.83V90.47a1.3,1.3,0,0,1-1.3,1.3" transform="translate(0 0)"/><rect class="cls-6" x="27.97" y="9.69" width="68.44" height="23.41"/><rect class="cls-7" x="39.38" y="13.59" width="45.63" height="15.61"/><path class="cls-8" d="M39.5,43.72a6,6,0,1,1-6-6,6,6,0,0,1,6,6" transform="translate(0 0)"/><path class="cls-8" d="M39.5,64.3a6,6,0,1,1-6-6,6,6,0,0,1,6,6" transform="translate(0 0)"/><path class="cls-8" d="M39.5,84.89a6,6,0,1,1-6-6,6,6,0,0,1,6,6" transform="translate(0 0)"/><path class="cls-8" d="M58.89,43.72a6,6,0,1,1-6-6,6,6,0,0,1,6,6" transform="translate(0 0)"/><path class="cls-8" d="M58.89,64.3a6,6,0,1,1-6-6,6,6,0,0,1,6,6" transform="translate(0 0)"/><path class="cls-8" d="M58.89,84.89a6,6,0,1,1-6-6,6,6,0,0,1,6,6" transform="translate(0 0)"/><path class="cls-8" d="M78.29,43.72a6,6,0,1,1-6-6,6,6,0,0,1,6,6" transform="translate(0 0)"/><path class="cls-8" d="M78.29,64.3a6,6,0,1,1-6-6,6,6,0,0,1,6,6" transform="translate(0 0)"/><path class="cls-8" d="M78.29,84.89a6,6,0,1,1-6-6,6,6,0,0,1,6,6" transform="translate(0 0)"/><path class="cls-8" d="M97.81,43.72a6,6,0,1,1-6-6,6,6,0,0,1,6,6" transform="translate(0 0)"/><path class="cls-8" d="M97.81,64.3a6,6,0,1,1-6-6,6,6,0,0,1,6,6" transform="translate(0 0)"/><polygon class="cls-9" points="35.42 46.9 35.42 47.05 35.4 47.17 35.33 47.23 35.27 47.27 35.2 47.3 34.93 47.3 34.53 47.28 34.39 47.28 33.14 47.27 32.99 47.27 32.06 47.3 31.75 47.28 31.65 47.26 31.62 47.23 31.6 47.17 31.59 47.08 31.59 46.87 31.61 46.59 31.6 46.44 31.56 46.17 31.56 46.03 31.57 45.96 31.61 45.86 31.71 45.84 32.08 45.87 32.23 45.87 32.44 45.86 32.55 45.84 32.6 45.81 32.63 45.75 32.63 45.09 32.64 44.95 32.68 44.39 32.68 44.25 32.67 44.05 32.65 43.91 32.64 43.68 32.63 43.53 32.65 43.29 32.67 42.98 32.67 42.88 32.64 42.82 32.59 42.78 32.5 42.77 32.17 42.89 32.03 42.92 31.89 42.94 31.77 42.94 31.69 42.91 31.65 42.84 31.63 42.75 31.62 42.67 31.62 42.53 31.63 42.3 31.63 42.14 31.62 41.85 31.62 41.69 31.63 41.58 31.67 41.52 31.72 41.48 31.81 41.44 31.89 41.41 32.03 41.35 32.3 41.27 32.43 41.22 32.92 41.04 33.06 40.99 33.55 40.84 33.69 40.78 33.9 40.68 34.05 40.61 34.19 40.58 34.3 40.57 34.4 40.59 34.44 40.66 34.47 40.77 34.49 40.88 34.48 40.99 34.46 41.35 34.45 41.5 34.45 42.94 34.42 43.51 34.42 43.65 34.46 44.23 34.45 44.37 34.41 44.94 34.41 45.09 34.44 45.66 34.45 45.75 34.48 45.81 34.53 45.84 34.65 45.85 35.31 45.86 35.37 45.88 35.4 45.96 35.41 46.03 35.42 46.17 35.4 46.44 35.4 46.59 35.42 46.9"/><polygon class="cls-9" points="52.01 45.65 52.02 45.7 52.12 45.71 52.24 45.72 52.59 45.71 53.34 45.71 53.81 45.72 53.96 45.72 55.04 45.7 55.19 45.7 55.5 45.67 55.65 45.67 55.77 45.7 55.83 45.78 55.85 45.91 55.86 46.05 55.87 46.19 55.87 46.57 55.88 46.8 55.88 46.95 55.87 47.08 55.85 47.17 55.81 47.23 55.76 47.26 55.46 47.3 55.33 47.31 55.13 47.3 54.99 47.29 54.31 47.26 53.8 47.26 52.98 47.3 51.64 47.3 50.97 47.29 50.45 47.27 50.34 47.27 50.28 47.23 50.26 47.17 50.25 47.07 50.27 46.52 50.27 46.37 50.24 45.81 50.25 45.66 50.28 45.38 50.33 45.1 50.36 44.96 50.41 44.8 50.45 44.65 50.48 44.58 50.55 44.43 50.62 44.31 50.78 44.14 50.88 44.05 51.04 43.92 51.16 43.85 51.34 43.73 51.46 43.66 51.65 43.57 51.79 43.52 52.02 43.45 52.18 43.41 52.34 43.38 52.48 43.37 52.96 43.34 53.04 43.33 53.21 43.32 53.44 43.31 53.6 43.27 53.68 43.24 53.81 43.15 53.88 43.09 53.96 42.97 54.02 42.78 54.02 42.57 54 42.5 53.95 42.35 53.92 42.29 53.83 42.17 53.7 42.12 53.5 42.06 53.37 42.05 53.23 42.04 53.09 42.04 52.97 42.05 52.84 42.07 52.64 42.14 52.52 42.2 52.47 42.24 52.37 42.34 52.33 42.4 52.26 42.53 52.22 42.66 52.13 42.72 51.99 42.76 51.91 42.76 51.76 42.77 51.37 42.75 50.98 42.75 50.82 42.74 50.58 42.71 50.46 42.69 50.4 42.66 50.37 42.61 50.37 42.45 50.39 42.31 50.41 42.23 50.43 42.08 50.45 42.02 50.5 41.88 50.59 41.7 50.66 41.58 50.75 41.45 50.85 41.33 50.96 41.23 51.07 41.14 51.25 41.02 51.38 40.95 51.65 40.8 51.81 40.73 51.96 40.69 52.16 40.64 52.31 40.61 52.45 40.59 52.58 40.57 52.78 40.56 52.93 40.55 53.23 40.55 53.45 40.54 53.59 40.54 53.73 40.55 53.87 40.58 54.06 40.62 54.2 40.67 54.5 40.76 54.64 40.81 54.78 40.86 54.97 40.96 55.1 41.03 55.22 41.13 55.34 41.25 55.44 41.37 55.53 41.49 55.65 41.66 55.72 41.79 55.78 41.92 55.83 42.06 55.88 42.19 55.9 42.33 55.93 42.55 55.93 42.69 55.92 42.9 55.9 43.02 55.86 43.24 55.82 43.38 55.77 43.53 55.7 43.67 55.6 43.85 55.52 43.97 55.4 44.13 55.29 44.23 55.15 44.37 55.03 44.44 54.83 44.54 54.69 44.6 54.54 44.64 54.39 44.69 54.23 44.72 54.08 44.74 53.87 44.76 53.72 44.78 53.57 44.81 53.42 44.84 53.2 44.85 53.04 44.86 52.97 44.86 52.8 44.87 52.73 44.87 52.57 44.9 52.49 44.93 52.36 44.99 52.3 45.04 52.2 45.14 52.13 45.25 52.07 45.38 52.05 45.45 52.02 45.58 52.01 45.65"/><polygon class="cls-9" points="75.25 45.27 75.25 45.42 75.24 45.58 75.22 45.72 75.17 45.93 75.12 46.06 75.1 46.12 74.99 46.31 74.88 46.44 74.84 46.5 74.74 46.61 74.64 46.7 74.54 46.78 74.32 46.95 74.2 47.02 74.02 47.09 73.89 47.14 73.69 47.2 73.56 47.24 73.36 47.29 73.21 47.33 73.06 47.36 72.9 47.38 72.69 47.39 72.55 47.39 72.02 47.37 71.71 47.35 71.55 47.33 71.41 47.3 71.26 47.27 71.05 47.22 70.91 47.17 70.77 47.12 70.64 47.05 70.44 46.94 70.32 46.87 70.06 46.66 69.91 46.51 69.82 46.4 69.74 46.26 69.66 46.13 69.59 45.94 69.55 45.81 69.47 45.62 69.44 45.49 69.4 45.28 69.42 45.18 69.5 45.11 69.65 45.09 69.96 45.07 70.28 45.09 70.42 45.09 70.85 45.05 71.07 45.05 71.2 45.08 71.27 45.14 71.33 45.26 71.35 45.34 71.42 45.48 71.47 45.54 71.59 45.64 71.64 45.68 71.78 45.74 71.84 45.78 72 45.82 72.16 45.86 72.32 45.88 72.46 45.88 72.69 45.85 72.84 45.81 72.93 45.78 73.06 45.7 73.11 45.65 73.2 45.55 73.25 45.49 73.3 45.37 73.31 45.3 73.31 45.16 73.3 45.09 73.25 44.95 73.21 44.89 73.12 44.78 72.95 44.67 72.9 44.64 72.78 44.59 72.63 44.56 72.47 44.54 72.32 44.53 72.08 44.53 71.79 44.55 71.59 44.56 71.38 44.56 71.27 44.52 71.21 44.45 71.18 44.34 71.16 44.2 71.15 44.07 71.16 43.94 71.16 43.8 71.15 43.6 71.16 43.43 71.19 43.31 71.23 43.25 71.28 43.22 71.6 43.19 71.74 43.2 72.03 43.23 72.17 43.24 72.23 43.25 72.37 43.24 72.58 43.21 72.73 43.17 72.81 43.15 72.95 43.08 73.02 43.03 73.12 42.93 73.17 42.88 73.22 42.74 73.23 42.65 73.22 42.55 73.16 42.41 73.11 42.34 72.96 42.19 72.84 42.14 72.7 42.11 72.58 42.09 72.36 42.08 72.22 42.09 71.99 42.11 71.86 42.14 71.78 42.17 71.65 42.22 71.59 42.27 71.47 42.36 71.44 42.41 71.37 42.53 71.33 42.65 71.24 42.7 71.11 42.73 70.88 42.73 70.5 42.71 70.36 42.7 70.08 42.72 69.94 42.71 69.74 42.7 69.63 42.67 69.58 42.65 69.55 42.59 69.55 42.49 69.58 42.29 69.61 42.15 69.7 41.89 69.77 41.7 69.83 41.58 69.91 41.44 70.02 41.32 70.14 41.2 70.26 41.1 70.39 41.02 70.53 40.93 70.67 40.84 70.81 40.77 70.96 40.71 71.11 40.65 71.27 40.61 71.43 40.59 71.59 40.57 71.9 40.51 72.07 40.49 72.22 40.48 72.37 40.49 72.58 40.5 73.02 40.56 73.23 40.6 73.37 40.63 73.52 40.68 73.66 40.73 73.87 40.8 74 40.85 74.13 40.92 74.26 41 74.39 41.1 74.52 41.2 74.64 41.33 74.73 41.43 74.77 41.48 74.85 41.6 74.91 41.75 74.97 41.89 75.01 42.02 75.07 42.21 75.1 42.35 75.11 42.51 75.11 42.66 75.1 42.73 75.07 42.87 75.05 42.92 75 43.04 74.88 43.28 74.77 43.46 74.68 43.56 74.52 43.71 74.46 43.78 74.43 43.86 74.47 43.93 74.68 44.08 74.79 44.17 74.88 44.26 74.98 44.37 75.06 44.48 75.16 44.68 75.21 44.83 75.23 44.98 75.24 45.13 75.25 45.27"/><path class="cls-9" d="M36.28,65.91v.23l0,.12-.08.06-.12,0-.27,0-.07,0-.09.07-.06.11v.13l0,.3v.28l0,.13-.09.09-.13,0h-.21l-.54,0h-.37l-.22,0h-.13l-.07-.06,0-.12V67l0-.36v-.14l-.06-.11-.08-.05h-.12l-.61,0h-.15l-1.39,0H31.2l-.35,0h-.28l-.11,0-.05-.08,0-.11-.09-.53,0-.15,0-.54v-.11l0,0,.06-.08.31-.39.09-.11.34-.38.1-.1.36-.36.1-.11.34-.37.09-.11.32-.39.1-.1.35-.37.1-.11.15-.17.09-.12.08-.1.1-.1.36-.36.07-.07.05,0h.09l.63,0,.5,0h.27l.1,0,.07,0,0,.06v.12l0,.58v.14l0,.59V64l0,.58v.12l.07.1.12.08.26,0h0l.12,0,.06.06,0,.12v.23l0,.22v.14Zm-3.33-1h.53l.13,0,.08,0,.05-.1v-.13l0-.49v-.64l0-.11-.05,0h-.07l-.08.07-.32.33-.11.11-.28.36-.1.11-.33.31-.06.09v.08l.07.08.12,0Z" transform="translate(0 0)"/><polygon class="cls-9" points="55.91 65.92 55.91 66.08 55.9 66.23 55.89 66.38 55.85 66.58 55.82 66.71 55.72 66.9 55.65 67.03 55.57 67.16 55.36 67.4 55.25 67.5 54.98 67.71 54.84 67.79 54.69 67.88 54.54 67.94 54.4 68.01 54.22 68.07 54.08 68.12 53.92 68.16 53.77 68.19 53.57 68.2 53.44 68.21 53.24 68.2 53.11 68.2 52.91 68.18 52.76 68.17 52.6 68.15 52.31 68.14 52.16 68.12 51.94 68.07 51.8 68.03 51.66 67.98 51.53 67.91 51.34 67.8 51.22 67.72 51.07 67.6 50.97 67.51 50.84 67.35 50.74 67.24 50.66 67.1 50.59 66.97 50.51 66.79 50.48 66.66 50.43 66.45 50.41 66.31 50.4 66.15 50.42 66.01 50.49 65.94 50.6 65.93 50.81 65.91 51.23 65.94 51.38 65.94 51.8 65.91 52.02 65.91 52.14 65.94 52.2 65.99 52.25 66.11 52.31 66.27 52.4 66.41 52.5 66.51 52.62 66.59 52.76 66.64 52.89 66.68 53.09 66.69 53.22 66.69 53.42 66.68 53.56 66.64 53.71 66.57 53.86 66.49 53.98 66.36 54.04 66.21 54.07 66.06 54.08 65.9 54.04 65.75 54.02 65.7 53.94 65.58 53.84 65.47 53.72 65.38 53.57 65.32 53.42 65.28 53.21 65.25 53.07 65.24 52.79 65.26 52.58 65.28 51.96 65.24 51.82 65.24 50.72 65.26 50.6 65.23 50.53 65.16 50.52 65.04 50.51 64.48 50.51 64.34 50.52 63.78 50.52 63.64 50.49 63.08 50.49 62.93 50.52 62.38 50.51 62.22 50.49 61.91 50.48 61.76 50.49 61.68 50.51 61.54 50.6 61.47 50.71 61.45 50.9 61.45 51.25 61.47 51.4 61.47 51.94 61.45 52.08 61.44 52.62 61.43 53.45 61.48 53.99 61.47 54.8 61.47 55.08 61.45 55.35 61.47 55.46 61.48 55.52 61.51 55.57 61.57 55.59 61.68 55.59 61.74 55.6 61.88 55.59 62.16 55.59 62.45 55.58 62.6 55.55 62.76 55.53 62.9 55.47 62.97 55.34 62.99 55.27 63 55.12 63 54.74 63.01 54.59 63.01 53.83 63 53.22 63 52.79 62.97 52.63 62.97 52.47 62.98 52.33 63.02 52.26 63.09 52.24 63.2 52.23 63.48 52.25 63.61 52.31 63.72 52.42 63.78 52.55 63.8 53.06 63.77 53.22 63.77 53.45 63.79 53.75 63.81 53.89 63.83 54.12 63.86 54.41 63.91 54.55 63.96 54.74 64.04 54.88 64.12 55.02 64.2 55.14 64.28 55.4 64.5 55.53 64.65 55.61 64.76 55.68 64.9 55.73 65.05 55.81 65.25 55.84 65.4 55.88 65.61 55.9 65.76 55.91 65.92"/><path class="cls-9" d="M75.29,65.53v.14l0,.23,0,.15,0,.15,0,.15-.07.21-.06.12-.09.19-.09.1-.16.16-.11.08-.17.12-.12.07-.13.09-.14.06-.21.1-.14,0-.2.06-.13,0-.21,0-.14,0H72l-.23,0-.31-.06-.16,0-.35-.12-.15-.06-.14-.06-.21-.11-.12-.08-.17-.15-.1-.11-.1-.12-.1-.13-.09-.13-.09-.13-.09-.21-.06-.13,0-.21,0-.14,0-.2v-.16l0-.23v-.16l0-.21,0-.44,0-.32v-.9l0-.23,0-.15.09-.28.06-.2.08-.14.08-.14L69.9,62l.27-.27.12-.1.14-.08.14-.08.14-.06.2-.08.15-.06.29-.09.21-.05.14,0,.22,0h.13l.21,0,.28,0,.61.08.14,0,.21.05.14,0,.16,0,.15.05.14.07.13.07.2.1.12.08.1.08.08.11.09.12.07.14.07.16,0,.15,0,.06,0,.15,0,.06,0,.14v.07l0,.11-.09.06-.13,0-.16,0h-1l-.24,0-.11,0,0,0,0-.1-.09-.1-.06,0L73,62.67l-.15-.06-.07,0-.14,0h-.34l-.22,0-.13,0-.15.06-.07,0-.13.09,0,0-.08.11-.07.12,0,.13v.09l0,.15v.24l0,.1.11.06.06,0,.07,0,.12-.06.14-.06.23-.07.14,0,.21,0h.14l.21,0h.39l.14,0,.56.12.14,0,.2.07.13.06.17.13.12.09.15.15.1.11.12.18.08.12.1.21,0,.14.08.37ZM73,66.24l.12-.08.1-.09.08-.11.05-.07,0-.14,0-.08v-.23l0-.15,0-.06-.1-.12-.07,0L73,65l-.16-.08-.15,0h0l-.13,0h-.21l-.21,0-.13,0-.06,0L71.8,65l-.07,0-.12.1-.07,0-.11.12,0,.06-.06.11,0,.12v.22l.06.14.1.12.15.12.17.11.13.07.18,0,.15,0h.31l.22-.06.15-.06Z" transform="translate(0 0)"/><polygon class="cls-9" points="36.64 82.45 36.63 82.6 36.58 82.74 36.35 83.18 36.3 83.31 36.12 83.77 36.05 83.9 35.81 84.33 35.75 84.46 35.54 84.91 35.48 85.03 35.28 85.49 35.21 85.62 34.98 86.05 34.91 86.18 34.69 86.61 34.62 86.73 34.43 87.2 34.37 87.33 34.16 87.77 34.1 87.9 33.86 88.32 33.79 88.43 33.74 88.47 33.63 88.5 33.55 88.5 33.4 88.51 32.62 88.49 32.2 88.52 32.07 88.52 32.02 88.51 31.91 88.47 31.84 88.4 31.83 88.31 31.88 88.21 32.12 87.76 32.19 87.63 32.41 87.16 32.48 87.03 32.67 86.55 32.74 86.42 32.98 85.96 33.04 85.83 33.26 85.36 33.33 85.23 33.85 84.18 33.92 84.05 34.15 83.58 34.18 83.47 34.12 83.39 34 83.37 33.51 83.35 33.36 83.35 32.86 83.38 32.71 83.38 32.2 83.37 32.06 83.37 31.79 83.39 31.64 83.39 31.55 83.38 31.43 83.34 31.34 83.27 31.32 83.16 31.31 83.03 31.32 82.89 31.35 82.65 31.36 82.5 31.34 82.23 31.34 82.09 31.35 82.01 31.38 81.88 31.44 81.81 31.55 81.77 31.74 81.77 32.12 81.82 32.27 81.83 32.98 81.81 33.54 81.78 33.69 81.78 34.25 81.81 34.4 81.81 34.97 81.8 35.11 81.8 35.68 81.81 36.21 81.77 36.38 81.77 36.52 81.81 36.57 81.88 36.6 82 36.63 82.23 36.64 82.45"/><path class="cls-9" d="M56,86.3v.53l0,.2,0,.13-.07.19-.07.13-.13.19-.08.11-.16.16-.1.08-.18.13-.13.06-.22.09-.15,0-.16,0-.15,0-.22,0-.14,0-.34,0H52.33l-.47-.06-.24,0-.14,0-.21-.07-.14,0-.18-.1-.13-.07L50.65,88l-.12-.09-.13-.16-.09-.1-.12-.16-.08-.12-.09-.2L50,87l0-.2v-.37l0-.15,0-.21L50,86l.1-.2.06-.12.08-.1.08-.1.1-.1.1-.08.12-.12v-.09l0-.07-.07-.09-.1-.13-.09-.14-.07-.14-.06-.15-.06-.15,0-.15,0-.16v-.14l0-.2v-.14l0-.16.06-.14.06-.15.08-.14.1-.12.09-.11.13-.16.1-.1.12-.1.13-.08.07,0,.16-.07.07,0,.15-.06.14,0,.21-.06.14,0,.14,0h.14l.23,0H53l.23,0h.28l.32.06.16,0,.46.14.13,0,.2.08.13.07.17.11.13.08.12.1.1.11.13.17.09.12.07.14.06.15,0,.15,0,.15,0,.21V84l0,.14-.06.2-.07.13-.09.14-.1.12-.11.1-.09.1,0,.07,0,.07.09.09.11.1.1.11.17.25.07.13.07.19,0,.15ZM53.57,87l.14,0,.06,0,.12-.1,0-.06.08-.15,0-.07v-.23L54,86.13l-.05-.06-.12-.1-.07,0-.14-.07-.18-.07-.14,0-.21,0H52.9l-.21,0-.14,0-.21,0-.14.06-.07,0L52,86l-.05,0-.07.13,0,.14v.18l.06.14,0,.07.11.12.12.09.13.06.15.05.16,0h.58l.14,0Zm-1.4-3.52-.06.06-.07.12,0,.13V84l.07.12,0,.06.11.1.06,0,.13.08.06,0,.15,0,.22,0h.29l.14,0,.2-.07.11-.06.06,0,.08-.1.05,0,0-.12,0-.14v-.13l0-.07-.05-.12-.06-.11-.14-.13-.12-.07-.14,0-.14,0h-.48l-.14,0-.19.07-.11.06Z" transform="translate(0 0)"/><path class="cls-9" d="M75.28,84.71l0,.6v1.1l0,.13,0,.21-.05.13-.07.18-.07.13-.11.18-.09.12-.15.17-.11.1-.12.11-.12.08-.14.08-.14.08-.21.09-.14,0-.13,0-.14,0-.28,0-.15,0-.31.06-.23,0h-.32l-.15,0-.4-.07-.15,0-.23-.06-.15,0-.16,0-.14,0-.14,0L70.41,88,70.27,88l-.12-.09L70,87.76l-.1-.11,0-.06-.09-.13-.1-.2,0-.15,0-.13-.06-.3v-.17l0-.09,0,0,.09,0h.35l.43,0,.35,0h.28l.12,0,.08.06,0,.1,0,.07.08.1.07.06.12.07.15,0,.15,0,.14,0,.27,0h.08l.15,0h.08l.15,0,.14-.07.13-.06.11-.1.1-.13.07-.14,0-.13v-.2l0-.06,0-.15-.07-.12-.07,0h0l-.07,0-.14.07-.15.06-.2.06-.14,0-.21,0h-.14l-.58,0H71.2l-.15,0-.16,0-.15,0-.25-.12-.13-.07-.2-.12-.11-.1-.16-.14-.08-.11-.17-.26-.06-.14-.09-.28,0-.23,0-.15V83.8l0-.28,0-.14,0-.13,0-.13.07-.2.07-.12.1-.17.08-.11.13-.15.11-.1.15-.13.13-.1.14-.08.14-.06.21-.09.13,0,.2-.05.35-.07.28,0H72l.23,0h.16l.2,0h.15l.2,0,.15,0,.21,0,.32.09.14,0,.15.07.14.07.19.12.12.08.17.12.1.1.14.15.09.11.09.12.07.12.13.24,0,.14,0,.14,0,.16,0,.23v.91ZM73.35,84v-.24l-.06-.14-.08-.11-.08-.1-.06,0-.1-.07-.12,0-.06,0-.14,0-.24,0h-.14l-.27,0H71.9l-.15,0-.06,0-.13.07-.1.1-.08.11,0,.06,0,.22V84l0,.14.06.12.08.12.1.1.13.07.21.1.13,0,.21,0h.14l.28,0,.15,0,.15,0,.13-.08.1-.1.08-.12,0-.06,0-.15Z" transform="translate(0 0)"/><path class="cls-9" d="M95,64v1.55l0,.14,0,.21-.09.3-.06.13-.1.19-.08.13-.09.14-.1.13-.1.13-.11.11-.15.15-.11.09-.18.09-.12.06-.19.09-.13,0-.19.08-.13,0-.2,0-.14,0h-.31l-.23,0H92l-.24,0h-.15l-.5-.09-.14,0-.19-.06-.14-.06-.21-.09-.13-.08-.13-.08L90,67.29l-.18-.13-.1-.09-.14-.16-.08-.1-.13-.17-.07-.12-.1-.18,0-.13L89.09,66l0-.13,0-.2,0-.14,0-.16,0-.15v-1.1l0-.3,0-.15,0-.24,0-.15,0-.2,0-.14,0-.19,0-.14.05-.14.07-.14.11-.2.09-.13.15-.17.12-.1.13-.1.12-.08.18-.1.12-.07.33-.14.25-.09.14,0,.13,0,.15,0h.39l.47,0h.15l.22,0,.15,0,.36.09.16,0,.14.06.14,0,.13.07.21.12.12.08.11.1.1.12.14.19.09.13.13.2.06.13.06.14.05.13.07.21,0,.14,0,.15,0,.15,0,.2,0,.14Zm-3.93,1.92.09.12.1.11.12.07.06,0,.15,0,.16,0h.33l.23,0,.14,0,.14-.06.13-.08.05-.05.1-.12.08-.14.07-.14.09-.32,0-.15V65l0-.44v-.79l0-.14,0-.16,0-.14-.1-.2L92.83,63l-.11-.11-.12-.1-.13-.06-.06,0-.14,0h-.35l-.16,0H91.7l-.14,0-.14.07-.17.11-.1.11-.1.13-.08.14-.06.17,0,.16V65l0,.23v.15l0,.16,0,.13,0,.06.06.12Z" transform="translate(0 0)"/><rect class="cls-10" x="81.24" y="80.17" width="17.46" height="9.53"/><polygon class="cls-11" points="95.22 40.57 95.22 46.7 90.31 43.72 95.22 40.57"/><polygon class="cls-12" points="36.38 32.22 33.78 32.22 39.38 23.49 39.38 27.54 36.38 32.22"/><polygon class="cls-13" points="50.82 9.69 48.22 9.69 48.23 9.68 50.83 9.68 50.82 9.69"/><polygon class="cls-12" points="48.32 13.59 45.72 13.59 48.22 9.69 50.82 9.69 48.32 13.59"/><polygon class="cls-14" points="39.38 27.54 39.38 23.49 45.72 13.59 48.32 13.59 39.38 27.54"/><polygon class="cls-13" points="56.62 9.69 54.02 9.69 54.03 9.68 56.63 9.68 56.62 9.69"/><path class="cls-12" d="M54.12,13.59h-2.6L54,9.69h2.6ZM42.18,32.22h-2.6l1.93-3h2.6l-1.93,3" transform="translate(0 0)"/><polygon class="cls-14" points="44.11 29.2 41.51 29.2 51.52 13.59 54.12 13.59 44.11 29.2"/></g><text class="cls-15" transform="translate(85.81 88.47)">ok</text><text class="cls-16" transform="translate(0 132.4)">Kapısına kendi kurallarını koyarak şifre belirleyen </text><text class="cls-16" transform="translate(0 145.4)">Seval Hanım</text><rect class="cls-17" x="107.71" y="150.52" width="33.17" height="16.16"/><text class="cls-18" transform="translate(0.03 266.45)">Bulduğu sonuçlarını küçükten büyüğe sıralanması ile şifre </text><text class="cls-18" transform="translate(0 279.45)">oluşmuştu<tspan class="cls-19" x="41.02" y="0">r</tspan><tspan x="43.53" y="0">.</tspan></text><text class="cls-18" transform="translate(135.4 325.25)">1</text><g class="cls-20"><path class="cls-21" d="M36.7,290.62V331.8m20.15-41.18V331.8M16.54,311.21H77M16.54,290.62H77v41.17H16.54Z" transform="translate(0 0)"/></g><text class="cls-18" transform="translate(23.91 304.04)">2</text><text class="cls-22" transform="translate(11.29 161.57)">•</text><text class="cls-18" transform="translate(23.16 161.57)">Kumanda üzerindeki </text><text class="cls-23" transform="translate(119.54 159.91)">ok</text><text class="cls-18" transform="translate(140.88 161.57)"><tspan xml:space="preserve"> tuşuna basacak</tspan></text><text class="cls-22" transform="translate(11.29 181.36)">•</text><text class="cls-18" transform="translate(23.16 181.36)">Ekranda 4 ayrı sayı grubu belirecek</text><text class="cls-22" transform="translate(11.29 201.16)">•</text><text class="cls-18" transform="translate(23.16 201.16)">Her grubun ayrı ayrı ortalamasını alacak</text><text class="cls-22" transform="translate(11.29 220.95)">•</text><text class="cls-18" transform="translate(23.16 220.95)">Aritmetik ortalaması; 4&apos;den küçük olan grubun</text><text class="cls-18" transform="translate(23.16 233.66)">modu, 4 ve 4 den büyük olan grubun medyanı</text><text class="cls-18" transform="translate(23.16 246.36)">hesaplanacaktı<tspan class="cls-19" x="60.54" y="0">r</tspan><tspan x="63.05" y="0">.</tspan></text><text class="cls-18" transform="translate(23.91 325.24)">2</text><text class="cls-18" transform="translate(44.94 304.04)">4</text><text class="cls-18" transform="translate(44.94 325.24)">9</text><text class="cls-18" transform="translate(66.14 304.04)">6</text><text class="cls-18" transform="translate(66.14 325.24)">9</text><g class="cls-20"><path class="cls-21" d="M106,290.62V331.8m20.16-41.18V331.8M85.79,311.21h60.48M85.79,290.62h60.48v41.17H85.79Z" transform="translate(0 0)"/></g><text class="cls-18" transform="translate(93.16 304.04)">3</text><text class="cls-18" transform="translate(93.16 325.24)">1</text><text class="cls-18" transform="translate(114.2 304.04)">5</text><text class="cls-18" transform="translate(114.2 325.24)">1</text><text class="cls-18" transform="translate(135.4 304.04)">3</text><g class="cls-20"><path class="cls-21" d="M36.7,342.3v41.18M56.85,342.3v41.18M16.54,362.89H77M16.54,342.3H77v41.18H16.54Z" transform="translate(0 0)"/></g><text class="cls-18" transform="translate(23.91 355.72)">1</text><text class="cls-18" transform="translate(23.91 376.93)">7</text><text class="cls-18" transform="translate(44.94 355.72)">7</text><text class="cls-18" transform="translate(44.94 376.93)">7</text><text class="cls-18" transform="translate(66.14 355.72)">3</text><text class="cls-18" transform="translate(66.14 376.93)">1</text><g class="cls-20"><path class="cls-21" d="M106,342.3v41.18m20.16-41.18v41.18M85.79,362.89h60.48M85.79,342.3h60.48v41.18H85.79Z" transform="translate(0 0)"/></g><text class="cls-18" transform="translate(93.16 355.72)">8</text><text class="cls-18" transform="translate(93.16 376.93)">4</text><text class="cls-18" transform="translate(114.2 355.72)">4</text><text class="cls-18" transform="translate(114.2 376.93)">2</text><text class="cls-18" transform="translate(135.4 355.72)">4</text><text class="cls-18" transform="translate(135.4 376.93)">8</text><text class="cls-16" transform="translate(0 405.35)">Buna göre doğru şifre aşağıdakilerden hangisidir?</text><text class="cls-18" transform="translate(0.16 432.94)">A<tspan class="cls-24" x="6" y="0">)</tspan><tspan x="11.49" y="0">1144</tspan><tspan class="cls-25" x="31.51" y="0"> </tspan><tspan x="45.99" y="0">B) 1145</tspan></text><text class="cls-18" transform="translate(95.15 432.94)">C<tspan class="cls-24" x="6.5" y="0">)</tspan><tspan x="11.99" y="0">1155</tspan></text><text class="cls-18" transform="translate(148.15 432.94)">D<tspan class="cls-24" x="6.5" y="0">)</tspan><tspan x="11.99" y="0">1415</tspan></text><text class="cls-18" transform="translate(203.15 432.94)">E<tspan class="cls-24" x="6" y="0">)</tspan><tspan x="11.49" y="0">1455</tspan></text></g></g></svg>