<svg xmlns="http://www.w3.org/2000/svg" xmlns:xlink="http://www.w3.org/1999/xlink" viewBox="0 0 211.46 133.99"><defs><style>.cls-1,.cls-8,.cls-9{fill:none;}.cls-17,.cls-2,.cls-4{font-size:9px;}.cls-17,.cls-18,.cls-2,.cls-3,.cls-4,.cls-6{fill:#1d1d1b;}.cls-2,.cls-3,.cls-6{font-family:ArialMT, Arial;}.cls-18,.cls-3{font-size:7.2px;}.cls-4{font-family:MMTimesRoman;}.cls-5{letter-spacing:0.2em;}.cls-6{font-size:7px;}.cls-7{clip-path:url(#clip-path);}.cls-8,.cls-9{stroke:#1d1d1b;stroke-miterlimit:10;}.cls-8{stroke-width:1.4px;}.cls-9{stroke-width:0.81px;}.cls-10{clip-path:url(#clip-path-2);}.cls-11{clip-path:url(#clip-path-3);}.cls-12{clip-path:url(#clip-path-4);}.cls-13{clip-path:url(#clip-path-5);}.cls-14{clip-path:url(#clip-path-6);}.cls-15{clip-path:url(#clip-path-7);}.cls-16{letter-spacing:0.28em;}.cls-17,.cls-18{font-family:Arial-BoldMT, Arial;font-weight:700;}</style><clipPath id="clip-path"><polygon class="cls-1" points="21.86 21.58 21.86 26.77 20.55 28.58 20.84 28.87 21.22 28.35 22.36 32 25.87 21.97 43.84 21.97 43.84 21.58 21.86 21.58"/></clipPath><clipPath id="clip-path-2"><polygon class="cls-1" points="22.33 53.07 22.33 58.27 21.02 60.08 21.31 60.37 21.68 59.85 22.83 63.5 26.34 53.47 39.31 53.47 39.31 53.07 22.33 53.07"/></clipPath><clipPath id="clip-path-3"><polygon class="cls-1" points="22.42 37.32 22.42 42.52 21.11 44.33 21.4 44.62 21.78 44.1 22.92 47.75 26.43 37.72 39.4 37.72 39.4 37.32 22.42 37.32"/></clipPath><clipPath id="clip-path-4"><polygon class="cls-1" points="45.2 53.07 45.2 58.27 43.89 60.08 44.18 60.37 44.56 59.85 45.7 63.5 49.21 53.47 62.18 53.47 62.18 53.07 45.2 53.07"/></clipPath><clipPath id="clip-path-5"><polygon class="cls-1" points="49.73 21.58 49.73 26.77 48.42 28.58 48.71 28.87 49.09 28.35 50.23 32 53.74 21.97 71.71 21.97 71.71 21.58 49.73 21.58"/></clipPath><clipPath id="clip-path-6"><polygon class="cls-1" points="50.73 37.32 50.73 42.52 49.42 44.33 49.71 44.62 50.09 44.1 51.23 47.75 54.74 37.72 72.71 37.72 72.71 37.32 50.73 37.32"/></clipPath><clipPath id="clip-path-7"><polygon class="cls-1" points="68.04 53.07 68.04 58.27 66.76 60.08 67.06 60.37 67.42 59.85 68.54 63.5 71.97 53.47 78.68 53.47 78.68 53.07 68.04 53.07"/></clipPath></defs><g id="Layer_2" data-name="Layer 2"><g id="Layer_1-2" data-name="Layer 1"><text class="cls-2" transform="translate(0.03 10.68)">i</text><text class="cls-3" transform="translate(2.03 6.18)">2</text><text class="cls-2" transform="translate(6.03 10.68)"><tspan xml:space="preserve"> = –1 olmak üzere</tspan></text><text class="cls-2" transform="translate(63.13 62.63)">.</text><text class="cls-2" transform="translate(40.25 62.63)">.</text><text class="cls-2" transform="translate(0 62.63)">Z</text><text class="cls-2" transform="translate(56.28 62.63)">2</text><text class="cls-4" transform="translate(74.56 46.44)">+</text><text class="cls-2" transform="translate(82.53 46.88)">4</text><text class="cls-4" transform="translate(41.25 46.44)">+</text><text class="cls-2" transform="translate(66.81 46.88)">6</text><text class="cls-2" transform="translate(61.81 46.88)">3</text><text class="cls-4" transform="translate(26.27 62.19)">-</text><text class="cls-2" transform="translate(33.4 62.63)">3</text><text class="cls-2" transform="translate(72.4 62.63)">6</text><text class="cls-2" transform="translate(0 31.13)">Z</text><text class="cls-4" transform="translate(25.81 30.69)">-</text><text class="cls-2" transform="translate(32.94 31.13)">1<tspan class="cls-5" x="5.01" y="0">6</tspan><tspan x="11.84" y="0">.</tspan></text><text class="cls-4" transform="translate(53.69 30.69)">-</text><text class="cls-2" transform="translate(60.82 31.13)">25</text><text class="cls-6" transform="translate(5.37 33.82)">1</text><text class="cls-6" transform="translate(5.93 49.57)">2</text><text class="cls-6" transform="translate(5.84 65.32)">3</text><text class="cls-4" transform="translate(11.75 30.69)">=</text><text class="cls-4" transform="translate(12.31 46.44)">=</text><text class="cls-4" transform="translate(12.21 62.19)">=</text><text class="cls-2" transform="translate(0 46.88)">Z</text><text class="cls-4" transform="translate(26.38 46.44)">-</text><text class="cls-2" transform="translate(33.5 46.88)">9</text><text class="cls-4" transform="translate(54.68 46.44)">-</text><text class="cls-4" transform="translate(49.15 62.19)">-</text><g class="cls-7"><polyline class="cls-8" points="20.84 28.87 21.22 28.35 22.36 32"/><polyline class="cls-9" points="22.36 32 25.87 21.97 43.84 21.97"/></g><g class="cls-10"><polyline class="cls-8" points="21.31 60.37 21.68 59.85 22.83 63.5"/><polyline class="cls-9" points="22.83 63.5 26.34 53.47 39.31 53.47"/></g><g class="cls-11"><polyline class="cls-8" points="21.4 44.62 21.78 44.1 22.92 47.75"/><polyline class="cls-9" points="22.92 47.75 26.43 37.72 39.4 37.72"/></g><g class="cls-12"><polyline class="cls-8" points="44.18 60.37 44.56 59.85 45.7 63.5"/><polyline class="cls-9" points="45.7 63.5 49.21 53.47 62.18 53.47"/></g><g class="cls-13"><polyline class="cls-8" points="48.71 28.87 49.09 28.35 50.23 32"/><polyline class="cls-9" points="50.23 32 53.74 21.97 71.71 21.97"/></g><g class="cls-14"><polyline class="cls-8" points="49.71 44.62 50.09 44.1 51.23 47.75"/><polyline class="cls-9" points="51.23 47.75 54.74 37.72 72.71 37.72"/></g><g class="cls-15"><polyline class="cls-8" points="67.06 60.37 67.43 59.85 68.54 63.5"/><polyline class="cls-9" points="68.54 63.5 71.97 53.47 78.68 53.47"/></g><text class="cls-2" transform="translate(0.19 114.23)">A<tspan class="cls-16" x="6" y="0">)</tspan><tspan x="11.49" y="0">–10–9i</tspan></text><text class="cls-17" transform="translate(0.03 80.14)">olduğuna göre, Z</text><text class="cls-18" transform="translate(73.02 84.19)">1</text><text class="cls-17" transform="translate(77.03 80.14)"><tspan xml:space="preserve"> + Z</tspan></text><text class="cls-18" transform="translate(92.78 84.19)">2</text><text class="cls-17" transform="translate(96.78 80.14)"><tspan xml:space="preserve"> – Z</tspan></text><text class="cls-18" transform="translate(112.29 84.19)">3</text><text class="cls-17" transform="translate(116.29 80.14)"><tspan xml:space="preserve"> ifadesinin eşiti</tspan></text><text class="cls-17" transform="translate(0.03 93.14)">aşağıdakilerden hangisidir?</text><text class="cls-2" transform="translate(87.2 114.23)">B<tspan class="cls-16" x="6" y="0">)</tspan><tspan x="11.49" y="0">10–9i</tspan></text><text class="cls-2" transform="translate(172.19 114.23)">C<tspan class="cls-16" x="6.5" y="0">)</tspan><tspan x="11.99" y="0">–10+9i</tspan></text><text class="cls-2" transform="translate(44.19 131.07)">D<tspan class="cls-16" x="6.5" y="0">)</tspan><tspan x="11.99" y="0">10 + 9i</tspan></text><text class="cls-2" transform="translate(136.19 131.07)">E<tspan class="cls-16" x="6" y="0">)</tspan><tspan x="11.49" y="0">0</tspan></text></g></g></svg>