<svg xmlns="http://www.w3.org/2000/svg" viewBox="0 0 231.85 103.56"><defs><style>.cls-1,.cls-3,.cls-5{font-size:9px;}.cls-1,.cls-2,.cls-3,.cls-4,.cls-5{fill:#1d1d1b;}.cls-1,.cls-2{font-family:ArialMT, Arial;}.cls-2{font-size:7px;}.cls-3{font-family:MMTimesRoman;}.cls-5{font-family:Arial-BoldMT, Arial;font-weight:700;}.cls-6{letter-spacing:0.28em;}.cls-7{letter-spacing:0em;}.cls-8{letter-spacing:2.58em;}.cls-9{fill:#1e1e1c;}.cls-10{fill:#1e1f1d;}</style></defs><g id="Layer_2" data-name="Layer 2"><g id="Layer_1-2" data-name="Layer 1"><text class="cls-1" transform="translate(38.91 50.69)">3</text><text class="cls-1" transform="translate(38.97 38.54)">2</text><text class="cls-1" transform="translate(61.6 50.69)">2</text><text class="cls-1" transform="translate(61.22 38.54)">1</text><text class="cls-1" transform="translate(27.75 23.57)">3</text><text class="cls-1" transform="translate(27.43 11.41)">1</text><text class="cls-1" transform="translate(68.68 23.57)">3</text><text class="cls-1" transform="translate(68.36 11.41)">1</text><text class="cls-2" transform="translate(81.66 6.01)">3</text><text class="cls-2" transform="translate(40.81 6.01)">2</text><text class="cls-3" transform="translate(49.85 44.07)">-</text><text class="cls-3" transform="translate(46.56 17.32)">-</text><text class="cls-3" transform="translate(59.39 16.94)">-</text><rect class="cls-4" x="16.25" y="29.04" width="73.34" height="0.34"/><rect class="cls-4" x="24.1" y="14.07" width="12.69" height="0.34"/><rect class="cls-4" x="35.19" y="41.19" width="12.81" height="0.34"/><rect class="cls-4" x="57.81" y="41.19" width="12.81" height="0.34"/><rect class="cls-4" x="65.03" y="14.07" width="12.69" height="0.34"/><text class="cls-5" transform="translate(0 66.82)">işleminin sonucu kaçtır?</text><text class="cls-1" transform="translate(15.44 88.39)">5</text><text class="cls-1" transform="translate(15.44 100.64)">9</text><rect class="cls-4" x="11.75" y="91.13" width="12.72" height="0.34"/><text class="cls-1" transform="translate(0.16 94.42)">A)</text><text class="cls-1" transform="translate(46.15 94.42)">B)</text><rect class="cls-4" x="57.75" y="91.13" width="12.72" height="0.34"/><text class="cls-1" transform="translate(61.44 88.38)">8</text><text class="cls-1" transform="translate(55.16 94.41)"> </text><text class="cls-1" transform="translate(61.44 100.63)">9</text><text class="cls-1" transform="translate(95.16 94.41)">C<tspan class="cls-6" x="6.5" y="0">)</tspan><tspan class="cls-7" x="11.99" y="0">1</tspan></text><text class="cls-1" transform="translate(148.16 94.41)">D) </text><text class="cls-1" transform="translate(166.13 100.63)">9</text><text class="cls-1" transform="translate(163.32 88.47)">11</text><rect class="cls-4" x="160.25" y="91.13" width="17.09" height="0.34"/><text class="cls-1" transform="translate(177.44 94.41)"><tspan class="cls-8"> </tspan><tspan x="25.72" y="0">E)</tspan></text><text class="cls-1" transform="translate(217.82 88.38)">13</text><text class="cls-1" transform="translate(212.16 94.41)"> </text><text class="cls-1" transform="translate(220.63 100.63)">9</text><rect class="cls-4" x="214.75" y="91.13" width="17.09" height="0.34"/><path class="cls-9" d="M58.58,25c-4.54-1.84-4.57-19,0-20.85C55.26,9.7,55.4,19.41,58.58,25Z"/><path class="cls-10" d="M78.15,4.14C82.71,6,82.7,23.24,78.15,25,81.48,19.45,81.33,9.72,78.15,4.14Z"/><path class="cls-9" d="M23.13,25c-4.54-1.84-4.58-19,0-20.85C19.8,9.7,20,19.41,23.13,25Z"/><path class="cls-10" d="M37.61,4.14c4.56,1.88,4.56,19.1,0,20.85C41,19.45,40.79,9.72,37.61,4.14Z"/></g></g></svg>