<svg xmlns="http://www.w3.org/2000/svg" xmlns:xlink="http://www.w3.org/1999/xlink" viewBox="0 0 223.67 125.07"><defs><style>.cls-1,.cls-4,.cls-6{fill:none;}.cls-12,.cls-15,.cls-16,.cls-2,.cls-8,.cls-9{font-size:9px;}.cls-10,.cls-12,.cls-14,.cls-15,.cls-16,.cls-17,.cls-2,.cls-20,.cls-8,.cls-9{fill:#1d1d1b;}.cls-10,.cls-12,.cls-2,.cls-20{font-family:ArialMT, Arial;}.cls-3{clip-path:url(#clip-path);}.cls-4,.cls-6{stroke:#1d1d1b;stroke-miterlimit:10;}.cls-4{stroke-width:0.44px;}.cls-5{clip-path:url(#clip-path-2);}.cls-6{stroke-width:0.56px;}.cls-7{clip-path:url(#clip-path-3);}.cls-16,.cls-8{font-family:Arial-BoldMT, Arial;font-weight:700;}.cls-14,.cls-9{font-family:MMTimesRoman;}.cls-10,.cls-14{font-size:8px;}.cls-11{letter-spacing:1.93em;}.cls-12{letter-spacing:2.07em;}.cls-13{letter-spacing:0em;}.cls-15{font-family:MMTimesBold;}.cls-16{letter-spacing:2.6em;}.cls-18{clip-path:url(#clip-path-4);}.cls-19{letter-spacing:0.28em;}.cls-20{font-size:7.2px;}.cls-21{letter-spacing:0.28em;}.cls-22{letter-spacing:0em;}</style><clipPath id="clip-path" transform="translate(0 0.05)"><rect class="cls-1" y="0.09" width="35.34" height="17.28"/></clipPath><clipPath id="clip-path-2" transform="translate(0 0.05)"><rect class="cls-1" x="42.85" width="38.31" height="17.59"/></clipPath><clipPath id="clip-path-3" transform="translate(0 0.05)"><rect class="cls-1" x="103.17" y="0.09" width="45.94" height="17.28"/></clipPath><clipPath id="clip-path-4" transform="translate(0 0.05)"><rect class="cls-1" x="16.16" y="38.97" width="55.25" height="40.5"/></clipPath></defs><g id="Layer_2" data-name="Layer 2"><g id="Layer_1-2" data-name="Layer 1"><text class="cls-2" transform="translate(4.72 12.42)">a</text><g class="cls-3"><rect class="cls-4" x="0.31" y="0.45" width="14.16" height="16.66"/></g><g class="cls-5"><circle class="cls-6" cx="51.64" cy="8.84" r="8.56"/></g><g class="cls-7"><polygon class="cls-4" points="113.14 0.45 122.79 17.11 103.48 17.11 113.14 0.45"/></g><text class="cls-8" transform="translate(0 33.89)">olduğuna göre;</text><text class="cls-8" transform="translate(28.72 74.52)">1</text><text class="cls-9" transform="translate(17.15 11.99)">=</text><text class="cls-10" transform="translate(30.81 8.42)">7</text><text class="cls-2" transform="translate(25.75 12.42)">a</text><text class="cls-2" transform="translate(35.35 12.38)"><tspan xml:space="preserve">;  </tspan></text><text class="cls-2" transform="translate(49.01 12.41)"><tspan class="cls-11">a</tspan><tspan x="22.41" y="0">a</tspan></text><text class="cls-9" transform="translate(62.82 11.97)">=</text><text class="cls-10" transform="translate(76.63 8.42)">2</text><text class="cls-2" transform="translate(81.16 12.39)"><tspan xml:space="preserve">   ve  </tspan></text><text class="cls-9" transform="translate(125.48 11.98)">=</text><text class="cls-12" transform="translate(110.48 12.42)">a<tspan class="cls-13" x="23.59" y="0">a</tspan></text><text class="cls-14" transform="translate(139.13 8.01)">-</text><text class="cls-10" transform="translate(144.58 8.42)">3</text><text class="cls-15" transform="translate(35.56 74.08)">+</text><text class="cls-8" transform="translate(48.16 74.52)">3</text><text class="cls-15" transform="translate(41.87 50.96)">+</text><text class="cls-16" transform="translate(27.5 51.39)">3<tspan class="cls-13" x="28.44" y="0">9</tspan></text><rect class="cls-17" x="16.25" y="59.23" width="55.06" height="0.41"/><g class="cls-18"><path class="cls-4" d="M43.75,62.5H57.91V79.16H43.75ZM30.16,39.38,39.81,56H20.5Z" transform="translate(0 0.05)"/><circle class="cls-6" cx="58.61" cy="47.86" r="8.58"/></g><text class="cls-8" transform="translate(0 95.76)">ifadesinin değeri kaçtır?</text><text class="cls-2" transform="translate(0.16 122.14)">A<tspan class="cls-19" x="6" y="0">)</tspan><tspan class="cls-13" x="11.49" y="0">3</tspan></text><text class="cls-20" transform="translate(16.66 117.65)">–3</text><text class="cls-2" transform="translate(46.15 122.15)">B<tspan class="cls-19" x="6" y="0">)</tspan><tspan x="11.49" y="0">3</tspan></text><text class="cls-20" transform="translate(62.66 117.65)">–2</text><text class="cls-2" transform="translate(95.16 122.15)">C<tspan class="cls-21" x="6.5" y="0">)</tspan><tspan class="cls-22" x="11.99" y="0">3</tspan></text><text class="cls-20" transform="translate(112.16 117.65)">–1</text><text class="cls-2" transform="translate(148.16 122.15)">D<tspan class="cls-19" x="6.5" y="0">)</tspan><tspan class="cls-22" x="11.99" y="0">3</tspan></text><text class="cls-20" transform="translate(165.16 117.65)">2</text><text class="cls-2" transform="translate(203.16 122.15)">E<tspan class="cls-19" x="6" y="0">)</tspan><tspan class="cls-13" x="11.49" y="0">3</tspan></text><text class="cls-20" transform="translate(219.66 117.65)">3</text></g></g></svg>