<svg xmlns="http://www.w3.org/2000/svg" viewBox="0 0 227.56 98.86"><defs><style>.cls-1,.cls-2,.cls-5,.cls-7{font-size:9px;}.cls-1,.cls-2,.cls-3,.cls-4,.cls-5,.cls-6,.cls-7{fill:#1d1d1b;}.cls-1{font-family:MMBinary;}.cls-2,.cls-4{font-family:ArialMT, Arial;}.cls-3,.cls-4{font-size:7px;}.cls-3,.cls-5{font-family:MMTimesRoman;}.cls-7{font-family:Arial-BoldMT, Arial;font-weight:700;}.cls-8{letter-spacing:3.07em;}.cls-9{fill:#1e1e1c;}.cls-10{fill:#1e1f1d;}</style></defs><g id="Layer_2" data-name="Layer 2"><g id="Layer_1-2" data-name="Layer 1"><text class="cls-1" transform="translate(107.88 26.93)">:</text><text class="cls-2" transform="translate(22.81 39.53)">2</text><text class="cls-2" transform="translate(41.32 45.62)">5</text><text class="cls-2" transform="translate(41 33.56)">1</text><text class="cls-2" transform="translate(34 21.31)">3</text><text class="cls-2" transform="translate(79.25 33.47)">7</text><text class="cls-2" transform="translate(71.88 21.31)">3</text><text class="cls-2" transform="translate(71.57 9.15)">1</text><text class="cls-2" transform="translate(90.72 15.12)">5</text><text class="cls-2" transform="translate(119.91 33.46)">3</text><text class="cls-2" transform="translate(119.97 21.3)">2</text><text class="cls-3" transform="translate(132.88 15.56)">-</text><text class="cls-4" transform="translate(137.63 15.9)">1</text><text class="cls-5" transform="translate(29.65 39.09)">-</text><text class="cls-5" transform="translate(56.21 26.93)">+</text><text class="cls-5" transform="translate(82.74 14.68)">-</text><rect class="cls-6" x="19.03" y="24.06" width="35.34" height="0.34"/><rect class="cls-6" x="37.63" y="36.21" width="12.72" height="0.34"/><rect class="cls-6" x="64.19" y="24.06" width="35.56" height="0.34"/><rect class="cls-6" x="68.22" y="11.81" width="12.69" height="0.34"/><rect class="cls-6" x="116.19" y="23.96" width="12.81" height="0.34"/><text class="cls-7" transform="translate(0 62.13)">işleminin sonucu kaçtır?</text><text class="cls-2" transform="translate(0.16 89.72)">A) </text><text class="cls-2" transform="translate(22.16 95.94)">3</text><text class="cls-2" transform="translate(22.22 83.78)">2</text><text class="cls-5" transform="translate(11.31 89.31)">-</text><rect class="cls-6" x="18.44" y="86.43" width="12.81" height="0.34"/><text class="cls-2" transform="translate(46.16 89.72)">B)</text><text class="cls-5" transform="translate(57.31 89.31)">-</text><text class="cls-2" transform="translate(55.16 89.72)"> </text><text class="cls-2" transform="translate(68.09 95.93)">3</text><text class="cls-2" transform="translate(67.78 83.78)">1</text><rect class="cls-6" x="64.44" y="86.43" width="12.69" height="0.34"/><text class="cls-2" transform="translate(95.16 89.72)">C) 0</text><text class="cls-2" transform="translate(148.16 89.72)">D) </text><text class="cls-2" transform="translate(163.91 95.93)">3</text><text class="cls-2" transform="translate(163.59 83.78)">1</text><rect class="cls-6" x="160.25" y="86.43" width="12.69" height="0.34"/><text class="cls-2" transform="translate(173.03 89.72)"><tspan class="cls-8"> </tspan><tspan x="30.13" y="0">E) </tspan></text><text class="cls-2" transform="translate(218.47 95.93)">3</text><text class="cls-2" transform="translate(218.53 83.78)">2</text><rect class="cls-6" x="214.75" y="86.43" width="12.81" height="0.34"/><path class="cls-9" d="M11.31,50h-4V0h4V1h-3V49h3Z"/><path class="cls-9" d="M99.75,0h4V50h-4V49h3V1h-3Z"/><path class="cls-9" d="M128.46,14c4.56,1.88,4.56,19.1,0,20.85C131.79,29.28,131.64,19.55,128.46,14Z"/><path class="cls-10" d="M116.73,34.83c-4.54-1.85-4.57-19,0-20.85C113.41,19.53,113.55,29.25,116.73,34.83Z"/></g></g></svg>