<svg xmlns="http://www.w3.org/2000/svg" viewBox="0 0 830.38 307.21"><defs><style>.cls-1{fill:#f7f6f1;opacity:0.15;}</style></defs><g id="Layer_2" data-name="Layer 2"><g id="Layer_2-2" data-name="Layer 2"><path class="cls-1" d="M800.94,185.48c-1.83-7.79-6.57-14.12-10.44-20.87-8.12-14.14-6-25.77,6.7-36.12,5.69-4.65,11.8-8.69,17.85-12.8a33.58,33.58,0,0,0,13.9-20c3.61-13.61-.59-26.72-2.17-40-.24-2-1.82-2.06-3.38-2.16-18.13-1.13-36.23-1.78-54.29,1.28C759.94,56.36,753.48,52,752.06,43c-1.33-8.47-5.07-15.6-9.33-22.85C736.75,10,727,8.81,717,7.73a4.85,4.85,0,0,0-4.54,2.7c-7.33,12.58-19.51,19.31-31.6,26C671,41.91,661.3,48,650.08,50.41c-9.08,2-18.31,3.28-27.41,5.15-10.42,2.13-20.85,4.4-30.13,10-2.87,1.72-5.41,3.7-6.18,7.39-3.12,15-12.32,25.94-24.89,33.5-24.38,14.68-49.27,28.5-74,42.61C474,156.71,460.67,164.5,447,171.77c-12,6.41-24.14,5.5-34.47-3.44-15.45-13.39-32.5-24.29-49.87-34.87-9-5.47-16.22-12.68-19.82-23C337.67,95.59,329,82.63,318.45,71.29,296.68,47.88,274.09,25.23,252,2.13c-2.74-2.87-4.61-2.73-7.41-.27-19.31,16.93-42.73,25.44-67.1,31.27-12.72,3-24.46,7.39-34.73,15.4-16.57,12.91-34.24,24.23-51.46,36.2-10.94,7.59-22.61,14.75-30.71,25.38C51.76,121.66,41,130.51,29,138c-12.51,7.81-20.72,19-27.42,31.66C-1,174.43-.29,179.28,2.64,183.8c.95,1.46,1.7,2.68,3.93,1.63,6.15-2.9,7.58-1.94,8,4.92.09,1.32.22,2.65.41,4,.53,3.75,2.71,5.19,6.34,4.26,2.69-.7,5.26-.85,7.71.67,3,1.85,3.82,4.87,4.41,8,.21,1.16.51,2.39,2,2.52a3.2,3.2,0,0,0,2.86-1.72c.89-1.28.09-2.12-.93-2.88a2.93,2.93,0,0,1-1.24-3.49,8.06,8.06,0,0,1,13.1-3.91,41.5,41.5,0,0,0,4.05,2.91c8.66,5.42,8.67,5.4.44,10.77-.28.18-.58.33-.85.53a3,3,0,0,0-1.19,3.52c.38,1.47,1.51,1.45,2.72,1.58,6,.63,7,1.85,6.32,7.94-.23,2.14-.8,4.24-1.15,6.37-.79,4.84,0,8.76,5.1,11.17a19.35,19.35,0,0,1,7.44,5.74c3.63,5.11,8.78,6.36,14.3,8,6,1.75,12.68,1.95,17.82,6,9.5,7.5,11.77,7.6,21.09.19,2.83-2.25,5.5-4.89,9.61-4.67a25.11,25.11,0,0,0,19.5-7.14,5.22,5.22,0,0,1,4-1.66c6.92.24,13.17,1.82,17.11,8.27.51.83.64,2.48,2.42,1.56,1.48-.76,8.25-11.62,7.65-13.07-2.34-5.68.32-10.33,2.67-15.13,2.49-5.07,4.69-10.09,4.27-16.13a59.94,59.94,0,0,1,1.38-17.88c1.87-8,7.72-11,15.05-7.38a19,19,0,0,0,10.64,1.8c3.31-.33,6.61-.74,9.91-1,9.52-.82,18.26,3,27.38,4.61a18,18,0,0,1,8.28,3.21c17.52,13.44,37.61,21.8,58.19,29.11a16.24,16.24,0,0,1,8.18,6.11A253.73,253.73,0,0,1,347.22,258a38.16,38.16,0,0,0,11.92,13.2c6,4.17,12.23,8,18.37,12,10.29,6.65,20.09,5.66,29.84-.69,2.16-1.41,4.24-2,6.57-1.21,4.7,1.55,8.83.52,12.69-2.33A16.41,16.41,0,0,1,436.93,276c7.5.09,15,0,22.5.07,3.95.05,7.6-.52,10.73-3.19,2.34-2,4.7-2.38,6.91.31,1,1.23,2.25,1.61,3.29.12,2.7-3.86,7-6.19,9.59-10.13,5.48-8.18,10.3-8,15.33.28,1.53-2.23,1.44-5.62,4.88-6.47s4.71-3.51,4.69-6.78a11.76,11.76,0,0,1,3.67-8.47,148.35,148.35,0,0,0,11.41-13.88,17.54,17.54,0,0,1,4.59-4.54,240.89,240.89,0,0,0,25.19-18c10.32-8.4,20.15-7.87,30.52.61a16.36,16.36,0,0,0,3.75,2.45,180.78,180.78,0,0,1,34.31,19.17c2.45,1.77,4.86,2.18,7.13-.24a10.46,10.46,0,0,1,11-3.1c5.87,1.91,8.57-1.36,10.69-5.41,3.26-6.24,8.22-10.86,13.43-15.26,4.47-3.78,9.12-7.48,12.29-12.36,5.39-8.32,21.13-5.49,23.88,4.29.77,2.72,2,5.31,2.72,8,3.29,11.89,1.91,16.32-7.74,23.74-8.85,6.81-17.87,13.38-25,22.14-4.35,5.34-4.44,8.12-.37,13.76,2.82,3.91,5.55,7.89,8.24,11.9,4.65,6.92,7.73,14.12,3,22.18,2.1,1.53,5-.71,5.94,1.13,2.63,4.95,7.54,5.78,11.85,8,3.07,1.58,3.35.95,4-1.81.75-3-.86-7.32,2.09-8.89,4.28-2.29,8.19-5.41,12.58-7.12,2.91-1.13,3.33-2.23,2.75-4.44-1.44-5.48-.5-10.89-.09-16.37.24-3.09,1.4-4.38,4.37-3.55,2.57.72,5.21.92,7-1.14,2.16-2.53,4.67-2.16,7.29-1.79a46.73,46.73,0,0,1,5.33,1.23,4.37,4.37,0,0,0,4.51-1.42c1.4-1.5.7-3.22-.27-4.59-2-2.85-4.16-5.62-6.36-8.33-3.38-4.14-5.65-8.83-5.32-14.16.71-11.44,1.72-22.92,4.89-34,1.82-6.37,4.56-9.16,10.31-6.23A41.31,41.31,0,0,0,776.68,198c5.86.15,9.21,3.09,10.54,8.7,1.85,7.84,1.84,7.82,8.84,4.74a17.46,17.46,0,0,1,3.79-1.22c1.68-.3,2.16-1.29,2.1-2.8C801.7,200.08,802.65,192.73,800.94,185.48Z"/></g></g></svg>