<svg xmlns="http://www.w3.org/2000/svg" viewBox="0 0 1713.84 736.18"><defs><style>.cls-1{fill:#fff;}</style></defs><g id="Layer_2" data-name="Layer 2"><g id="Layer_2-2" data-name="Layer 2"><path class="cls-1" d="M0,212.1c6.61-4.83,14.27-6.68,22.2-7.67,3-.38,6.07,0,6.43,3.67s1.29,8.31-3.5,9.77A54.15,54.15,0,0,1,6.44,220c-3.26-.17-4.3-3.26-6.44-4.89Zm11,6.4c3.78-.59,8.21-1.13,12.57-2s3.51-4.61,3.47-7.58c0-2.14-1.62-3.28-3.79-2.82-6.09,1.29-12.51,1.4-18,5-1.19.77-3,1-2.67,3.06a4.62,4.62,0,0,0,3.31,4C7.34,218.49,8.89,218.35,11,218.5Z"/><path class="cls-1" d="M201.81,21.65c.89-6.91,2.93-7.93,8.53-4.59a11.65,11.65,0,0,0,6.23,1.35c4.18,0,6.72,1.51,6.23,6.25a14.85,14.85,0,0,0,.52,3.93c.35,1.9-.44,2.76-2.34,2.93-4.31.39-5.43,2.2-3.66,6.64,1.65,4.16,3.61,8.22,5.67,12.21a25.88,25.88,0,0,1,2,6.05c2.15,9,9.1,14.53,15.94,19.61,11.24,8.34,23.56,15,36.2,21,6.57,3.13,12.89,6.75,19.72,9.35a6.15,6.15,0,0,0,4.3.4c3.17-1,6.09-.7,7.48,2.81.63,1.59,1.28,1.53,2.57,1,4.57-2,9.19-1.06,13.69.18,17.29,4.75,34.58,9.41,52.33,12.18,6.63,1,13.29.26,19.93.8,2.67.22,4.73-2.25,6.72-4,3.34-3,6.85-3.23,10.53-.89,5.57,3.55,11.77,5.28,18.16,6.56a60.47,60.47,0,0,1,14.09,4.81c6.73,3.18,14.23,3.25,21.46,3.7a64.62,64.62,0,0,0,25.51-3.66A16.21,16.21,0,0,0,504.48,112c-.74-3.89,1.72-5.21,4.47-6a94.54,94.54,0,0,0,28.11-13.64c9.24-6.65,19.77-10.77,29.91-15.66a16.79,16.79,0,0,0,6.39-5.38c4-5.53,9.15-9.67,16-11,7.13-1.41,12.33-7,19.6-8.41,7.81-1.48,15.44-3.93,23.44-4.45,2.78-.17,5-1.59,7.29-3,1.56-1,2.94-2.48,4.62-2.94A131.8,131.8,0,0,0,670,31.37c5.26-2.69,11.64-1.69,17.1.26,12.48,4.46,25.29,3.75,38.06,3.18,7.58-.34,15-.54,22,2.67,4.89,2.25,9.64,2,14.54.5a23.29,23.29,0,0,1,15.42,0c11.9,4,24.89-1.83,31.33-13,2.81-4.86,6.22-5.35,9.66-.82,2.73,3.6,5.12,6,9.68,2.78,2-1.4,3.49-.1,4.36,1.77,1,2.1.09,3.27-2,4.22-6.77,3.15-7.81,6-4.6,12.75A67.81,67.81,0,0,0,835,60.42c2.57,3,5.34,5.44,9.74,4.94,2.33-.27,4.19,1.12,5.77,2.59,6.91,6.39,14.61,6.28,22.76,3,5.54-2.24,11.09-4.47,16.63-6.73,11.13-4.53,22.81,3.39,22.89,15.55a33.23,33.23,0,0,1-.21,4A15.55,15.55,0,0,0,917,97c6,6,12.33,11.69,18.76,17.23,4.27,3.68,9.84,2.46,12.72-2.38.93-1.57,1.64-3.27,2.46-4.9,3.29-6.62,4.41-6.87,11.5-5,5.38,1.39,11.3.1,16.43,3.14,2.71,1.61,5.65,2.82,8.33,4.48a7.55,7.55,0,0,1,3.68,6.16c.46,6,4.1,9.9,10.38,9.61,11.33-.53,20.64,3.83,29.46,10.18,4.75,3.42,7.66,2.67,10.17-2.92,2.15-4.78,5.28-7.12,10.51-6.24,3,.5,5.87,2.12,6,5.14.4,7.94,6.7,8.76,11.91,9.66,12.7,2.19,25.46,4,38.16,6.22,6.22,1.09,13.74,1.11,18.92-4.88,1.78-2.06,3.92-3.07,6.63-1.63,2,1.08,3.83.54,5.52-.86,7.25-6,15.29-9.58,25-8.69a11.81,11.81,0,0,0,9.48-3.68c1.91-1.89,4.57-2.71,6.87-1.19,3.44,2.29,6.29.93,9.29-.6,11.45-5.81,13.8-5.47,22.56,3.56,2.92,3,6.74,2.62,10.28,2.67,4.68.06,9.27-.07,13.5,2.43,2.11,1.25,4.56.85,6.87.79,5.12-.13,9.92-.43,14.72,2.86,3.4,2.34,8.34,1.68,11.48-1.77a47.41,47.41,0,0,1,28.73-15.54,19.92,19.92,0,0,0,14.33-9.94c1.84-3.33,4.77-4.92,8.74-5.82,11.54-2.59,20.81-9.39,29-17.65,2.13-2.15,4.11-4.68,7-5.46,8.41-2.25,12.08-9.33,16.26-15.72,2.06-3.16,3.69-4.45,7.52-3.21,5.52,1.78,11.32,2.67,16.86,4.38,3.47,1.08,6.22.64,8.59-2,3.62-4,8-4.9,13.35-5.29,10.94-.81,21.49-.21,32,3.2,5.09,1.66,9.47-1.66,11.91-8,1.23-3.19,1.23-7.3,5.1-8.63a47.48,47.48,0,0,1,17.2-2.19c2.72.1,2.14,2.21,1.51,4.13-2.16,6.52-1.6,7.3,4.76,6.06,2.66-.51,4.22.87,5.54,2.48,5.72,7,11.87,13.26,20.84,16.15,2.68.87,3.48,3.78,4.3,6.4,1.92,6.12,3.07,6.77,9.38,5.83,1.32-.2,2.65-.32,4-.41,5.8-.42,9.5,2.48,10.17,8.38.59,5.1,2.78,8.76,7.76,10.55,7,2.53,12.9,6,13.86,14.59.24,2.09,2.13,4.1,3.53,5.94a19.45,19.45,0,0,1,3.29,17.5c-2,7.37-3.74,14.91-10.22,20-2.12,1.68-2.28,3.56,0,5.35,3.13,2.5,4.56,5.34,3.28,9.59-1,3.36,1.71,5.9,3.53,8.42,1.66,2.28,3.77,4.24,5.4,6.55,2.07,2.94,2.71,6.23.23,9.24-3.18,3.84-.6,5.17,2.47,6.43,12.26,5,24.76,4.92,37.52,2.14,6.33-1.38,12.78-2,19.33-.7s12.1,3.8,16.35,8.82c5.33,6.3,11.73,11.32,18.41,16,3.84,2.72,7.36,5.75,9.5,10.06.66,1.33,1.48,2.79.18,4.16a3.34,3.34,0,0,1-4.19.35,89.63,89.63,0,0,1-8.44-5.28c-9.33-6.51-13.21-5.17-16.17,5.84-1.69,6.3-1.87,12.84-2.44,19.28-.9,10.33-3,12.71-13.33,13.4-5,.33-10,.71-14.94,1-1.36.09-2.85.13-3.51,1.47s.48,2.55,1.41,3.43a20.32,20.32,0,0,1,5.78,10.82c.66,3,2.59,5.3,4.78,7.44a15.41,15.41,0,0,1,4.81,13.06c-.75,8.89,1.27,16.79,9.28,22.27,2.87,2,4,4.89,3.13,8.76-1.29,5.64-.84,11.17,2.77,16.19,2.93,4.07,3.31,9,3.5,13.83.12,3,0,6,.14,9,.36,5.5,1.75,6.42,7.25,5.35a17.19,17.19,0,0,1,4.47-.27c4.24.3,5.86,2.7,3.67,6.42-8,13.57-7.7,30-15.47,43.73-2.91,5.14-1.06,7,5,6.94,5.22,0,9.4,2.29,12.74,5.91a11.58,11.58,0,0,0,9.08,4.1c7.92.15,9.87,2.9,7.78,10.39a8.65,8.65,0,0,0,.37,5.79c1.26,3.26,2.45,6.67,2.13,10.18-.58,6.3,2.72,10.41,7.21,13.94,3.94,3.09,8.39,5.39,12.75,7.83s5.26,4.9,2.95,9.44c-1.07,2.13-2,4.16-1.81,6.6.36,3.68-1.7,4.72-4.91,4.36-1.65-.19-3.29-.48-4.92-.81a6.87,6.87,0,0,0-7.76,3.17c-3.53,5.48-8.71,9.09-14,12.53-2.42,1.58-4.71,3.17-5.62,6.07-1,3.31-2.73,5.75-6.73,5.2-4.41-.59-6.87-3.37-7.5-7.51a30.42,30.42,0,0,1,.83-12.85c2.4-8.58.56-12.44-7-15.46-7.39-3-15.19-.52-18.64,5.81-3.78,7-7.58,8.61-15,6.59-1.27-.34-2.76-1-3.87-.62-7.22,2.31-14.52.15-21.77.57-3.71.22-6.72-1.59-9.29-4.16-2.3-2.3-4.88-3.53-8.08-2-2.32,1.08-4.28-.08-6.19-.92a14.3,14.3,0,0,0-13,.32c-8.43,4.25-16.78,5.89-25.46.17-4-2.67-7.36-.35-9.47,3.45-1.93,3.49-3.74,7.07-5.33,10.72a35.61,35.61,0,0,1-15.56,17c-4.9,2.8-7.78,2.24-11.07-2.33-2.07-2.89-2.85-6.36-4.37-9.49-2.87-6-6.38-6.92-12-3.4a10,10,0,0,0-1.65,1.13c-16.54,15.6-37.28,20.75-58.9,23.87-7.55,1.09-15,2.62-22.54,4-11.15,2.13-22.27.09-33.4-.09a30.44,30.44,0,0,0-13.18,2.24c-11,5-22.5,9.27-32.16,16.85-14.24,11.16-29.89,20-46.06,27.9-10.69,5.21-22.64,6.35-34.1,9-9.84,2.28-19.61,5.4-30,4.1a46.11,46.11,0,0,1-6.89-1c-7.88-2.21-15.52-.24-23.17,1.15a16.36,16.36,0,0,1-12.73-2.87c-6.19-4.21-12.57-8.18-18.59-12.63-9.31-6.87-19.26-7.25-29.84-3.89-8.48,2.7-16,7.25-23.73,11.53-6,3.33-12,6.36-18.8,7.85a29.71,29.71,0,0,0-12,6c-5.46,4.32-11.53,4.67-18,3.4-2.93-.58-5.91-1-8.78-1.76-5.17-1.4-9.78-.41-14.32,2.29-4.31,2.57-6.84,1.28-7.87-3.61-.35-1.62-.55-3.27-1-4.85-1.24-4.4-4.15-6.82-8.76-6.62A35.1,35.1,0,0,1,979,621.7c-3.88-2.1-6.93.26-8.08,5.72a215.73,215.73,0,0,0-4.27,30.49A21.16,21.16,0,0,0,971.86,674a76.47,76.47,0,0,1,5.94,8c1.36,2.06,1.76,4.4,0,6.49a5.77,5.77,0,0,1-6.25,2.16c-4.47-1.32-8.78-2.72-12.78,1.32a4.73,4.73,0,0,1-4.79.73c-4.07-1.58-4.07.67-4.35,3.75a57.14,57.14,0,0,0,.42,14.9c.52,3-.51,4.47-3.57,5.36-4.36,1.26-7.48,5.13-12.1,6.27-1.52.37-1.57,2.76-1.59,4.45a19.31,19.31,0,0,1-.91,6.39c-.83,2.36-2.75,3-4.24,1.64-3.94-3.62-11.06-2.23-13.21-8.63-.5-1.45-2.3-.92-3.61-.77-3.93.45-4.52-1.85-3.11-4.58,2.86-5.54,1.79-10.52-1.16-15.57a139.62,139.62,0,0,0-9.91-15c-5.2-6.7-5-10.67.66-17.21,7.68-8.93,17-16,26.41-22.83,5.43-3.89,7.42-8.67,6.53-15a46.87,46.87,0,0,0-4.9-15.61c-3.53-6.64-13.87-8-18.75-2.46a162.92,162.92,0,0,1-16.11,15.64A44.3,44.3,0,0,0,880,646.07c-3.32,6.26-5.42,7-12.39,5.94-3.46-.54-6.63.11-9.21,2.68-3.29,3.26-6.7,3.08-10.28.45A177.21,177.21,0,0,0,816.08,637a25.17,25.17,0,0,1-6.7-4.23c-6.59-6-17.11-7.15-24.19-1.82-9.58,7.21-19.62,13.81-29,21.12-6.79,5.26-11.51,13.23-17,20.11-1.14,1.42-1.15,3.43-1.22,5.29-.09,2.24-.65,4.83-2.57,5.69-4,1.76-5.86,4.53-7.34,8.49-1.1,2.93-2.8.81-3.7-.93-3.61-7-7-7.21-11.33-.47-2.93,4.58-7.73,7.28-10.93,11.58-1.28,1.71-3.07,1.07-4.27-.39-2-2.4-3.86-2.09-6-.26-2.53,2.2-5.56,2.8-8.83,2.76-6-.07-12,.13-18-.07-6.78-.21-13.24.23-18.92,4.69-2.61,2-6.09,2.07-9.15,1.23-3.61-1-6.31.2-9.33,1.89-8.78,4.91-17.69,6.1-27,.87a179.2,179.2,0,0,1-26.86-18.14c-4-3.31-5.88-8-8.51-12.23-5.12-8.17-8.76-17.79-16-23.94s-17.37-7.92-26.29-11.39c-12.84-5-24.36-12.19-35.59-19.94a23.93,23.93,0,0,0-9.43-4.18,138.53,138.53,0,0,1-14.51-3.47c-7.12-2.12-14.19-1.28-21.26-.12A19.47,19.47,0,0,1,430,617.33c-6.71-3.24-11.71-.59-13.16,6.79a53.4,53.4,0,0,0-1.12,14.9c.63,7.13-1.53,13.41-4.81,19.53-2.2,4.11-4.28,8.16-2.29,13.22,1,2.61-6.69,14.84-9.38,15.81-1.89.68-2.82-.47-3.42-2-2.58-6.43-8.51-7.36-14.19-8.62a5.37,5.37,0,0,0-5,1.64,25.77,25.77,0,0,1-19.53,7.2c-4.54-.15-7.28,2.94-10.39,5.29-8.91,6.74-12.76,6.69-21.49-.49-5.26-4.32-12.08-4.5-18.21-6.35-5.64-1.71-11.07-2.83-14.65-8.28-1.78-2.72-4.9-4.52-7.91-6-4.83-2.34-6-6.34-5.43-11.2.23-2,.9-3.89,1.14-5.86.78-6.33.47-6.66-5.78-7.49-1.59-.21-2.9-.73-3.09-2.64-.23-2.42,0-4.54,2.14-6.25,1.79-1.42,5.65-1.08,5.29-4-.3-2.46-3.78-2.91-5.75-4.38-1.07-.8-2.18-1.54-3.22-2.38-4.43-3.55-5.59-3.39-9.06,1-1.22,1.53-1.7,2.7.09,4.16s1.52,3.22.35,4.91a5.15,5.15,0,0,1-4.72,2.33c-2.28-.15-2.74-1.92-3.22-3.82-1.95-7.7-2.54-8.08-10.62-7.51-5.44.39-7.74-1.51-8.23-6.89-.17-1.82,0-3.69-.24-5.49s-1.78-3.49-3.45-2.1c-6,4.92-7.52.14-9.56-3.93a5.84,5.84,0,0,0-.89-1.17c-.09-.1-.28-.12-.87-.36-.86,3.26-.76,8.24-5.5,7.54-3.13-.47-5.89-3.37-9.13-5.37-.83,2.81.09,5.05,1.17,7.22s.71,3.67-1.73,4.68c-4.71,2-8.39,5.29-11.62,9.17a31.86,31.86,0,0,1-8,6.72,7.45,7.45,0,0,1-6.71.73,4.19,4.19,0,0,1-2.8-4.79c.28-2,2-2.29,3.81-2.46,2.14-.21,5.76,1,5.76-2.08s-3.59-3.07-6.25-3.1c-1.52,0-3.39-.07-3.61-1.89-.23-2,1.46-2.8,3.21-3.09,4.65-.75,9.18-1.69,11.79-6.72-2.68-.46-4.6,1.45-6.89,1.87-7.09,1.32-14,2.44-21.15,0-4.2-1.43-8-1.45-10,3.89-1.34,3.53-4.2,4.52-8.19,3.09-4.88-1.76-9.85.86-14.83.65-3-.13-7.18,1.63-8.22-2.44-1.1-4.29,2.74-7.35,6.11-7.86,9.41-1.41,17.79-6.35,28-5.8,8.25.45,16.42.69,24.57,2.23,3.61.68,4.89-.6,3.38-4.49-2.74-7.07,1-11.87,8.65-11,4.14.47,7-.06,8.81-4.31,1.2-2.89,4.93-2.12,7.13-4-12.41,1.36-24.82.38-37.22,1-10.74.59-21.47,3.05-32.3.63-2.31-.52-4.83-.79-6.09-2.92-2.17-3.66-4.68-3-7.51-1.14a64.32,64.32,0,0,1-5.85,3.81c-3.53,1.79-6.21.61-6.35-3.3-.2-5.38-.52-11.09,4.84-14.85,5-3.48,9.64-2.44,14.42.46,5.47,3.31,7,2.76,9.82-3.13l4.6-9.43c-3.52-.71-5.83,4.24-8.85,1.85s-.72-5.88-.65-8.9c-7.26.29-7.52-.06-7.14-9.38-3.58.67-6.19,3.1-9.24,4.61-1.8.9-3.67,1.94-5.65.74a4.74,4.74,0,0,1-1.89-5.77c2.72-8-2.07-15.7-.88-23.63.34-2.28-1.79-3-3.43-3.74-3.51-1.52-7.1-2.84-10.62-4.35-1.21-.52-2.6-1.35-2.44-2.82.18-1.65,1.83-1.64,3.15-1.76,3.65-.31,7.3-.7,11-.89,7-.36,10.75-3.65,10.46-10.5a36.68,36.68,0,0,1,2.06-15.12c1.37-3.54-.2-5.82-3.8-5.63-4.73.25-7.76-2.11-10.83-5.11-7.76-7.57-8.66-7.71-18.55-2.87-2.5,1.22-3.29,0-4.08-1.89-1.27-3-.73-6.27-.87-9.4a10.36,10.36,0,0,0-4.65-8.39c-4.67-3.35-8.52-2.25-10.64,3-1,2.64-1.84,5.84-5.09,6.16s-4.72-2.61-6.18-5.05c-3.78-6.32-8.73-10.78-16.64-10.8a4.31,4.31,0,0,1-4.68-4.21,24,24,0,0,1,2.06-12.17,2.85,2.85,0,0,1,2.15-1.88c1.36-.17,2,.94,2.42,2.08a4.17,4.17,0,0,0,.44.9c1.1,1.58.4,5.16,3.45,4.47,2.72-.61,5.71-1.62,6.75-5.16.64-2.19.58-4.77,3.53-6.16,1.39-.66-.74-2.37-1.82-3.12-5.94-4.17-9.62-13.65-7.9-20.68a7.57,7.57,0,0,1,12-4.2c7.13,5.54,10.34,13.68,13.1,21.94a2.47,2.47,0,0,1-.59,2.25c-7.26,4.49,0,7.84.17,12.22,3.14-2.65.42-7.91,4.56-8.31,3.24-.31,4,4,6.08,6.08,3,3,6.3,4.61,10.23,2.32,7.07-4.11,15-4.3,22.82-5.48-4-2-8.09-2-12.19-1.12-5.06,1.06-8.65-.38-11-5.27a124.66,124.66,0,0,0-10.21-17.13c-2.24-3.24-4.55-6.85-1.56-11,2.36-3.26,8.61-5,12.93-3.57a3.27,3.27,0,0,0,4.28-4.3c-1.22-3.78.27-4.33,3.47-4.39,3.47-.06,5.88-3.31,9.63-3.3,1.77,0,1.26-2.4.93-3.8s-1.35-2.1-3-1.64a20.86,20.86,0,0,1-12.29-.42c-8-2.61-9.58-7.78-4.55-14.41,5.34-7,5.33-7-2-12.47a5.55,5.55,0,0,1-2-2.14c-2-5.74-5.25-10.08-11.27-12.34-2.66-1-1.72-3.81.35-4.58,10.65-4,16.72-14.11,26.41-19.33,2.94-1.58,3.38-4.79,2.6-7.44-.85-2.92-3.66-1.1-5.63-1-1.47.09-3,.85-4.38.73C80,287.67,65.4,291,50.78,294.25a68.16,68.16,0,0,1-16.86,1.65c-4-.12-5.77-1.89-5.1-6a17.76,17.76,0,0,1,3.77-9.08c4.6-5.4,6.16-11.81,5.56-18.65-.75-8.45.91-16.49,3.05-24.54,1-3.92,2.87-5.92,7.4-5.41,5.82.64,8.58-1.66,10.6-8-3.12.14-5.13,2.26-7.55,3.33-1.21.54-2.41,1.1-3.64,1.59-1.69.68-3.77,1.88-5.15.41-1.82-1.94.5-3.63,1.42-5.2,2.69-4.58,6.13-8.71,8-13.76,1.11-2.91,1.46-5.55-.18-8.56-2.57-4.72-1.31-7.55,3.6-9.23a70.14,70.14,0,0,0,19.87-10.27,25.59,25.59,0,0,1,15.28-5.22c4.89-.13,8.49-3.84,12.83-5.59,3-1.22,1.37-4.28-.45-6.23-2.83-3-6.42-2.95-9.65-1.25-6.48,3.41-13.16,3.52-20.31,3.33-8.28-.21-16.57.43-24.89-.53-7-.81-13-10.36-10.07-16.83a2.52,2.52,0,0,1,1.32-1.38c8.26-2.09,11.16-10.5,17.52-14.84,2-1.39,3.56-3.49,5.49-5.06,5.63-4.61,5.88-7.36,3.53-14.07-2.73-7.77-.41-15.41,2.93-22.57,1.06-2.26,3.91-2.31,6.24-2.53,2.55-.25,5-.75,6.69-2.85,2.71-3.37,5.5-5.65,10.2-3.22,2.16,1.11,2.81-.94,2.9-2.76.41-8.35-1.25-16.58-1.6-24.9,0-.46-.2-1.24-.49-1.34-6.69-2.33-8.84-11-16.72-11.8-4-.43-5-3.22-3.84-7,2.66-8.74,5-10.31,14.14-9,5.17.73,7-.68,7.57-5.87C95.33,11.14,98.7,9,107.75,12.5c1.27.49,2.64,1.29,3.82.65,3.68-2,7.76-1.76,11.68-2.21a15,15,0,0,0,10.82-6.43c2.74-3.89,5.76-3.94,9.47-2.17a6.66,6.66,0,0,0,7.76-.83C154.61-1,158.15-.29,161,3.05c5,5.84,10,11.57,14.94,17.43,1.84,2.2,3.87,3.54,6.34,1.45C188.57,16.61,194.94,17.24,201.81,21.65ZM1678.88,247.29c-1.35-5.32-4.67-8.27-8.36-10.9-6-4.25-12.4-8.22-16.88-14-7.6-9.76-17.38-12.9-29.06-11.7-7.11.74-14.25,1.45-21.24,2.86-9.79,2-18.17-2.72-27-5.1-3.36-.91-5-4.05-2-7.47,2.77-3.18,1.8-6.11-.47-9-1.13-1.44-2.41-2.76-3.57-4.18-3.19-3.91-6.3-7.77-4.58-13.47.64-2.13-1.12-3.66-2.56-5.1-4-4-3.94-5.29.25-9.25,10-9.39,12-24.82,4.78-36.12-.89-1.4-2.3-2.81-2.43-4.3-.8-8.71-7.15-11.86-14-14.4-4.45-1.64-6.48-5-7.41-9.28-2-9-3.53-10-12.68-8.44-6.16,1.08-9.08-.23-10.69-6-1.32-4.69-4.1-7.31-8.45-8.91-5.06-1.86-9.37-4.58-12.4-9.43-2.55-4.08-5.64-7.68-11.77-6.22-3.25.78-5.21-1.64-4.6-5.3,1-5.73,1-5.73-5.21-5-2,.24-4,.49-5.94.66-4.17.38-6.51,2.49-7.44,6.7s-2.87,7.95-6.83,10c-2.52,1.3-2.45,2.28-.83,4.38,4.86,6.3,5.62,13,.93,19.8-9.41,13.76-10.85,28.33-7.26,44.67,5.21,23.74-2.62,43.65-22.46,58.15-5.75,4.2-12.27,7.34-18.42,11a31.32,31.32,0,0,1-15.15,4.19c-6.82.3-13.64.63-20.46.62-21.07,0-41,4.41-57.15,18.45-16.68,14.51-36,20.88-57.38,22.57-10.31.82-19.87,3.13-28.74,8.69a56.4,56.4,0,0,1-20,7.39c-12.15,2.2-24.47,2.59-36.71,3.87-6.11.64-12.27,1.63-18.37,1.38-12-.49-23.77-2.79-35.37-5.69-4.35-1.09-6.45-.08-8.31,3.53a47.12,47.12,0,0,0-3.87,9.69c-1.7,6.55-1,13.23-1,19.88,0,9.88-4.42,17-13.55,20.7a74.23,74.23,0,0,0-17.46,10.48c-11.48,8.82-22.46,18.38-34.45,26.42-25.58,17.16-51.73,33.44-77.51,50.28a95.74,95.74,0,0,0-24.12,23c-2.35,3.14-3,4.78,2.06,5.31,7,.72,14.14,1.85,18.9,7.73,6.1,7.53,11.28,15.59,13,25.48,2.09,11.93,7.31,15.32,19.3,13.07a101.69,101.69,0,0,1,17.84-1.78c12.66-.12,25.3.37,37.94,1,22.79,1.06,45.59,1.91,68.38,2.73,14,.51,28.11.77,41.73-2.66,15.9-4,31.49-9.27,47.24-13.9a23,23,0,0,0,7.2-3.34c7.12-5.22,14.26-10.41,21.28-15.75,26.69-20.33,56.83-29.23,90.19-26.73A579.9,579.9,0,0,1,1409,431.35c10.06,2.25,20.12,4.42,28.71,10.77,10.71,7.91,13.37,15,9.89,27.6-.89,3.2-1.77,6.41-2.42,9.66-2.13,10.68,0,19.1,10,25.79,18.27,12.24,38.56,17.54,59.88,20.11,2.53.3,5.35,2.32,7.7.3,4.44-3.82,8.7-2.41,12.88,0,4.86,2.83,10.22,3.77,14.71.75,9.84-6.61,20.22-1.37,30.27-2.34a5.11,5.11,0,0,1,3.53,1.64c7.25,7.51,16.72,5,25.36,5.32,4,.17,8.08-.81,12.26.24,5.23,1.31,8.58-.71,11.09-5.82,3.41-6.94,12.32-10.11,20.17-7.18,9,3.35,11.48,8.18,9,17.46a21.46,21.46,0,0,0-.93,3.88c-.3,4-1.08,8,1.25,11.66a6.38,6.38,0,0,0,5.4,3.1c2.63.11,3.3-1.83,4-3.73a13.68,13.68,0,0,1,6.5-7.3c4.4-2.48,8.78-5.36,11.46-9.48,3.91-6,8.65-7.77,15.27-5.84,1.18.35,3.35.91,3.53-.59.55-4.49,2.57-8.49,3.51-12.8.38-1.71-1.64-2.69-3.1-3.53-3-1.73-6-3.71-9.1-5.18-14.35-6.7-11-21.33-14.8-32.73-.13-.39.24-.95.38-1.43,1.89-6.57.48-8.87-6.23-8.73-4.27.1-7.17-1.39-10-4.44a15.8,15.8,0,0,0-12.89-5.45c-5.27.26-6.67-1.19-6.12-6.39.54-5,3.21-9.4,5-14s5.25-9.1,5.08-14.45a25.57,25.57,0,0,1,4.89-15.89c1-1.47,3-3.18,1.43-5.32-1.42-2-3.68-1.26-5.57-.92-7.54,1.34-9.92-.38-10.4-8.11-.24-3.82-.15-7.66-.2-11.49a15.21,15.21,0,0,0-2.67-9c-3.67-4.94-4.41-10.5-3.3-16.15.93-4.7-.79-7.51-4.25-10.2-6.8-5.29-8.9-12.9-8.1-20.9.56-5.62-.92-9.85-4.75-13.43a15.62,15.62,0,0,1-4.76-8A19.37,19.37,0,0,0,1617,289c-1.44-1.4-2.86-3.09-2.06-5.27s3-2.26,5-2.45c6.62-.62,13.25-1.24,19.86-1.94,3.72-.4,5.88-2.2,6.55-6.23,1.38-8.37,1.13-16.94,3.3-25.2,2.85-10.89,8.57-13,17.74-6.71C1670.82,243.47,1673.81,246.51,1678.88,247.29ZM393.64,265.05c-8.51-.19-9.56-1.52-10.13,6.73-.26,4-1.19,7.88-1.74,11.83-.24,1.66-.17,3.25,1.31,4.55,8.46,7.43,14,17.31,21.34,25.7,6,6.85,12.71,12.35,21.49,14.7,25.76,6.9,46.82,22.77,69.23,36,6.46,3.83,6.87,9.81,2,15.6-4.16,4.9-9.52,8.36-14.86,11.7a16.72,16.72,0,0,0-8.33,12.79c-.78,5.75-3.32,11.55-2.79,17.11.59,6.15,7.4,8.88,11.4,13.15q28.16,30.09,56.94,59.59c10.37,10.63,19.25,22.81,24.39,36.84a53.47,53.47,0,0,0,24,28.79c14.91,8.8,29.65,17.85,42.68,29.43,14.52,12.92,25.35,14.08,42.17,4.46,36.71-21,73.49-41.82,109.89-63.31,11.08-6.54,19.44-16.4,22.62-29.33,1.56-6.37,5.1-10.23,10.64-12.85,11.69-5.52,24.31-7.68,36.82-10.29,9.24-1.92,18.86-2.3,27.6-6.29a290,290,0,0,0,35.83-19.7,45.18,45.18,0,0,0,12.64-11.89c4.45-6.21,9-12.35,13.83-18.31,10.43-13,24.59-21.21,38.25-30.15,30.19-19.77,61.54-37.87,89.25-61.3,6.08-5.13,12.32-10.24,19.78-13.37,13.7-5.75,17.1-11.66,16-26.69-.6-8.38.68-16.57,5.06-24,2.66-4.52,2.34-5-2.78-5.69-11.2-1.48-22.36-3.27-33.59-4.48-22.08-2.38-43.23-8.95-64.65-14.19-22.16-5.43-43.77-7.06-66.28-.89-23.17,6.36-46.51,12.29-70.09,17.25-18.42,3.88-33.09-.84-45.09-15a74.63,74.63,0,0,0-6.21-6.49c-6-5.53-12.76-8.18-21-6.35-6.81,1.51-13.65,3-20.54,3.93-4.19.59-8.59,0-10.72-4.5s-.47-8.42,2.72-11.82c3-3.2,6.89-5.19,10.42-7.67,8.86-6.25,15.17-14.44,17.51-25.2,1-4.76-.82-8.52-5.32-10.67-4.91-2.34-9.91-3.38-15.37-1.59-12.6,4.1-25.42,6.26-38.75,4.45a193.94,193.94,0,0,0-25.38-1.87c-11.86,0-20.88,4.71-26.64,15.23a31.5,31.5,0,0,1-12.54,12.53,60.55,60.55,0,0,1-31.43,8.31c-15-.3-29.51,1.08-43,8.39A63.08,63.08,0,0,1,590,224.8c-14.78,4.4-29.92,7.59-44.36,13.15a24,24,0,0,0-9.51,6.17c-4.19,4.59-5.54,9.87-5.45,16,.14,8.73-3.66,12.39-12.28,11.61-6.41-.58-12.73-2.24-19.07-3.5-11.19-2.22-22-6-33.81-5.18C441,264.71,416.43,267.58,393.64,265.05Zm765,2.55c13.33-1.26,27.9-2.79,42.49-4,11.12-.9,21.64-3.7,31.13-9.55,8.49-5.24,17.69-7,27.47-7.86,20.7-1.85,40.27-7.11,56-22A46.72,46.72,0,0,1,1323,219c15.67-9.9,32.85-14.06,51.3-13.67,17.85.39,34.27-2.76,50.12-12.8,17.53-11.1,31.24-38.39,25.21-59.46-4-14.06-3.77-28,4.51-40.85,1.35-2.09,2.49-4.33,3.64-6.54,4.24-8.19.5-17.44-8.11-20.68-9.61-3.61-19.51-3.24-29.53-3.12-5.42.07-9.71,1.28-13.42,5.11-2.82,2.9-6.06,3.49-10,2.22-5.36-1.72-10.92-2.83-16.37-4.27-2.63-.69-4.21-.35-6,2.37-4.34,6.69-8.26,14-17,16.34-2.56.67-4.4,2.83-6.28,4.78-8.24,8.48-17.58,15.45-29.25,18.23-3.89.93-6.88,2.25-8.79,5.66a21,21,0,0,1-15.25,10.33,46.1,46.1,0,0,0-27.81,15.2,10.43,10.43,0,0,1-13.33,2.09c-5.07-3.32-10-2.87-15.2-2.84-2.32,0-4.79.32-6.83-1-3.91-2.53-8.24-2.39-12.54-2.21-5.64.24-10.37-1-14.07-5.78-3.11-4-8.22-6.44-12.31-3.22-8.79,6.92-20.61,1-29.22,7.92-1.42,1.13-4.27,1-6.32.68-3.67-.64-6.71.31-10,1.75a40.25,40.25,0,0,0-10.53,6.41c-1.4,1.2-3.47,2.81-4.87,1.86-4.38-3-6.64-.26-9.16,2.57a7.31,7.31,0,0,1-4,1.89c-7.54,1.79-14.79.23-22.34-.53-10.44-1-20.51-3.88-30.94-4.79-5.77-.49-12-2.62-12.55-10.49-.15-2.08-1.68-3.11-3.55-3.74-4.49-1.52-7.14.35-9.19,4.36-4.09,8-6.93,8.58-14.4,3.46S1013,127,1003.21,127.5c-8.19.41-12.48-3.76-14-12a7.12,7.12,0,0,0-2.67-4.06c-2.41-2.13-5.51-3.09-8.18-4.72-5-3.09-10.79-1.24-16-2.92-6.24-2-7.36-1.49-10.18,4.64-.56,1.21-1,2.47-1.65,3.64-3.43,6.27-10.51,7.93-16,3.35-6.51-5.45-12.88-11.1-18.9-17.08-3.88-3.87-6.16-9.21-5.06-14.59,1.28-6.21-.93-10.77-4.53-15.07-4.22-5-8.13-5.86-14.15-3.46C885.45,67.84,879,70.51,872.49,73c-8.22,3.17-15.93,2.68-22.84-3.37-1.75-1.54-3.64-3-6.21-2.75-3.72.41-6.39-1.42-8.68-4a65.69,65.69,0,0,1-11.5-18c-2.64-6.32-1-10.27,5.13-13.21,1-.5,2.55-.63,1.73-2.27-.56-1.13-1.8-.88-2.61-.27-4.22,3.18-7,1-9.56-2.4-4.07-5.32-5.13-5.2-8.67.6-6.44,10.57-21.23,16.54-32.75,12.31a19.64,19.64,0,0,0-13.47-.21c-3.82,1.2-8.07,2.87-11.73,1.18-11.3-5.24-23.14-3.83-34.88-3.72-10.35.09-20.56-.15-30.51-3.74-4-1.44-8.82-2.59-12.76-.78C663.3,36.89,652.84,40,643.1,44.58A59.37,59.37,0,0,1,626.81,50c-10.13,1.61-20.4,3.07-29.29,8.93a23.6,23.6,0,0,1-7.86,3,24.45,24.45,0,0,0-14.49,9.91,21,21,0,0,1-9.25,7.26c-5.93,2.54-12.06,4.85-17.51,8.22-12.57,7.76-24.54,16.55-39.14,20.41-2.09.55-3.09,1.74-2.82,4.4,1,10.18-3.9,17.35-13.61,20.37-10.14,3.16-20.47,4.48-31,2.63-3.09-.54-4.18.34-4.17,3.5,0,4.83-.43,9.6,2,14.13,2.12,4,1.09,7.7-1.55,11.17a23.66,23.66,0,0,1-6.61,6c-7.21,4.39-13.69,9.83-18.12,16.93-7.45,11.94-17.94,18.86-31.48,21.68-5.9,1.23-9.06,5.19-10.3,10.88q-.73,3.41-1.33,6.84c-1.83,10.63-3.59,21.28-5.47,31.91-.69,3.85.42,5.36,4.61,5.28,6.65-.13,13.31.29,20,.69,16.54,1,32.9-1.58,49.35-2.34,10.2-.48,20.18-.53,30.18,2.15a233.18,233.18,0,0,0,26.77,5.67c10.06,1.46,13.44-1.18,13.56-11.43s5-17.61,14.73-21.39c5.26-2,10.66-3.7,16-5.48,14.79-4.9,30.57-6.74,44.56-14,10.38-5.4,21.38-7,32.81-7,5.82,0,11.63.3,17.43-.88,14.29-2.93,26.89-8,34.53-21.83,4.8-8.72,13.19-12.83,23.17-13.42a127.13,127.13,0,0,1,26.4,1.38c14.77,2.25,28.74-.45,42.77-4.47a17.62,17.62,0,0,1,18.27,5.09c4.79,5,3,11,.46,16.36-4,8.56-9.69,15.88-18,20.82a50,50,0,0,0-6.91,4.91c-3.27,2.82-6.13,6.21-4,10.81,2.08,4.43,6.35,4.22,10.43,3.55,4.42-.73,9-1.14,13.19-2.52,14.46-4.73,25.19.57,34.24,11.64,11.18,13.67,25,18.93,42.91,15.25,25.39-5.24,50.16-12.92,75.52-18.15,10.22-2.11,20.4-5.34,31-4.14,13.87,1.56,27.43,5,41,8.1,18.58,4.3,36.88,9.76,56,11.94,17.64,2,35.27,4.37,52.61,8.55A154.54,154.54,0,0,0,1158.63,267.6ZM908.88,723.55c2.1,1.52,5-.71,5.94,1.12,2.63,5,7.54,5.78,11.85,8,3.07,1.59,3.35,1,4-1.81.75-3-.86-7.31,2.09-8.89,4.28-2.29,8.19-5.41,12.58-7.11,2.91-1.14,3.33-2.24,2.75-4.44-1.44-5.48-.5-10.9-.09-16.37.24-3.1,1.4-4.38,4.37-3.55,2.57.71,5.21.91,7-1.15,2.16-2.52,4.67-2.16,7.29-1.78A46.69,46.69,0,0,1,972,688.8a4.37,4.37,0,0,0,4.51-1.42c1.4-1.49.7-3.21-.27-4.59-2-2.84-4.16-5.62-6.36-8.33-3.38-4.14-5.65-8.82-5.32-14.16.71-11.44,1.72-22.92,4.89-33.95,1.82-6.37,4.56-9.17,10.31-6.24s11.86,4,18.27,4.19c5.86.14,9.21,3.08,10.54,8.69,1.85,7.84,1.84,7.83,8.84,4.74a16.91,16.91,0,0,1,3.79-1.21c1.68-.31,2.16-1.3,2.1-2.81-.25-7.3.7-14.65-1-21.9-1.83-7.8-6.57-14.13-10.44-20.88-8.12-14.13-6-25.77,6.7-36.12,5.69-4.65,11.8-8.68,17.85-12.8a33.53,33.53,0,0,0,13.9-20c3.61-13.62-.59-26.72-2.17-40-.24-2-1.82-2.06-3.38-2.16-18.13-1.12-36.23-1.77-54.29,1.28-9.17,1.56-15.63-2.82-17.05-11.82-1.33-8.46-5.07-15.6-9.33-22.84-6-10.15-15.73-11.33-25.73-12.41a4.84,4.84,0,0,0-4.54,2.69c-7.33,12.58-19.51,19.32-31.6,26-9.87,5.46-19.56,11.54-30.78,14-9.08,2-18.31,3.28-27.41,5.15-10.42,2.14-20.85,4.4-30.13,10-2.87,1.73-5.41,3.7-6.18,7.4-3.12,15-12.32,25.93-24.89,33.5-24.38,14.67-49.27,28.49-74,42.6C695.39,583,682,590.83,668.37,598.09c-12,6.41-24.14,5.5-34.47-3.44-15.45-13.38-32.5-24.29-49.87-34.87-9-5.47-16.22-12.68-19.82-23C559,521.92,550.35,509,539.8,497.61c-21.77-23.41-44.36-46.06-66.48-69.15-2.74-2.87-4.61-2.73-7.41-.27-19.31,16.92-42.73,25.43-67.1,31.26-12.72,3-24.46,7.39-34.73,15.4-16.57,12.91-34.24,24.24-51.46,36.2-10.94,7.6-22.61,14.76-30.71,25.38-8.8,11.55-19.58,20.4-31.59,27.9-12.51,7.81-20.72,19-27.42,31.67-2.52,4.75-1.84,9.6,1.09,14.12.95,1.46,1.7,2.68,3.93,1.63,6.15-2.89,7.58-1.94,8,4.92.09,1.33.22,2.65.41,4,.53,3.75,2.71,5.2,6.34,4.26,2.69-.69,5.26-.85,7.71.68,3,1.85,3.82,4.87,4.41,8,.21,1.17.51,2.39,2,2.53a3.22,3.22,0,0,0,2.86-1.72c.89-1.29.09-2.12-.93-2.88a2.93,2.93,0,0,1-1.24-3.49,8.07,8.07,0,0,1,13.1-3.92,39.88,39.88,0,0,0,4.05,2.91c8.66,5.42,8.67,5.41.44,10.78-.28.18-.58.33-.85.52a3.05,3.05,0,0,0-1.19,3.52c.38,1.48,1.51,1.45,2.72,1.58,6,.64,6.95,1.85,6.32,7.95-.23,2.14-.8,4.24-1.15,6.37-.79,4.84,0,8.75,5.1,11.16a19.45,19.45,0,0,1,7.44,5.74c3.63,5.11,8.78,6.37,14.3,8,6,1.74,12.68,2,17.82,6,9.5,7.49,11.77,7.59,21.09.19,2.83-2.26,5.5-4.89,9.61-4.68a25.08,25.08,0,0,0,19.5-7.14,5.25,5.25,0,0,1,4-1.66c6.92.25,13.17,1.82,17.11,8.27.51.84.64,2.48,2.42,1.57,1.48-.76,8.25-11.63,7.65-13.08-2.34-5.68.32-10.32,2.67-15.13,2.49-5.07,4.69-10.09,4.27-16.13A59.85,59.85,0,0,1,415.29,623c1.87-8,7.72-11,15-7.39A19.12,19.12,0,0,0,441,617.39c3.31-.34,6.61-.75,9.91-1,9.52-.83,18.26,3,27.38,4.6a18.15,18.15,0,0,1,8.28,3.21c17.52,13.45,37.61,21.8,58.19,29.12a16.22,16.22,0,0,1,8.18,6.1,254.91,254.91,0,0,1,15.65,25,38.16,38.16,0,0,0,11.92,13.2c6,4.17,12.23,8.05,18.37,12,10.29,6.65,20.09,5.67,29.84-.69,2.16-1.41,4.24-2,6.57-1.2,4.7,1.55,8.83.51,12.69-2.34a16.34,16.34,0,0,1,10.32-3.06c7.5.08,15,0,22.5.07,4,0,7.6-.52,10.73-3.2,2.34-2,4.7-2.38,6.91.31,1,1.23,2.25,1.62,3.29.12,2.7-3.85,7-6.18,9.59-10.12,5.48-8.18,10.3-8.06,15.33.28,1.53-2.24,1.44-5.62,4.88-6.47s4.71-3.51,4.69-6.78a11.73,11.73,0,0,1,3.67-8.47,151,151,0,0,0,11.41-13.88,17.58,17.58,0,0,1,4.59-4.55,239.84,239.84,0,0,0,25.19-18c10.32-8.4,20.15-7.87,30.52.61a16.36,16.36,0,0,0,3.75,2.45,180.28,180.28,0,0,1,34.31,19.18c2.45,1.77,4.86,2.18,7.13-.24a10.47,10.47,0,0,1,11-3.11c5.87,1.91,8.57-1.36,10.69-5.41,3.26-6.24,8.22-10.85,13.43-15.25,4.47-3.78,9.12-7.49,12.29-12.37,5.39-8.32,21.13-5.49,23.88,4.3.77,2.71,2,5.31,2.72,8,3.29,11.9,1.91,16.32-7.74,23.74-8.85,6.81-17.87,13.39-25,22.14-4.35,5.35-4.44,8.12-.37,13.76,2.82,3.91,5.55,7.89,8.24,11.9C910.57,708.29,913.65,715.48,908.88,723.55ZM97.86,505.2l-.17.87c3.75,1.57,7.48,3.17,11.24,4.71,2.55,1.05,4.12,2.66,3.85,5.67-.71,8.08,3.39,15.89,1.07,24.17-.92,3.31,1.59,4,4.32,2.63,2.53-1.27,4.91-2.81,7.43-4.11,1.71-.88,3.51-2.86,5.44-1.52s.07,3.33-.25,5c-.86,4.42-.08,5.19,4.35,3.93,2.74-.77,3.83-.14,3.14,2.86-.53,2.32-2.77,5.15-.37,6.93,2,1.48,3.91-1.75,6.13-2.2,1.09-.22,2.21-1.2,3.21,0s.61,2.45-.09,3.69c-1.4,2.46-2.89,4.87-4.08,7.42-4.13,8.8-5.85,9.5-14.34,4.54-4.39-2.56-8.2-2.07-12,.9-2.49,2-4.85,11.47-2.84,13.41,3.65,3.54,5.55-1.59,8.39-2.38a1.92,1.92,0,0,0,.42-.26c3.78-2.38,7.36-3.41,10.08,1.49a4.43,4.43,0,0,0,3.4,1.91c5.41.91,10.88,2.23,16.35,1.35,18.34-2.94,36.92-1.21,55.31-3,1.55-.14,3.93-.5,4.26,1.53.43,2.58-2.42,2.2-3.9,2.87-2.57,1.16-6.09.26-7.53,3.86s-4.52,4.47-8.17,4.22c-8.93-.63-10.31,1.13-7.78,9.77,1,3.59-.06,5.56-4,5.36a53.71,53.71,0,0,1-5.93-.63c-3.76-.62-7.59-2.24-11.24-1.88-9.3.91-19-.74-27.83,3.85-1.25.65-2.92.53-4.4.68a11.47,11.47,0,0,0-6,2.28c-1.55,1.19-3.84,2.38-3.3,4.58.65,2.65,3.34,1.49,5.14,1.56,5.32.19,10.7-2.43,15.84-.79,4.56,1.46,6.62-.27,8.13-3.86,1.59-3.77,4-4.68,7.95-3.58,10,2.8,20,2.79,29.5-2.1,1.26-.65,2.62-1,3.61.31s-.21,2.5-.92,3.54c-3.3,4.83-8.23,6.87-15.15,7.41,1.83.7,2.28,1,2.73,1,3.78,0,7.68.81,7.73,5.1,0,4.08-4,3.45-7,3.66-1.29.09-2.95.11-2.69,2.06.2,1.51,1.47,2.09,2.93,2.18,3,.2,5-1.7,7-3.35,4-3.24,6.81-7.88,11.3-10.53,4.27-2.51,7.44-5,4.24-10.48-.45-.76-.19-2-.13-3a3.29,3.29,0,0,1,1.57-3c1.38-.7,2.15.5,2.82,1.38a18.2,18.2,0,0,0,5.85,4.6c1.91,1.08,4.09.56,4.11-1.77,0-3.37,2-5.88,2.9-8.85,4.84-16.3,15-28.72,29.06-37.93,10.08-6.6,20.39-13.19,27.56-22.83,7.55-10.15,17.12-17.68,27-24.92,21.66-15.79,44.29-30.2,65.71-46.36,7.78-5.86,17-8.71,26.52-11,22.69-5.48,44.61-12.58,63.72-27,6.85-5.17,10.92-10.72,11.88-18.94.33-2.8.88-5.58,1.19-8.39a16.15,16.15,0,0,1,8.07-13c5.23-3.21,10.39-6.66,14.69-11.15,5.1-5.33,4.8-10.23-1.43-14.05-22.36-13.71-43.91-29-69.74-36.07-8.12-2.23-14.55-7.28-19.86-13.69-4.56-5.51-8.95-11.18-13.34-16.83s-9.18-10.8-15.69-14.34c-15.06-8.18-30-16.63-44.82-25.18-10.23-5.89-20-12.58-30.46-18.08-10.79-5.71-17.39-3.52-24.2,6.52-1,1.52-2.09,3-3.15,4.51-4.93,6.88-9.75,8.56-17.69,5.61-4.35-1.61-8.4-4-12.71-5.75-9.09-3.69-14.7-.9-17.26,8.59-3,10.93-4,22.21-6,33.32-1.27,7.1-.33,13.87,1.13,20.72.62,2.92,1.11,5.88,1.45,8.85.78,6.71-1.84,9.78-8.49,9.86a61.15,61.15,0,0,1-11.46-.55c-7.25-1.31-7.46-1.47-7.2-9,.28-8.11,0-8.57-8.23-8.42-9.89.19-19.63.08-28.48-5.42-2.38-1.47-5.28-1.46-8.24-.91-5.38,1-10.71,2.47-16.24,2.51-5.76.05-7.66-2.53-5.49-7.85,2-4.83,5.4-8.76,8.58-12.83,6.42-8.23,6-11.37-2.48-17.41a16.45,16.45,0,0,0-5.49-2.25c-4.9-1.28-10-1.37-14.87-1.45-11.5-.2-23,.32-33.17,6.93-6.94,4.51-14.7,6.66-22.82,8.07a207.67,207.67,0,0,1-22.76,2.8c-1.87.11-3.67.12-3.77,2.82-.11,2.88,1.71,3.5,3.83,3.37,4.64-.27,9.37-.36,13.89-1.33,15.28-3.29,30.47-7.08,46.34-5.68a13.52,13.52,0,0,0,4.35-.87c2.91-.77,6.53-2.2,7.89,1.41,1.27,3.37.68,8-2.79,9.76-9.71,5-15.3,15.48-26,19.1-1.51.51-2.21,2-.23,2.82,5.61,2.21,8.5,6.54,10.35,12,.69,2,2.93,2.55,4.61,3.61,4.2,2.63,4.89,6.59,2,10.61-.78,1.08-1.72,2-2.52,3.11-3.93,5.28-3,8.64,3.1,11.08a19.46,19.46,0,0,0,12.74.52c2.39-.67,4,.38,4.33,2.77.3,2.18,1.67,5.78-1,6.13-3.78.49-6.52,3.22-10,3.5-2.65.22-3,.77-2.41,3.21.73,2.83-1.93,4.51-3.29,6.38s-2.81-.64-4.23-1.19c-4-1.53-7.32.47-10,2.8s-1.22,5.34.34,7.73c4.37,6.68,8.6,13.45,12.31,20.53,1.33,2.54,3.29,3.38,6.22,2.74a33,33,0,0,1,13.88,0c1.7.36,4.33.15,4.26,2.51-.08,2.16-2.6,2.18-4.35,2.38-7.89.9-15.77,1.57-23,5.41-3.3,1.73-6.61.51-9.64-2-2.21-1.84-3.21-5-6.44-6.16L74,426.79c-.1.86-.36,1.78-1.27,1.94s-1.44-.68-1.78-1.46c-.79-1.82-1.55-3.67-2.34-5.5-1.86-4.34-5-8.67.29-12.92.38-.31.27-1.63,0-2.32-2.56-6.34-5.36-12.58-10.35-17.47-1.86-1.82-4.11-2.92-6.8-1.71s-4.26,3.29-3.92,6.31c.76,6.61.1,13.85,8.23,17.11,1.89.76,4.67,3.3,1.75,5.26-2.46,1.66-3,3.67-3.75,5.92-1.49,4.26-5.35,5.45-9,6.1-3.49.61-3-3.24-4.18-5.21-.37-.63-.53-1.62-1.91-1.34a22.32,22.32,0,0,0-2.18,9c0,3,1.18,4.78,4.37,4.79,7.88,0,12.77,4.64,16.63,10.83,1.23,2,2.23,4.82,4.73,4.65s3-3.21,3.82-5.36c2-4.84,4.87-6.43,9.29-5.21a11.77,11.77,0,0,1,9.14,11.61c.07,2.66-.12,5.33.76,7.92.46,1.33,1,2.23,2.43,1.24,8.65-6.06,14.93-1.75,20.78,4.65a10.4,10.4,0,0,0,8.27,3.81c5.73-.06,7.63,2.84,5.86,8.46A31.68,31.68,0,0,0,121.1,491c.77,7.68-3.76,12.27-11.62,13.08C105.61,504.48,101.73,504.83,97.86,505.2Zm927,118.45c1.08,4.31-1.59,9.42,1.21,11.9,2.59,2.3,7.49,2,11.37,2.83.33.07.67,0,1,.14,6.37,2,12.07.74,17.38-3.28a34.62,34.62,0,0,1,13.45-6.32c5.77-1.26,10.93-3.88,16-6.76,8.1-4.59,16.14-9.28,25.08-12.22,11.34-3.74,21.86-3,31.69,4.29,5.23,3.85,10.85,7.17,16,11.09,5.35,4,11,5,17.38,3.36,5-1.27,10.21-2.44,15.32-1.21,12,2.89,23.66,2,35.47-1.11,12.35-3.26,25.44-4.21,37.13-9.38,14.59-6.46,28.8-14,41.38-24,11.36-9,24.25-15.07,37.27-21,5.25-2.38,10.8-2.84,16.55-2.85,9.65,0,19.27,2,28.92.3,9-1.56,18-3.23,27-4.73,7.36-1.22,15-1.07,22-4.1,12.5-5.5,26.45-8.51,35.79-19.77a1.47,1.47,0,0,1,.4-.29c6.64-4.42,12.1-2.84,15.33,4.44,1.14,2.58,2.1,5.26,3.47,7.71,2.72,4.87,4.81,5,9.74,2.52,10.24-5.24,13.76-15.39,18.64-24.58,1-1.91,0-2.64-1.89-2.92-3.62-.55-7.19-1.42-10.82-1.82a117.6,117.6,0,0,1-55.35-21c-4.74-3.3-7.86-7.43-8.88-13.25-1.41-8,1.17-15.46,3.15-23,2.85-10.78.74-17.13-8.06-24.06-6.43-5.05-13.82-7.82-21.66-9.7a629.21,629.21,0,0,0-82-13.84c-15.42-1.59-30.88-2.18-46.16,1.75-18.85,4.84-36.45,12-51.94,24.3-11.13,8.81-21.83,18.64-36.56,21.62a84.6,84.6,0,0,0-13.35,4c-23.93,9.17-48.71,11.34-74.09,9.83-19.61-1.17-39.26-1.64-58.89-2.52-2.64-.11-3.59.51-3.12,3.33,1.14,6.88,2.22,13.78,3,20.72,1.82,16.76-2.51,31-17.39,40.66-6,3.91-12.09,7.74-17.31,12.69-5.82,5.5-10.56,11.61-9.68,20.38.54,5.34,3.2,9.75,5.91,14.13C1020.73,601.81,1026.49,611.76,1024.88,623.65ZM32,285.94c4.64,1.12,8.9-.2,13.11-.71,11-1.35,22-2.74,32-8.44,7.49-4.27,15.23-7.91,24.33-8.11,9.51-.2,19-.74,28.28,1.71,12.39,3.29,15.33,12.37,7.62,22.16-2.57,3.26-4.86,6.75-7.15,10.21-1.31,2-2.58,4.3-1,6.49s4,1.14,6.1,1a48.13,48.13,0,0,0,8.32-1.52c6.7-1.78,12.91-1.51,19.12,2.27,5.55,3.36,12.1,3.28,18.46,3.3,2.66,0,5.32-.06,8,.06,5.5.24,6.57,1.41,6.61,6.95,0,9.3,0,9.3,9.3,10.75.32.05.65.14,1,.16,14.09.82,14.39-1.19,12.63-13.78-.85-6.07-3.19-12-2.42-18.22,1.62-13.18,3.18-26.39,6.56-39.27,2.9-11,9.94-14.29,20.49-9.77,3.82,1.63,7.42,3.78,11.29,5.26,7.44,2.85,12.4,1.15,16.81-5.35,1.58-2.35,3-4.83,4.74-7,5.21-6.59,11.42-8.37,19.55-6,5.7,1.66,10.49,5,15.4,8.09,21,13.26,42.72,25.17,64.42,37.15,1.87,1,4.14,3.1,4.7-1.48q3.71-29.91,8.86-59.62c1.48-8.42,5.29-14,14-16,8.53-1.92,17-4.87,22.34-12.17,8-11,16.87-20.9,28.43-28.36,3.56-2.3,6.42-6.14,4.32-11.15-2.3-5.49-3.52-11.07-2.24-17,.36-1.7-.1-3.06-2-3.35-9.24-1.39-17.12-7.12-26.51-8.17a30.26,30.26,0,0,1-12.93-5c-3.75-2.43-7.06-2.22-10.36.88-3.15,3-6.83,4-11.36,4-16,0-31.23-3.85-46.6-7.36-9.69-2.21-18.92-6.42-29-6.77-5.64-.2-10.21,3.27-11.1,8.64a42.57,42.57,0,0,1-4.86,14.53c-1.18,2-1.34,4.09.82,5.76,7.68,5.9,13.75,13.83,22.74,18.09a3.19,3.19,0,0,1,1.74,2.89c0,4.5,2.48,4.26,5.63,3.16a29.39,29.39,0,0,1,3.44-.42c13-2.77,25.24,4.78,38.21,3.14a2.8,2.8,0,0,1,3.23,3c-.18,2.07-1.94,2.46-3.76,2.34-6.84-.47-13.61.33-20.42.9-4.56.38-9.67,2.31-13.42-2.52-.49-.63-1.59-.27-2.31.23-5.14,3.59-11.42,3.83-17.08,4.25-13.89,1-27.52,2.14-39.93,9.29-2.35,1.35-5.35,3.06-2.51,5.28,4.75,3.72,9.36,8.88,16.8,6.44,3.83-1.26,7.7-.72,10.64,2.36,1.73,1.82,3.16,4.2-1.1,4.76a3.63,3.63,0,0,0-3.43,3c-.7,2.42-2.46,3.28-4.93,3.27-4.17,0-8.17-.06-12.18-1.88-4.31-1.95-8.91-4.17-13.86-2.09s-9.83,1.64-14.6.15a95.7,95.7,0,0,0-42.36-3.55c-3.22.45-6,1.95-9.06,2.52-2.77.51-4.54-.39-5.59-2.88-1.21-2.88.82-3.92,2.92-4.76s4.4-1.65,6-3.45c1.44-1.63,1.66-3-.73-4.3-7.28-3.91-15.25-4.13-23.18-4.51-1.13-.05-2.86.07-3.22,1.76-.26,1.27.66,2.21,1.51,3,3.55,3.23,6.65,7,11.27,8.93,1.88.78,3.26,2.06,1.8,4.23-3.18,4.7-10,6.76-15.67,4.9-3.5-1.14-7-2.38-10.42.36a4.28,4.28,0,0,1-2.88.49c-6.52-.86-11.65-4.6-16.71-8.39-3.23-2.41-2.3-6-2.38-9.22,0-1.74-.54-4.19-2.5-3.33-5.2,2.28-10.51,2.12-15.91,2.15a4,4,0,0,0-2.43,1.62c-2.88,3.54-6.43,4.21-10.68,3-2.39-.66-5-.59-7.34-1.32-8.29-2.58-14.18,1.22-19.23,7.07-1.76,2-4,3.27-6,4.86-4.6,3.74-9,7.47-14.71,9.45a1.65,1.65,0,0,0-.87,1.16c-.52,4.79-4.42,7.66-6.49,11.55-2.38,4.5-6,7.21-11.35,6.29-3.65-.62-5.08,1.18-6,4.31a83.72,83.72,0,0,0-3,27.13,23.32,23.32,0,0,1-4.63,15C34,281.9,32.53,283.35,32,285.94Zm12.85-59,.86,1c6.37-2.63,13-5,16.35-12a23.7,23.7,0,0,1,4.31-5.82c6.09-6.72,16.91-8,20.26-17.77a3.2,3.2,0,0,1,1.9-1.54c2.25-.78,3.44-2.49,4.42-4.47.77-1.56,2.19-2.26,3.61-3.2,8.65-5.71,20.15-4.92,28-12.41.71-.67,2.23-.74,3.36-.69,4.43.24,7.7-2.06,11.39-4.12,5.25-2.92,9.64-6.08,12.16-11.73.74-1.64,2.76-2.86,4.42-3.9A18.28,18.28,0,0,0,164.3,139c1.38-5.26,5-8.33,10.23-9.89,4-1.17,8.06,0,11.86-1,4.79-1.33,8.27,0,11.75,3.27,5.06,4.71,7.57,4.4,11.12-1.25,2.36-3.74,5.5-5.42,9.77-5.91,13.27-1.53,25.37,1.14,36.2,9.21,4.92,3.66,10.14,6.37,16.66,4a7.64,7.64,0,0,1,4.93.06c9.05,3.51,15.08-2.8,21.79-6.62,2-1.13,3.13-3.66,3.34-6,.4-4.41,1.41-8.41,4.1-12.08,1.73-2.36.08-5.11-2.23-4.35-6.17,2-11-1.53-15.51-3.69-15.76-7.48-31.32-15.44-46-25.06-7.09-4.65-14.1-10.38-17.25-17.56-3.47-7.9-6.86-16.07-9.89-24.27a10.33,10.33,0,0,1,0-5.93c.31-1.37,1-2.88,2.49-2.7,4.42.56,3-2.6,3.29-4.72.44-3.34-1.86-3.8-4.31-4.13-3.09-.43-6.14-.59-8.87-2.76-1.63-1.29-3.78-1.4-3.62,2.17s-2.09,4.86-4.89,2.88C194,18.9,189,19,183.89,23.05c-3.5,2.8-6.52,2.27-9.42-1.3-4.82-5.94-9.93-11.66-14.93-17.46C157.6,2,155.06.72,152.59,2.82c-3.51,3-7,2.79-10.61.92-2.79-1.43-4.48-.58-6.32,1.77-3.27,4.21-7.55,7-13.08,7.33a31.74,31.74,0,0,0-9.76,1.83,8,8,0,0,1-5.83-.39c-8-3-9.84-1.81-11.09,6.79-1,6.71-3.29,8.48-10,7.65-7.56-.93-10,.84-11.79,8.14-.56,2.3.16,4,2.26,4.08,8.51.51,11.08,9.65,18.15,12.2,1.08.39,1.13,1.9,1.2,3.11.36,6.3,1,12.61,1.08,18.92C96.85,78.39,98,82,95.6,84.81s-5.64-1.23-7.35,0c-5.46,4-11.62,6.12-17.63,8.86-3.3,1.5-4.82,17.49-2.5,20.83,3.51,5.06,2.13,9.85-1.59,13-8.63,7.35-15.1,17.1-25.32,22.63A2.62,2.62,0,0,0,40,151.64c-1.84,6.56,3.08,13,9.78,13.74,7.82.85,15.61,0,23.37.28,7.34.26,14.11-.2,20.74-3.46,4-2,7.87-1.07,11,2.14,3.65,3.77,2.68,8.58-2.25,10.36-5.48,2-10.56,5.23-16.73,5.09-2.92-.07-5.44,1.47-7.74,3.16a77.14,77.14,0,0,1-22.44,11.74c-3.12,1-3.91,3.43-2.48,5.3,4.49,5.86,1.14,10.73-1.39,15.65C49.83,219.57,47.23,223.21,44.89,227Zm42.7-28.88c5.27-5.25,11.28-8.32,18.85-6.67,2.92.63,5.88,1.06,8.8,1.67,3.28.69,6.21.58,8.58-2.31a7.4,7.4,0,0,1,7.14-2.72,16.86,16.86,0,0,0,10.15-1.3c4.42-2,6.84,0,6.86,5.07,0,1.81-.54,3.62.3,5.4,2.68,5.68,15.32,10.62,21.39,8.37a8.84,8.84,0,0,1,7.31.18c6.88,3.91,11.35.18,16.14-4.43-5.38-2.11-9.06-6-12.78-9.75-1.39-1.41-3.08-2.87-2.42-5.12.74-2.51,3.2-3.13,5.26-3,8.43.49,16.92.8,24.6,5.17,3.09,1.75,2.84,3.65,1.07,6s-4.43,3.4-7,4.55c-1,.43-2.37.76-2,2.39s1.79,1.77,3.14,1.71a11.46,11.46,0,0,0,2.43-.47,79,79,0,0,1,43.2.08c7.38,2.14,14.85,4,22.47,1a8.45,8.45,0,0,1,6.31.2c3.26,1.24,6.52,2.51,9.86,3.48,3.65,1.07,8.13,2.23,10.75-.57,2-2.09,3.41-4.7,6.9-5.93-2.86-1.94-5.39-3.83-7.83-3-7.75,2.65-13.5-1-19.28-5.13-1.67-1.2-3.52-2.42-3.28-4.64a5.47,5.47,0,0,1,4.51-4.81,29,29,0,0,0,13.33-6.34c1.85-1.51,4.27-1.84,6.63-1.83,13.11,0,26.1-.59,38.38-5.93a3.65,3.65,0,0,1,3.76.65c7,5.25,13.9.46,20.9.36a14.55,14.55,0,0,0-8.59-4.14c-7.27-.59-14.57-1.22-21.82.42-2,.45-5.38,1.72-5.65-.88-.47-4.69-4-5.58-6.74-7.83-5.66-4.6-10.73-9.94-16.41-14.53-3.27-2.64-5.65-5.09-3.2-10.16-1.48.59-2.05.78-2.59,1-7,3.4-13.68,8.68-22.28,4.54a2.79,2.79,0,0,0-2,0c-7.72,2.87-14-.36-19.88-4.8-9.86-7.49-21.12-9-33-8.3a10.66,10.66,0,0,0-8.8,4.82c-5.07,7.46-8,7.81-14.65,1.65-2.59-2.4-5.14-3.3-8.57-2.61a34.69,34.69,0,0,1-6.46.26c-8.94.08-12.86,2.9-15.82,11.36a19.6,19.6,0,0,1-7.85,10c-1.77,1.2-4.16,2.34-4.89,4.09-2.44,5.78-6.92,8.79-12.14,11.78-4.26,2.45-8,5.23-13.22,4.68a3.16,3.16,0,0,0-2.34.59c-5.09,5.17-11.93,6.29-18.47,8.06-7.75,2.09-12.67,8.21-18.55,12.94C87.09,194.31,86.52,196,87.59,198.1ZM69.33,210.74c6.72.42,7.85-4.36,11.11-7.63C74.79,203.38,73.74,208.47,69.33,210.74Z"/><path class="cls-1" d="M29.2,248.64c3.28.29,4.79,2.7,5,6,.13,1.73-1.07,2.63-2.92,2.52-2.53-.14-8.16-4.24-7.92-5.85C23.6,249.92,26.44,248.55,29.2,248.64Z"/><path class="cls-1" d="M173,177.9c-2.63-.58-6.23-.2-6.69-4.21-.48-4.2,2.34-5.7,6-6.4,4.11-.78,7.9-.34,11.31,2.17,2,1.44,2.65,3.63.27,4.76C180.55,175.82,177.09,177.54,173,177.9Zm2.56-9.2a28.81,28.81,0,0,0-4.17.67c-2,.6-3.61,1.89-3.35,4.24s2.47,1.87,3.91,2.27c2.37.68,4.52-.53,6.57-1.5,1.52-.72,4.39-.54,4.26-2.47-.17-2.44-3.2-2.22-5.07-3A7.85,7.85,0,0,0,175.58,168.7Z"/></g></g></svg>