<svg xmlns="http://www.w3.org/2000/svg" viewBox="0 0 773.04 507.97"><defs><style>.cls-1{fill:#f7f6f1;opacity:0.15;}</style></defs><g id="Layer_2" data-name="Layer 2"><g id="Layer_2-2" data-name="Layer 2"><path class="cls-1" d="M769.89,464.7c-3-1.74-5.94-3.72-9.1-5.19-14.34-6.69-11-21.33-14.79-32.73-.13-.39.23-.95.37-1.43,1.9-6.56.49-8.87-6.22-8.72a12.06,12.06,0,0,1-10-4.44,15.76,15.76,0,0,0-12.88-5.46c-5.27.27-6.68-1.18-6.12-6.38s3.2-9.4,5-14.05,5.25-9.1,5.08-14.44A25.53,25.53,0,0,1,726.12,356c1-1.47,3-3.18,1.44-5.32-1.42-2-3.69-1.27-5.58-.93-7.54,1.35-9.92-.38-10.39-8.1-.24-3.82-.16-7.66-.21-11.49a15.16,15.16,0,0,0-2.66-9c-3.68-5-4.41-10.51-3.3-16.16.93-4.7-.79-7.5-4.25-10.19-6.81-5.29-8.9-12.9-8.11-20.91.56-5.62-.92-9.84-4.74-13.42a15.52,15.52,0,0,1-4.76-8,19.44,19.44,0,0,0-5.46-9.87c-1.44-1.39-2.87-3.09-2.06-5.26s3-2.27,5.05-2.46c6.62-.62,13.24-1.24,19.86-1.94,3.71-.39,5.88-2.19,6.54-6.23,1.38-8.36,1.14-16.94,3.3-25.19,2.85-10.89,8.58-13,17.75-6.72,3.36,2.31,6.35,5.35,11.42,6.13-1.35-5.32-4.68-8.27-8.36-10.89-6-4.26-12.4-8.23-16.88-14-7.6-9.76-17.38-12.91-29.07-11.7-7.1.73-14.25,1.44-21.23,2.85-9.8,2-18.18-2.72-27-5.1-3.36-.9-5-4.05-2-7.47,2.78-3.18,1.81-6.1-.46-9-1.14-1.43-2.41-2.76-3.57-4.17-3.19-3.91-6.31-7.78-4.58-13.48.64-2.12-1.13-3.65-2.56-5.09-4-4-3.94-5.3.25-9.26,10-9.39,12-24.82,4.78-36.11-.9-1.4-2.3-2.81-2.44-4.31-.79-8.7-7.15-11.85-14-14.4-4.45-1.64-6.48-5-7.42-9.28-2-8.95-3.52-10-12.67-8.43-6.17,1.08-9.08-.23-10.69-6-1.32-4.7-4.1-7.31-8.45-8.91-5.06-1.86-9.38-4.59-12.4-9.43-2.55-4.08-5.64-7.68-11.77-6.22-3.25.77-5.21-1.65-4.6-5.31,1-5.73,1-5.72-5.21-5-2,.24-4,.49-6,.67-4.16.37-6.5,2.48-7.43,6.7s-2.88,7.94-6.84,10c-2.52,1.31-2.44,2.28-.82,4.38,4.86,6.31,5.62,13,.93,19.81-9.42,13.75-10.86,28.33-7.27,44.67,5.22,23.74-2.62,43.65-22.45,58.14-5.75,4.2-12.27,7.35-18.42,11a31.37,31.37,0,0,1-15.15,4.18c-6.82.3-13.64.63-20.46.62-21.07,0-41,4.41-57.16,18.46-16.67,14.5-36,20.87-57.37,22.57-10.31.82-19.88,3.13-28.75,8.69a56,56,0,0,1-20,7.38c-12.14,2.2-24.46,2.6-36.7,3.87-6.11.64-12.27,1.63-18.37,1.39-12-.49-23.78-2.79-35.37-5.7-4.36-1.09-6.46-.08-8.32,3.53a47.32,47.32,0,0,0-3.86,9.69c-1.71,6.56-1,13.24-1,19.88,0,9.89-4.42,17-13.55,20.7a74.6,74.6,0,0,0-17.46,10.49c-11.48,8.82-22.46,18.37-34.46,26.42C77.83,325,51.67,341.31,25.89,358.16a95.53,95.53,0,0,0-24.11,23c-2.35,3.13-3,4.77,2.06,5.3,7,.73,14.13,1.85,18.9,7.74,6.09,7.53,11.27,15.59,13,25.48,2.1,11.92,7.32,15.32,19.31,13.06a100.73,100.73,0,0,1,17.84-1.77c12.66-.13,25.3.37,37.94.95,22.79,1.06,45.58,1.91,68.38,2.74,14,.5,28.11.76,41.72-2.67,15.91-4,31.5-9.27,47.25-13.9a22.61,22.61,0,0,0,7.19-3.34c7.12-5.21,14.26-10.4,21.28-15.75q40.05-30.5,90.2-26.73A579,579,0,0,1,470,385c10,2.25,20.12,4.41,28.71,10.76,10.7,7.92,13.37,15,9.88,27.61-.88,3.2-1.76,6.4-2.41,9.66-2.13,10.67,0,19.1,10,25.79,18.28,12.23,38.57,17.53,59.89,20.1,2.53.31,5.34,2.32,7.7.3,4.44-3.82,8.7-2.41,12.88,0,4.86,2.83,10.21,3.77,14.71.75,9.84-6.61,20.22-1.36,30.26-2.34a5.16,5.16,0,0,1,3.54,1.64c7.25,7.52,16.72,5,25.35,5.33,4,.16,8.09-.82,12.27.23,5.23,1.32,8.57-.71,11.08-5.81,3.41-6.94,12.33-10.12,20.18-7.19,9,3.36,11.47,8.19,9,17.47a21.36,21.36,0,0,0-.93,3.87c-.31,4-1.08,8,1.25,11.67a6.43,6.43,0,0,0,5.4,3.1c2.62.1,3.29-1.83,4-3.74a13.58,13.58,0,0,1,6.5-7.29c4.39-2.49,8.78-5.36,11.46-9.48,3.9-6,8.65-7.78,15.26-5.84,1.19.34,3.35.9,3.54-.6.55-4.48,2.57-8.49,3.51-12.79C773.37,466.51,771.36,465.53,769.89,464.7Z"/></g></g></svg>