<svg xmlns="http://www.w3.org/2000/svg" viewBox="0 0 467.93 397.73"><defs><style>.cls-1{fill:#f7f6f1;opacity:0.15;}</style></defs><g id="Layer_2" data-name="Layer 2"><g id="Layer_2-2" data-name="Layer 2"><path class="cls-1" d="M218,324.87c10.07-6.6,20.39-13.19,27.56-22.84,7.54-10.15,17.12-17.68,27-24.91,21.65-15.8,44.29-30.21,65.71-46.36,7.77-5.86,17-8.71,26.52-11,22.68-5.48,44.6-12.57,63.72-27,6.85-5.16,10.91-10.72,11.88-18.93.33-2.81.88-5.59,1.18-8.39a16.16,16.16,0,0,1,8.08-13c5.23-3.21,10.39-6.66,14.69-11.15,5.1-5.33,4.8-10.23-1.43-14-22.36-13.71-43.91-29-69.74-36.08-8.12-2.22-14.55-7.27-19.86-13.68C368.78,72,364.39,66.35,360,60.7s-9.19-10.8-15.69-14.34c-15.06-8.18-30-16.63-44.82-25.18C289.26,15.29,279.46,8.6,269,3.09c-10.79-5.7-17.39-3.51-24.21,6.53-1,1.52-2.08,3-3.14,4.51-4.93,6.88-9.76,8.55-17.69,5.61-4.35-1.62-8.4-4-12.71-5.76-9.09-3.68-14.71-.89-17.27,8.6-2.94,10.93-4,22.21-6,33.32-1.27,7.1-.33,13.87,1.13,20.72.62,2.92,1.1,5.88,1.45,8.85.78,6.7-1.85,9.78-8.49,9.85a60.31,60.31,0,0,1-11.46-.55c-7.25-1.3-7.47-1.46-7.21-9,.28-8.1,0-8.56-8.22-8.41-9.89.18-19.63.07-28.49-5.42-2.37-1.47-5.28-1.46-8.24-.91-5.37,1-10.7,2.46-16.23,2.51-5.76,0-7.67-2.54-5.5-7.85,2-4.83,5.41-8.76,8.59-12.83,6.42-8.23,6-11.37-2.48-17.42a16.4,16.4,0,0,0-5.5-2.24c-4.89-1.28-9.94-1.37-14.87-1.45-11.49-.2-23,.32-33.16,6.92-6.94,4.51-14.7,6.67-22.83,8.08a210,210,0,0,1-22.75,2.8C1.9,49.64.1,49.65,0,52.35c-.1,2.87,1.72,3.5,3.84,3.37,4.64-.27,9.37-.36,13.88-1.34C33,51.1,48.2,47.31,64.07,48.7a13.31,13.31,0,0,0,4.35-.87c2.91-.77,6.52-2.2,7.89,1.42,1.27,3.36.68,8-2.79,9.75-9.71,5-15.3,15.48-26,19.11-1.51.51-2.21,2-.23,2.82,5.61,2.21,8.49,6.54,10.35,12,.68,2,2.93,2.55,4.61,3.6,4.2,2.64,4.89,6.59,2,10.62-.78,1.08-1.71,2-2.51,3.11-3.94,5.27-3,8.64,3.1,11.07a19.4,19.4,0,0,0,12.74.53c2.39-.67,4,.37,4.32,2.77.31,2.17,1.68,5.78-1,6.13-3.78.49-6.52,3.21-10,3.5-2.64.21-3,.77-2.4,3.21.73,2.83-1.93,4.51-3.29,6.38s-2.81-.65-4.23-1.19c-4-1.53-7.32.47-10,2.79s-1.23,5.34.34,7.73c4.37,6.69,8.59,13.46,12.31,20.54,1.33,2.54,3.29,3.37,6.22,2.74a32.76,32.76,0,0,1,13.87,0c1.71.37,4.34.16,4.26,2.52-.07,2.16-2.59,2.18-4.34,2.37-7.9.9-15.77,1.58-23.06,5.42-3.29,1.73-6.6.5-9.64-2-2.21-1.84-3.21-5-6.43-6.16l-1.12,9.69c-.1.86-.36,1.78-1.27,1.93s-1.44-.68-1.78-1.45c-.79-1.83-1.55-3.67-2.34-5.5-1.87-4.34-5-8.68.28-12.92.39-.32.28-1.63,0-2.32-2.56-6.35-5.37-12.59-10.36-17.48-1.85-1.81-4.1-2.92-6.79-1.7s-4.26,3.29-3.92,6.31c.76,6.61.1,13.84,8.22,17.11,1.9.76,4.68,3.3,1.76,5.26-2.46,1.65-3,3.67-3.76,5.92-1.48,4.26-5.35,5.45-9,6.09-3.48.62-3-3.23-4.18-5.21-.36-.62-.53-1.61-1.9-1.33a22.49,22.49,0,0,0-2.19,9c0,3,1.18,4.77,4.38,4.79,7.87,0,12.77,4.64,16.63,10.83,1.23,2,2.22,4.82,4.73,4.64s2.95-3.21,3.82-5.35c2-4.84,4.86-6.43,9.28-5.22a11.77,11.77,0,0,1,9.15,11.62c.07,2.66-.12,5.32.76,7.92.45,1.33,1,2.23,2.42,1.23,8.65-6,14.94-1.75,20.79,4.66a10.35,10.35,0,0,0,8.26,3.8c5.74-.05,7.64,2.85,5.87,8.47a31.82,31.82,0,0,0-1.76,13.12c.78,7.68-3.75,12.28-11.61,13.09-3.87.4-7.75.75-11.62,1.12l-.17.86c3.74,1.58,7.48,3.18,11.23,4.72,2.56,1.05,4.13,2.66,3.86,5.67-.72,8.08,3.39,15.89,1.07,24.17-.92,3.31,1.59,4,4.32,2.62,2.53-1.26,4.91-2.81,7.42-4.1,1.72-.88,3.51-2.86,5.45-1.52s.07,3.33-.26,5c-.85,4.43-.07,5.19,4.36,3.94,2.74-.78,3.83-.14,3.14,2.86-.53,2.32-2.77,5.15-.37,6.92,2,1.49,3.91-1.74,6.13-2.19,1.09-.23,2.2-1.2,3.21,0s.61,2.45-.09,3.69c-1.4,2.45-2.89,4.87-4.08,7.42-4.13,8.8-5.85,9.5-14.34,4.53-4.39-2.56-8.2-2.06-12,.91-2.49,2-4.85,11.47-2.84,13.41,3.65,3.53,5.54-1.59,8.38-2.38a1.58,1.58,0,0,0,.42-.27c3.79-2.37,7.36-3.4,10.09,1.5a4.43,4.43,0,0,0,3.39,1.91c5.42.91,10.88,2.23,16.36,1.35,18.34-2.94,36.91-1.21,55.31-2.95,1.55-.15,3.93-.5,4.26,1.53.42,2.58-2.42,2.19-3.9,2.86-2.57,1.17-6.09.26-7.53,3.87s-4.52,4.47-8.17,4.21c-8.93-.62-10.31,1.14-7.78,9.78,1,3.59-.06,5.56-4,5.36a53.71,53.71,0,0,1-5.93-.63c-3.76-.63-7.59-2.24-11.24-1.88-9.3.91-19-.75-27.83,3.84-1.25.65-2.92.53-4.4.69a11.5,11.5,0,0,0-6,2.27c-1.55,1.19-3.83,2.39-3.29,4.59.64,2.64,3.34,1.49,5.14,1.55,5.31.2,10.7-2.42,15.84-.78,4.56,1.45,6.62-.28,8.13-3.87,1.59-3.77,4-4.67,7.94-3.57,10,2.8,20,2.79,29.51-2.11,1.26-.64,2.62-1,3.6.32s-.2,2.5-.91,3.53c-3.3,4.84-8.23,6.87-15.16,7.42a14.08,14.08,0,0,0,2.74,1c3.78,0,7.68.81,7.73,5.1,0,4.08-4,3.45-7,3.66-1.3.09-2.95.1-2.69,2.06.2,1.51,1.47,2.08,2.93,2.18,3,.2,5-1.7,7-3.35,4-3.24,6.81-7.88,11.3-10.53,4.26-2.52,7.44-5,4.23-10.48-.44-.76-.18-2-.13-3a3.28,3.28,0,0,1,1.58-3c1.38-.71,2.14.5,2.81,1.38a18.52,18.52,0,0,0,5.86,4.6c1.91,1.08,4.09.56,4.11-1.77,0-3.37,2-5.89,2.9-8.85C193.78,346.49,203.93,334.07,218,324.87Z"/></g></g></svg>