<svg xmlns="http://www.w3.org/2000/svg" viewBox="0 0 511.55 219.59"><defs><style>.cls-1{fill:#f7f6f1;opacity:0.15;}</style></defs><g id="Layer_2" data-name="Layer 2"><g id="Layer_2-2" data-name="Layer 2"><path class="cls-1" d="M509.26,107.87c-3.61-.55-7.19-1.42-10.82-1.82a117.64,117.64,0,0,1-55.35-21c-4.73-3.3-7.85-7.43-8.87-13.25-1.42-8,1.16-15.46,3.15-23,2.85-10.78.73-17.13-8.07-24-6.43-5.06-13.82-7.83-21.66-9.71a629.21,629.21,0,0,0-82-13.84C310.2-.37,294.75-1,279.47,3c-18.86,4.84-36.46,12-52,24.3C216.4,36.08,205.69,45.92,191,48.89a84.4,84.4,0,0,0-13.36,4c-23.93,9.17-48.71,11.34-74.09,9.83-19.61-1.17-39.26-1.64-58.89-2.52-2.64-.11-3.59.51-3.12,3.33,1.14,6.88,2.22,13.79,3,20.72,1.82,16.76-2.51,31-17.39,40.67-6,3.9-12.09,7.73-17.31,12.68C4,143.09-.78,149.2.11,158c.53,5.34,3.2,9.75,5.9,14.13,6.1,9.87,11.85,19.82,10.25,31.71,1.08,4.31-1.6,9.42,1.2,11.9,2.59,2.3,7.49,2,11.37,2.83.33.07.68.05,1,.14,6.37,1.95,12.07.74,17.39-3.28a34.51,34.51,0,0,1,13.44-6.32c5.77-1.26,10.93-3.87,16-6.76,8.1-4.59,16.14-9.28,25.08-12.22,11.33-3.74,21.86-3,31.69,4.29,5.22,3.86,10.85,7.17,16,11.09,5.34,4.06,10.94,5,17.37,3.36,5-1.27,10.21-2.44,15.32-1.21,12,2.89,23.67,2,35.47-1.11,12.35-3.26,25.44-4.21,37.13-9.38,14.59-6.46,28.81-14,41.38-24,11.36-9,24.25-15.07,37.28-21,5.24-2.38,10.8-2.84,16.54-2.85,9.65,0,19.28,2,28.92.3,9-1.56,18-3.23,27-4.73,7.35-1.22,15.05-1.07,21.95-4.1,12.51-5.49,26.45-8.51,35.79-19.77a1.52,1.52,0,0,1,.41-.29c6.64-4.42,12.1-2.84,15.32,4.44,1.15,2.58,2.11,5.26,3.48,7.71,2.71,4.87,4.8,5,9.73,2.52,10.25-5.24,13.76-15.39,18.64-24.58C512.16,108.88,511.13,108.15,509.26,107.87Z"/></g></g></svg>