<svg xmlns="http://www.w3.org/2000/svg" viewBox="0 0 730.92 428.12"><defs><style>.cls-1{fill:#f7f6f1;opacity:0.15;}</style></defs><g id="Layer_2" data-name="Layer 2"><g id="Layer_2-2" data-name="Layer 2"><path class="cls-1" d="M726.5,88.57c-11.2-1.47-22.36-3.26-33.59-4.47-22.08-2.39-43.24-8.95-64.66-14.2C606.1,64.48,584.49,62.85,562,69c-23.17,6.35-46.51,12.29-70.08,17.25-18.42,3.87-33.09-.85-45.09-15a76.15,76.15,0,0,0-6.22-6.48c-5.95-5.53-12.76-8.19-21-6.36-6.8,1.51-13.64,3-20.54,3.94-4.18.58-8.59,0-10.71-4.5S387.82,49.44,391,46c3-3.2,6.9-5.18,10.43-7.67C410.3,32.12,416.6,23.93,419,13.17c1-4.76-.83-8.53-5.32-10.67C408.72.15,403.72-.88,398.25.9,385.66,5,372.84,7.17,359.5,5.35a193.65,193.65,0,0,0-25.37-1.86c-11.87,0-20.89,4.7-26.64,15.23A31.56,31.56,0,0,1,295,31.25a60.64,60.64,0,0,1-31.43,8.31c-15-.31-29.52,1.07-43,8.39a64,64,0,0,1-12.12,4.55c-14.78,4.4-29.92,7.59-44.37,13.16a24,24,0,0,0-9.51,6.16c-4.19,4.6-5.54,9.88-5.44,16,.13,8.73-3.66,12.39-12.29,11.61-6.41-.58-12.72-2.24-19.06-3.5-11.19-2.22-22-6-33.82-5.17-24.56,1.63-49.11,4.51-71.91,2-8.5-.19-9.56-1.53-10.12,6.73-.27,4-1.19,7.87-1.75,11.82-.23,1.67-.17,3.25,1.31,4.55,8.47,7.43,14,17.31,21.35,25.71,6,6.85,12.71,12.34,21.48,14.69C70,163.16,91.06,179,113.47,192.31c6.47,3.83,6.87,9.81,2,15.59-4.16,4.9-9.51,8.37-14.85,11.7a16.77,16.77,0,0,0-8.34,12.8c-.78,5.75-3.32,11.55-2.79,17.1.59,6.16,7.4,8.89,11.4,13.16q28.17,30.09,56.94,59.59c10.38,10.63,19.25,22.8,24.4,36.84a53.4,53.4,0,0,0,24,28.78c14.91,8.8,29.65,17.85,42.67,29.43,14.53,12.93,25.36,14.08,42.18,4.47,36.7-21,73.48-41.83,109.89-63.31,11.07-6.54,19.44-16.41,22.61-29.33,1.57-6.37,5.1-10.23,10.65-12.85,11.69-5.52,24.31-7.69,36.82-10.29,9.24-1.93,18.86-2.3,27.6-6.3A289.33,289.33,0,0,0,534.46,280a45.28,45.28,0,0,0,12.63-11.89c4.46-6.22,9-12.35,13.84-18.32,10.42-13,24.59-21.2,38.24-30.14,30.2-19.78,61.55-37.88,89.26-61.3,6.07-5.14,12.32-10.25,19.77-13.37,13.71-5.75,17.11-11.66,16-26.7-.61-8.37.68-16.57,5.06-24C731.93,89.75,731.62,89.25,726.5,88.57Z"/></g></g></svg>