<svg xmlns="http://www.w3.org/2000/svg" viewBox="0 0 1074.88 247.12"><defs><style>.cls-1{fill:#f7f6f1;opacity:0.15;}</style></defs><g id="Layer_2" data-name="Layer 2"><g id="Layer_2-2" data-name="Layer 2"><path class="cls-1" d="M73.5,141.05a23.55,23.55,0,0,1-6.61,6c-7.21,4.38-13.69,9.83-18.12,16.92-7.45,12-17.94,18.87-31.48,21.69-5.9,1.23-9.06,5.18-10.3,10.87q-.74,3.41-1.33,6.84C3.83,214,2.08,224.67.19,235.3c-.69,3.85.42,5.35,4.61,5.27,6.65-.13,13.31.29,20,.69,16.54,1,32.9-1.57,49.35-2.34,10.2-.47,20.18-.53,30.18,2.15a235.36,235.36,0,0,0,26.77,5.68c10.06,1.46,13.44-1.18,13.56-11.43s5-17.61,14.73-21.39c5.26-2.05,10.66-3.71,16-5.48,14.79-4.9,30.57-6.75,44.56-14,10.38-5.39,21.38-7,32.81-7,5.82,0,11.63.3,17.43-.89,14.29-2.92,26.89-8,34.53-21.82,4.8-8.72,13.19-12.84,23.17-13.42a126.44,126.44,0,0,1,26.4,1.38c14.77,2.24,28.74-.46,42.77-4.47a17.6,17.6,0,0,1,18.27,5.09c4.79,5,3,11,.46,16.35-4,8.57-9.69,15.88-18,20.83a48.48,48.48,0,0,0-6.9,4.91c-3.28,2.81-6.14,6.2-4,10.8,2.08,4.43,6.35,4.23,10.43,3.55,4.42-.73,9-1.13,13.19-2.52,14.46-4.72,25.19.58,34.24,11.65,11.18,13.66,25,18.93,42.91,15.24C513,228.9,537.78,221.22,563.14,216c10.22-2.11,20.4-5.34,31-4.14,13.87,1.57,27.43,5,41,8.1,18.58,4.3,36.88,9.76,56,11.95,17.64,2,35.27,4.36,52.61,8.54A153.77,153.77,0,0,0,774,244.76c13.33-1.26,27.9-2.79,42.49-4,11.12-.9,21.64-3.69,31.13-9.55,8.49-5.24,17.69-7,27.47-7.85,20.7-1.85,40.27-7.11,56-22a47.38,47.38,0,0,1,7.24-5.3c15.67-9.89,32.85-14.06,51.3-13.66,17.86.39,34.27-2.77,50.12-12.8,17.53-11.1,31.24-38.4,25.21-59.46-4-14.06-3.77-28,4.51-40.85,1.35-2.1,2.49-4.33,3.64-6.55,4.24-8.18.51-17.43-8.11-20.67-9.61-3.61-19.51-3.25-29.53-3.12-5.42.07-9.71,1.28-13.42,5.1-2.82,2.9-6.06,3.5-10,2.23-5.36-1.72-10.92-2.83-16.37-4.27-2.63-.7-4.21-.36-6,2.37-4.34,6.68-8.25,14-17,16.33-2.56.67-4.4,2.84-6.28,4.78C958.14,74,948.79,81,937.12,83.77c-3.89.93-6.88,2.24-8.79,5.65a21,21,0,0,1-15.25,10.34A46.09,46.09,0,0,0,885.28,115,10.42,10.42,0,0,1,871.94,117c-5.07-3.32-10-2.86-15.2-2.84-2.32,0-4.79.32-6.83-1-3.91-2.53-8.24-2.38-12.54-2.2-5.64.24-10.37-1-14.07-5.79-3.11-4-8.22-6.44-12.31-3.22-8.79,6.93-20.61,1-29.22,7.92-1.42,1.14-4.27,1-6.32.69-3.67-.64-6.71.31-10,1.75a40,40,0,0,0-10.53,6.4c-1.4,1.21-3.47,2.82-4.87,1.87-4.38-3-6.64-.27-9.16,2.56a7.24,7.24,0,0,1-4,1.89c-7.54,1.8-14.79.23-22.34-.53-10.44-1.05-20.51-3.88-30.94-4.78-5.77-.5-12-2.62-12.55-10.5-.14-2.08-1.68-3.11-3.55-3.74-4.49-1.52-7.14.35-9.18,4.37-4.1,8-6.94,8.58-14.41,3.46s-15.51-9.18-25.29-8.7c-8.19.41-12.48-3.75-14-12a7.11,7.11,0,0,0-2.67-4.07c-2.41-2.12-5.51-3.08-8.18-4.72-5-3.09-10.79-1.24-16-2.91-6.24-2-7.36-1.49-10.18,4.64-.56,1.21-1,2.47-1.65,3.63-3.43,6.27-10.51,7.94-16,3.36-6.51-5.46-12.88-11.1-18.9-17.09-3.88-3.87-6.16-9.21-5.06-14.58,1.28-6.21-.93-10.78-4.53-15.08-4.22-5-8.13-5.85-14.15-3.45-6.48,2.58-12.93,5.24-19.44,7.76-8.22,3.18-15.93,2.69-22.84-3.37-1.75-1.53-3.64-3-6.21-2.75-3.72.41-6.39-1.42-8.68-4a65.64,65.64,0,0,1-11.5-18c-2.64-6.32-1-10.27,5.13-13.22,1-.49,2.55-.62,1.73-2.26-.56-1.14-1.8-.89-2.61-.28-4.22,3.18-7,1-9.56-2.4-4.07-5.31-5.13-5.2-8.67.61C418.24,15.05,403.45,21,391.93,16.79a19.52,19.52,0,0,0-13.47-.21c-3.82,1.2-8.07,2.87-11.73,1.17-11.3-5.24-23.14-3.82-34.88-3.72-10.35.1-20.56-.15-30.51-3.73-4-1.44-8.82-2.6-12.76-.79-9.88,4.54-20.33,7.63-30.08,12.23a59.35,59.35,0,0,1-16.29,5.36c-10.13,1.62-20.4,3.07-29.29,8.94a24,24,0,0,1-7.86,3A24.39,24.39,0,0,0,190.57,49a21,21,0,0,1-9.25,7.27c-5.93,2.53-12,4.85-17.51,8.21C151.24,72.2,139.27,81,124.67,84.85c-2.09.55-3.09,1.75-2.82,4.41,1,10.17-3.9,17.34-13.61,20.37-10.14,3.16-20.47,4.47-31,2.63-3.09-.54-4.18.34-4.17,3.5,0,4.82-.43,9.59,2,14.13C77.17,133.83,76.14,137.59,73.5,141.05Z"/></g></g></svg>