<svg xmlns="http://www.w3.org/2000/svg" viewBox="0 0 456.34 330.57"><defs><style>.cls-1{opacity:0.15;}.cls-2{fill:#f7f6f1;}</style></defs><g id="Layer_2" data-name="Layer 2"><g id="Layer_2-2" data-name="Layer 2"><g class="cls-1"><path class="cls-2" d="M175.12,167.15a7.85,7.85,0,0,0-2.15-.21,30.18,30.18,0,0,0-4.17.66c-2,.61-3.6,1.9-3.34,4.25s2.46,1.86,3.9,2.27c2.37.68,4.52-.53,6.57-1.5,1.52-.73,4.4-.54,4.26-2.48C180,167.71,177,167.92,175.12,167.15Z"/><path class="cls-2" d="M63.81,208.39c6.08-6.72,16.9-8,20.25-17.78a3.22,3.22,0,0,1,1.9-1.53c2.25-.78,3.44-2.5,4.42-4.48.78-1.56,2.2-2.25,3.61-3.19,8.65-5.71,20.16-4.92,28-12.41.71-.67,2.24-.75,3.36-.69,4.43.23,7.7-2.06,11.4-4.12,5.24-2.92,9.63-6.08,12.16-11.73.73-1.64,2.75-2.86,4.42-3.91a18.24,18.24,0,0,0,8.34-11.32c1.38-5.27,5-8.34,10.23-9.89,4-1.17,8.07,0,11.87-1,4.79-1.32,8.26,0,11.75,3.27,5.05,4.72,7.56,4.41,11.12-1.24,2.35-3.74,5.49-5.43,9.76-5.92,13.28-1.52,25.38,1.15,36.2,9.22,4.92,3.66,10.14,6.36,16.66,4a7.64,7.64,0,0,1,4.93.07c9.05,3.51,15.08-2.81,21.79-6.62,2-1.13,3.13-3.66,3.34-6,.4-4.41,1.41-8.41,4.1-12.08,1.74-2.36.08-5.11-2.23-4.35-6.16,2-10.95-1.54-15.5-3.69-15.77-7.48-31.33-15.44-46-25.06-7.09-4.65-14.1-10.38-17.25-17.56C219,52.46,215.63,44.3,212.6,36.1a10.41,10.41,0,0,1,.05-5.93c.32-1.37,1-2.88,2.5-2.7,4.41.56,3-2.6,3.28-4.72.45-3.34-1.85-3.8-4.3-4.14-3.1-.42-6.15-.58-8.87-2.75-1.63-1.29-3.79-1.4-3.63,2.17s-2.09,4.86-4.89,2.88c-5.33-3.77-10.35-3.71-15.46.38-3.5,2.8-6.52,2.27-9.42-1.3C167,14.05,161.93,8.33,156.94,2.53,155,.27,152.45-1,150,1.06c-3.5,3-6.95,2.79-10.61.91-2.78-1.43-4.48-.58-6.31,1.78-3.27,4.21-7.55,7-13.08,7.33a31.69,31.69,0,0,0-9.76,1.83,8.11,8.11,0,0,1-5.83-.39c-8-3-9.84-1.81-11.09,6.78-1,6.72-3.29,8.49-10,7.66-7.56-.93-10,.84-11.8,8.14-.56,2.3.17,3.95,2.27,4.07,8.5.51,11.07,9.66,18.14,12.21,1.09.39,1.13,1.9,1.2,3.1.36,6.31,1,12.61,1.09,18.93.06,3.22,1.22,6.84-1.19,9.64s-5.63-1.23-7.35,0C80.19,87.06,74,89.2,68,91.93c-3.31,1.51-4.83,17.49-2.51,20.84,3.51,5.06,2.13,9.85-1.59,13-8.62,7.35-15.1,17.1-25.32,22.63a2.68,2.68,0,0,0-1.18,1.45c-1.84,6.57,3.09,13,9.78,13.74,7.83.85,15.62,0,23.37.29,7.35.26,14.11-.2,20.75-3.46,4-2,7.86-1.07,11,2.14,3.65,3.77,2.68,8.58-2.26,10.36-5.47,2-10.56,5.23-16.73,5.09-2.92-.07-5.43,1.47-7.73,3.16a77.07,77.07,0,0,1-22.45,11.74c-3.11,1-3.91,3.42-2.48,5.29,4.49,5.87,1.15,10.74-1.39,15.66-2,3.93-4.63,7.57-7,11.34l.87,1c6.37-2.63,13-5,16.34-12A23.62,23.62,0,0,1,63.81,208.39Z"/><path class="cls-2" d="M24.46,207.14c0-2.14-1.62-3.28-3.79-2.82-6.08,1.28-12.5,1.4-18,5-1.19.78-3,1.05-2.67,3.07a4.63,4.63,0,0,0,3.32,4c1.38.42,2.94.27,5.07.43,3.78-.6,8.21-1.14,12.57-2S24.5,210.1,24.46,207.14Z"/><path class="cls-2" d="M453.38,135.75c.37-1.7-.1-3.06-2-3.35-9.24-1.39-17.12-7.12-26.5-8.17a30.25,30.25,0,0,1-12.94-5c-3.75-2.44-7.06-2.22-10.36.88-3.15,3-6.82,4-11.35,4-16,0-31.24-3.86-46.61-7.36-9.69-2.21-18.92-6.42-29-6.78-5.64-.19-10.21,3.28-11.1,8.65a42.36,42.36,0,0,1-4.86,14.53c-1.17,2-1.34,4.09.83,5.75,7.67,5.91,13.74,13.84,22.74,18.1a3.19,3.19,0,0,1,1.73,2.89c0,4.5,2.48,4.25,5.63,3.16a29.56,29.56,0,0,1,3.45-.43c13-2.76,25.23,4.79,38.2,3.15a2.79,2.79,0,0,1,3.23,3c-.18,2.06-1.93,2.46-3.75,2.34-6.85-.48-13.62.32-20.43.9-4.56.38-9.67,2.31-13.42-2.52-.49-.63-1.59-.27-2.31.23-5.14,3.58-11.42,3.83-17.08,4.25-13.88,1-27.52,2.14-39.93,9.28-2.34,1.36-5.34,3.07-2.51,5.29,4.75,3.72,9.37,8.88,16.8,6.44,3.83-1.26,7.71-.72,10.64,2.36,1.73,1.82,3.17,4.2-1.1,4.75a3.66,3.66,0,0,0-3.43,3c-.69,2.42-2.45,3.27-4.93,3.27-4.16,0-8.17-.06-12.17-1.88-4.31-2-8.92-4.17-13.87-2.1s-9.83,1.65-14.6.16A95.54,95.54,0,0,0,210,201c-3.22.44-5.95,2-9.05,2.52-2.77.51-4.55-.39-5.6-2.88-1.2-2.88.83-3.92,2.92-4.76s4.4-1.65,6-3.45c1.44-1.63,1.66-3-.72-4.3-7.29-3.92-15.26-4.13-23.19-4.51-1.12-.06-2.86.06-3.22,1.76-.26,1.27.66,2.21,1.51,3,3.55,3.23,6.66,7,11.28,8.93,1.87.77,3.26,2.05,1.79,4.23-3.18,4.7-10,6.75-15.67,4.9-3.5-1.14-7-2.38-10.42.35a4.17,4.17,0,0,1-2.88.49c-6.52-.85-11.64-4.59-16.71-8.38-3.22-2.41-2.3-6-2.38-9.22,0-1.74-.53-4.2-2.5-3.33-5.19,2.28-10.51,2.11-15.91,2.15a4,4,0,0,0-2.43,1.62c-2.88,3.54-6.43,4.21-10.68,3-2.39-.66-5-.59-7.34-1.32C96.5,189.2,90.6,193,85.55,198.85c-1.76,2-4,3.27-5.94,4.86-4.6,3.74-9,7.46-14.71,9.45a1.69,1.69,0,0,0-.88,1.16c-.52,4.78-4.41,7.65-6.49,11.55-2.38,4.49-6,7.21-11.35,6.29-3.65-.63-5.07,1.17-6,4.3a84.05,84.05,0,0,0-3,27.14,23.41,23.41,0,0,1-4.64,15c-1.13,1.58-2.6,3-3.08,5.62,4.63,1.11,8.9-.2,13.11-.72,11-1.34,22-2.74,32-8.43,7.49-4.27,15.22-7.91,24.32-8.11,9.51-.2,19-.74,28.28,1.71,12.4,3.29,15.34,12.37,7.62,22.16-2.57,3.26-4.86,6.75-7.15,10.21-1.3,2-2.58,4.3-1,6.49s4,1.13,6.09,1a48.13,48.13,0,0,0,8.32-1.52c6.7-1.78,12.91-1.52,19.13,2.26,5.54,3.37,12.1,3.28,18.45,3.31,2.66,0,5.33-.06,8,.06,5.5.24,6.58,1.41,6.61,6.94.06,9.31.06,9.31,9.3,10.76.33.05.65.13,1,.15,14.08.82,14.39-1.18,12.63-13.77-.85-6.07-3.2-12-2.43-18.22,1.62-13.18,3.19-26.39,6.56-39.27,2.9-11,9.94-14.29,20.49-9.77,3.82,1.63,7.43,3.78,11.3,5.26,7.44,2.85,12.4,1.15,16.8-5.36,1.59-2.34,3-4.82,4.74-7,5.22-6.58,11.42-8.36,19.55-6,5.7,1.65,10.49,5,15.4,8.09,21,13.26,42.72,25.17,64.42,37.15,1.88,1,4.14,3.1,4.71-1.48q3.69-29.92,8.86-59.62c1.48-8.43,5.29-14,14-15.95,8.53-1.93,17-4.87,22.34-12.17,8-11,16.88-20.9,28.43-28.37,3.56-2.29,6.42-6.14,4.32-11.14C453.32,147.27,452.1,141.69,453.38,135.75Z"/><path class="cls-2" d="M66.72,209c6.72.41,7.86-4.36,11.11-7.63C72.19,201.62,71.13,206.71,66.72,209Z"/></g></g></g></svg>