<svg width="267" height="362" viewBox="0 0 267 362" fill="none" xmlns="http://www.w3.org/2000/svg">
<path d="M267 342C267 353.046 258.046 362 247 362L20.0001 362C8.95437 362 6.1839e-05 353.046 6.28307e-05 342L7.72847e-05 181L8.54095e-05 90.5L8.85198e-05 55.8543C8.91152e-05 49.2221 3.28791 43.0212 8.77764 39.2997L61.6677 3.44533C64.9797 1.20015 68.8889 -1.68654e-05 72.8902 -1.65247e-05L133.5 -1.1365e-05L194.11 -6.20519e-06C198.111 -5.86456e-06 202.02 1.20015 205.332 3.44534L258.222 39.2997C263.712 43.0212 267 49.2221 267 55.8543L267 90.5L267 181L267 342Z" fill="#F7F6F1"/>
<path d="M247 361.5L20.0001 361.5C9.23053 361.5 0.500062 352.77 0.500063 342L0.500077 181L0.500085 90.5L0.500089 55.8543C0.500089 49.3879 3.70572 43.342 9.0582 39.7135L61.9483 3.8592C65.1774 1.67015 68.989 0.499983 72.8902 0.499983L133.5 0.499989L194.11 0.499994C198.011 0.499994 201.823 1.67016 205.052 3.85922L257.942 39.7135C263.294 43.342 266.5 49.3879 266.5 55.8543L266.5 90.5L266.5 181L266.5 342C266.5 352.77 257.77 361.5 247 361.5Z" stroke="black" stroke-opacity="0.6"/>
</svg>
