<svg width="726" height="726" viewBox="0 0 726 726" fill="none" xmlns="http://www.w3.org/2000/svg">
<circle cx="362.628" cy="362.712" r="264.462" transform="rotate(60 362.628 362.712)" stroke="black" stroke-width="2"/>
<path d="M133.669 495.479L171.795 473.467" stroke="black"/>
<path d="M169.339 474.819L173.282 475.875L174.339 471.932L170.395 470.875L169.339 474.819ZM172.089 473.809L210.214 451.797L209.714 450.931L171.589 472.942L172.089 473.809Z" fill="black"/>
<path d="M207.464 452.803L211.407 453.86L212.464 449.917L208.52 448.86L207.464 452.803ZM210.214 451.793L248.339 429.781L247.839 428.915L209.714 450.927L210.214 451.793Z" fill="black"/>
<path d="M245.59 430.792L249.533 431.848L250.59 427.905L246.646 426.848L245.59 430.792ZM248.34 429.781L286.465 407.769L285.965 406.903L247.84 428.915L248.34 429.781Z" fill="black"/>
<path d="M283.715 408.778L287.658 409.834L288.715 405.891L284.771 404.834L283.715 408.778ZM286.465 407.767L324.59 385.756L324.09 384.89L285.965 406.901L286.465 407.767Z" fill="black"/>
<path d="M321.841 386.769L325.784 387.826L326.841 383.883L322.897 382.826L321.841 386.769ZM324.591 385.759L362.716 363.747L362.216 362.881L324.091 384.893L324.591 385.759Z" fill="black"/>
<path d="M362.421 363.405L400.546 341.394" stroke="black"/>
<path d="M398.093 342.744L402.036 343.8L403.093 339.857L399.149 338.8L398.093 342.744ZM400.843 341.733L438.968 319.722L438.468 318.855L400.343 340.867L400.843 341.733Z" fill="black"/>
<path d="M436.218 320.733L440.161 321.79L441.218 317.847L437.274 316.79L436.218 320.733ZM438.968 319.723L477.093 297.711L476.593 296.845L438.468 318.857L438.968 319.723Z" fill="black"/>
<path d="M474.344 298.723L478.287 299.78L479.344 295.837L475.4 294.78L474.344 298.723ZM477.094 297.713L515.219 275.701L514.719 274.835L476.594 296.847L477.094 297.713Z" fill="black"/>
<path d="M512.469 276.71L516.412 277.766L517.469 273.823L513.525 272.766L512.469 276.71ZM515.219 275.699L553.344 253.687L552.844 252.821L514.719 274.833L515.219 275.699Z" fill="black"/>
<path d="M550.595 254.698L554.538 255.754L555.595 251.811L551.651 250.754L550.595 254.698ZM553.345 253.687L591.47 231.675L590.97 230.809L552.845 252.821L553.345 253.687Z" fill="black"/>
<path d="M174.191 254.622L173.134 250.678L169.191 251.735L170.248 255.678L174.191 254.622ZM133.315 231.599L171.441 253.611L171.941 252.745L133.815 230.733L133.315 231.599Z" fill="black"/>
<path d="M212.42 276.627L211.363 272.683L207.42 273.74L208.476 277.683L212.42 276.627ZM171.544 253.605L209.67 275.616L210.17 274.75L172.044 252.738L171.544 253.605Z" fill="black"/>
<path d="M250.545 298.639L249.489 294.695L245.545 295.752L246.602 299.695L250.545 298.639ZM209.67 275.616L247.795 297.628L248.295 296.762L210.17 274.75L209.67 275.616Z" fill="black"/>
<path d="M288.672 320.651L287.616 316.707L283.672 317.764L284.729 321.707L288.672 320.651ZM247.797 297.628L285.922 319.64L286.422 318.774L248.297 296.762L247.797 297.628Z" fill="black"/>
<path d="M326.795 342.663L325.739 338.719L321.795 339.776L322.852 343.719L326.795 342.663ZM285.92 319.64L324.045 341.652L324.545 340.786L286.42 318.774L285.92 319.64Z" fill="black"/>
<path d="M324.297 341.219L362.422 363.231" stroke="black"/>
<path d="M402.945 386.692L401.888 382.748L397.945 383.805L399.002 387.748L402.945 386.692ZM362.069 363.669L400.195 385.681L400.695 384.815L362.569 362.803L362.069 363.669Z" fill="black"/>
<path d="M441.173 408.698L440.117 404.755L436.173 405.812L437.23 409.755L441.173 408.698ZM400.298 385.676L438.423 407.688L438.923 406.822L400.798 384.81L400.298 385.676Z" fill="black"/>
<path d="M479.298 430.71L478.242 426.767L474.298 427.824L475.355 431.767L479.298 430.71ZM438.423 407.688L476.548 429.7L477.048 428.834L438.923 406.822L438.423 407.688Z" fill="black"/>
<path d="M517.422 452.717L516.366 448.774L512.422 449.83L513.479 453.774L517.422 452.717ZM476.547 429.695L514.672 451.707L515.172 450.841L477.047 428.829L476.547 429.695Z" fill="black"/>
<path d="M555.55 474.734L554.494 470.791L550.55 471.847L551.607 475.791L555.55 474.734ZM514.675 451.712L552.8 473.724L553.3 472.858L515.175 450.846L514.675 451.712Z" fill="black"/>
<path d="M553.051 473.288L591.176 495.299" stroke="black"/>
<path d="M362.339 145.958L365.226 143.072L362.339 140.185L359.452 143.072L362.339 145.958ZM361.839 99.0481L361.839 143.072L362.839 143.072L362.839 99.0481L361.839 99.0481Z" fill="black"/>
<path d="M362.396 190.07L365.283 187.184L362.396 184.297L359.51 187.184L362.396 190.07ZM361.896 143.16L361.896 187.184L362.896 187.184L362.896 143.16L361.896 143.16Z" fill="black"/>
<path d="M362.395 234.091L365.281 231.204L362.395 228.317L359.508 231.204L362.395 234.091ZM361.895 187.18L361.895 231.204L362.895 231.204L362.895 187.18L361.895 187.18Z" fill="black"/>
<path d="M362.395 278.116L365.281 275.23L362.395 272.343L359.508 275.23L362.395 278.116ZM361.895 231.206L361.895 275.23L362.895 275.23L362.895 231.206L361.895 231.206Z" fill="black"/>
<path d="M362.396 322.142L365.283 319.255L362.396 316.369L359.51 319.255L362.396 322.142ZM361.896 275.232L361.896 319.255L362.896 319.255L362.896 275.232L361.896 275.232Z" fill="black"/>
<path d="M362.396 319.252L362.396 363.276" stroke="black"/>
<path d="M362.341 410.105L365.228 407.219L362.341 404.332L359.454 407.219L362.341 410.105ZM361.841 363.195L361.841 407.219L362.841 407.219L362.841 363.195L361.841 363.195Z" fill="black"/>
<path d="M362.395 454.207L365.281 451.32L362.395 448.433L359.508 451.32L362.395 454.207ZM361.895 407.297L361.895 451.32L362.895 451.32L362.895 407.297L361.895 407.297Z" fill="black"/>
<path d="M362.396 498.233L365.283 495.346L362.396 492.459L359.51 495.346L362.396 498.233ZM361.896 451.322L361.896 495.346L362.896 495.346L362.896 451.322L361.896 451.322Z" fill="black"/>
<path d="M362.396 542.256L365.283 539.37L362.396 536.483L359.51 539.37L362.396 542.256ZM361.896 495.346L361.896 539.37L362.896 539.37L362.896 495.346L361.896 495.346Z" fill="black"/>
<path d="M362.396 586.282L365.283 583.395L362.396 580.509L359.51 583.395L362.396 586.282ZM361.896 539.372L361.896 583.395L362.896 583.395L362.896 539.372L361.896 539.372Z" fill="black"/>
<path d="M362.395 583.396L362.395 627.419" stroke="black"/>
<circle cx="361.999" cy="99" r="10" fill="#0D0D0D"/>
<circle cx="591.999" cy="232" r="10" fill="#0D0D0D"/>
<circle cx="591.999" cy="495" r="10" fill="#0D0D0D"/>
<circle cx="132.999" cy="231" r="10" fill="#0D0D0D"/>
<circle cx="132.999" cy="494" r="10" fill="#0D0D0D"/>
<circle cx="362.999" cy="628" r="10" fill="#0D0D0D"/>
</svg>
