<svg xmlns="http://www.w3.org/2000/svg" viewBox="0 0 225.14 281.02"><defs><style>.cls-1{fill:#fff;}</style></defs><g id="Layer_2" data-name="Layer 2"><g id="Layer_2-2" data-name="Layer 2"><path class="cls-1" d="M224.69,281a19.6,19.6,0,0,0,.39-2.32c0-81.38.16-162.76-.08-244.13C224.94,14,210.07,0,189.68,0q-78,0-156,0A33.23,33.23,0,0,0,0,33.48Q-.06,154.79,0,276.1c0,1.35.26,2.69.43,4.34a19.1,19.1,0,0,0,1.94-1Q55.23,240.57,108,201.67c3.06-2.26,5.2-2.69,8.56-.18,22.36,16.73,44.91,33.22,67.42,49.75C197.35,261.06,210.76,270.83,224.69,281Z"/><path d="M224.69,281c-13.93-10.19-27.34-20-40.7-29.78-22.51-16.53-45.06-33-67.42-49.75-3.36-2.51-5.5-2.08-8.56.18Q55.27,240.64,2.4,279.4a19.1,19.1,0,0,1-1.94,1c-.17-1.65-.43-3-.43-4.34Q0,154.79,0,33.48A33.23,33.23,0,0,1,33.66,0q78-.06,156,0C210.07,0,224.94,14,225,34.57c.24,81.37.1,162.75.08,244.13A19.6,19.6,0,0,1,224.69,281Z"/></g></g></svg>