<svg xmlns="http://www.w3.org/2000/svg" viewBox="0 0 948.02 226.48"><defs><style>.cls-1{font-size:150px;font-family:Montserrat-Black, Montserrat;font-weight:800;}.cls-2{fill:none;stroke:#000;stroke-miterlimit:10;}</style></defs><g id="Layer_2" data-name="Layer 2"><g id="Layer_2-2" data-name="Layer 2"><text class="cls-1" transform="translate(0 185.98)">BUMERANG</text><path d="M126.11,29.93a39.15,39.15,0,0,1-.19,4.89A7.22,7.22,0,0,1,123.76,39a8.23,8.23,0,0,1-6.09,2.22H109.3V18.64h8.37a8.23,8.23,0,0,1,6.09,2.22,7.87,7.87,0,0,1,2.16,4.19A38,38,0,0,1,126.11,29.93Zm-5.55,0c0-2.79-.21-4.48-.61-5.07a3,3,0,0,0-2.66-1.27h-2.44V36.27h2.44A3,3,0,0,0,120,35a2.61,2.61,0,0,0,.45-1.24c.06-.51.1-1,.12-1.52S120.56,31,120.56,29.93Z"/><path d="M146.4,29.93a29.77,29.77,0,0,1-.25,4.85,7.5,7.5,0,0,1-2,4.1,9.13,9.13,0,0,1-12.62,0,7.53,7.53,0,0,1-2-4.1,31.69,31.69,0,0,1-.26-4.85,29.5,29.5,0,0,1,.26-4.85,7.4,7.4,0,0,1,2-4.09,9.11,9.11,0,0,1,12.62,0,7.57,7.57,0,0,1,2,4.09A32,32,0,0,1,146.4,29.93Zm-5.55,0a26.75,26.75,0,0,0-.19-3.63,4.16,4.16,0,0,0-.63-1.92,3,3,0,0,0-4.46.05q-.81,1-.81,5.5t.78,5.47a2.63,2.63,0,0,0,2.27,1.07,2.76,2.76,0,0,0,2.25-1Q140.86,34.34,140.85,29.93Z"/><path d="M176.69,18.64l-6.18,22.58H166l-3.65-11.13-3.64,11.13h-4.51L148,18.64h5.8l3,11.93,3.65-11.93h3.93l3.65,11.93,2.95-11.93Z"/><path d="M196.61,41.22h-4.86l-7.23-11.35V41.22H179V18.64h4.86L191.06,30V18.64h5.55Z"/><rect x="191.05" y="6.75" width="5.55" height="12.68"/><rect x="178.97" y="40.36" width="5.55" height="12.68"/><polygon points="193.79 0 188.56 6.74 199.02 6.74 193.79 0"/><polygon points="181.74 59.79 186.96 53.05 176.51 53.05 181.74 59.79"/><path class="cls-2" d="M26,34.2a6.3,6.3,0,0,1-2.56,5.27,9.91,9.91,0,0,1-6.16,1.84c-3.78,0-6.64-1-8.56-3l3.55-3.56q1.59,1.59,5,1.59c2.16,0,3.24-.68,3.24-2,0-1.08-.65-1.72-1.94-1.93L15.86,32c-4.06-.58-6.09-2.75-6.09-6.54A6.59,6.59,0,0,1,12,20.34a8.7,8.7,0,0,1,6-2q4.92,0,7.62,2.69l-3.49,3.49a5.87,5.87,0,0,0-4.28-1.33,3.11,3.11,0,0,0-2.1.66,1.87,1.87,0,0,0-.63,1.43,1.47,1.47,0,0,0,.46,1,2.64,2.64,0,0,0,1.54.68l2.72.39a7.52,7.52,0,0,1,4.62,2.06A6.73,6.73,0,0,1,26,34.2Z"/><path class="cls-2" d="M44.94,23.48H39.39V41.12H33.84V23.48H28.29V18.54H44.94Z"/><path class="cls-2" d="M66.6,41.12H60.8l-1-3.36h-7l-1.11,3.36h-5.8L54.1,18.54h4.29Zm-8.31-8-1.9-6-2,6Z"/><path class="cls-2" d="M86.74,41.12H80.3l-4-8.41H74.43v8.41H68.88V18.54h9a7.58,7.58,0,0,1,5.74,2.25,6.91,6.91,0,0,1,2,5,6.16,6.16,0,0,1-3.67,5.9ZM80,25.8a2.21,2.21,0,0,0-.68-1.57,2.26,2.26,0,0,0-1.73-.71H74.43v4.56h3.14a2.42,2.42,0,0,0,1.72-.66A2.19,2.19,0,0,0,80,25.8Z"/><path class="cls-2" d="M104.88,23.48H99.33V41.12H93.78V23.48H88.23V18.54h16.65Z"/></g></g></svg>