<svg width="45" height="27" viewBox="0 0 45 27" fill="none" xmlns="http://www.w3.org/2000/svg">
<g clip-path="url(#clip0_564_1761)">
<path d="M18.0687 1.2208C18.5296 0 18.5296 0 19.8396 0C23.4218 0 27.004 0 30.5821 0C31.1886 0 31.504 0.191259 31.5161 0.813866C31.5161 1.15976 31.698 1.26963 32.0175 1.24928C32.2784 1.22689 32.5408 1.22689 32.8018 1.24928C33.0547 1.25558 33.3039 1.31232 33.5349 1.41622C33.7659 1.52012 33.9741 1.66911 34.1474 1.85457C34.3208 2.04003 34.4559 2.25827 34.5448 2.49664C34.6338 2.73502 34.6749 2.98879 34.6657 3.24326C34.6657 4.51696 34.7546 5.81914 34.5242 7.05215C34.0956 9.34318 32.6158 10.7634 30.3962 11.4307C30.103 11.5231 29.8458 11.7051 29.6603 11.9516C29.0018 12.9511 28.132 13.7918 27.1131 14.4136C26.9334 14.529 26.7925 14.6964 26.7088 14.8937C26.5389 15.3257 26.4037 15.7707 26.3045 16.2244C26.0538 17.4452 26.0821 17.4452 27.1131 17.9864C27.4499 18.1218 27.7484 18.3384 27.9824 18.6172C28.3544 19.195 28.8355 19.2927 29.4582 19.2561C30.2304 19.2113 30.2668 19.2968 30.2668 20.0699V24.3427C30.6711 24.3427 31.0107 24.3427 31.3625 24.3427C31.7142 24.3427 31.9689 24.4974 31.9608 24.9165C31.9528 25.3356 31.9608 25.8484 31.9608 26.3123C31.9608 26.7762 31.7546 26.8779 31.3584 26.8779C27.0134 26.8779 22.667 26.8779 18.3193 26.8779C17.915 26.8779 17.729 26.707 17.7412 26.2919C17.7533 25.8769 17.7412 25.4008 17.7412 24.9572C17.7412 24.5136 17.9312 24.3305 18.3557 24.3427C18.6954 24.3427 19.0309 24.3427 19.4393 24.3427V20.5867C19.4053 20.3065 19.4121 20.0227 19.4595 19.7444C19.5588 19.5335 19.7234 19.3607 19.9285 19.252C20.0843 19.2063 20.2498 19.2063 20.4056 19.252C20.6473 19.2864 20.8937 19.2543 21.1187 19.159C21.3436 19.0637 21.5387 18.9088 21.6832 18.7108C22.0552 18.2794 22.6859 18.076 23.1792 17.7423C23.3369 17.6324 23.5471 17.3882 23.5228 17.2458C23.3854 16.432 23.2034 15.6181 22.9972 14.8286C22.913 14.6502 22.7702 14.5065 22.5929 14.4217C21.6075 13.8256 20.762 13.0218 20.1145 12.0656C19.9101 11.7578 19.6144 11.5228 19.2695 11.3941C18.1037 11.0735 17.0694 10.3882 16.3158 9.43738C15.5622 8.48652 15.1283 7.31922 15.0768 6.10399C15.0444 5.15584 15.0525 4.20362 15.0768 3.25546C15.0659 2.98535 15.1108 2.71591 15.2086 2.46412C15.3063 2.21233 15.4549 1.98365 15.6448 1.7925C15.8347 1.60135 16.0619 1.45186 16.3121 1.35347C16.5622 1.25507 16.8299 1.2099 17.0983 1.2208C17.4096 1.2208 17.7533 1.2208 18.0687 1.2208ZM18.9945 0.813866C18.471 3.52602 18.6464 6.32795 19.504 8.95253C19.9469 10.4097 20.7334 11.7374 21.7964 12.8225C23.5714 14.5601 25.7708 14.6821 27.6387 13.0625C28.2812 12.5057 28.8277 11.8457 29.256 11.1093C31.0067 8.07762 31.3261 4.78553 30.8732 1.36729C30.7803 0.903391 30.6024 0.813866 30.1576 0.813866C26.6199 0.813866 23.0781 0.813866 19.5404 0.813866C19.3827 0.813866 19.225 0.813866 19.0026 0.834213L18.9945 0.813866ZM29.4662 20.0333H20.2722V24.2654H29.4662V20.0333ZM30.4406 10.4948C32.2681 10.1286 33.8166 8.17528 33.9056 6.14469C33.9501 5.17619 33.9299 4.20362 33.9056 3.23512C33.9322 2.94545 33.8464 2.65667 33.6663 2.42915C33.4862 2.20163 33.2257 2.05299 32.9393 2.01432C32.5353 1.99242 32.1304 1.99242 31.7263 2.01432C31.9406 5.00121 31.6657 7.81718 30.4406 10.5151V10.4948ZM18.0242 2.03466C17.6401 2.03466 17.3247 2.03466 17.0094 2.03466C16.8524 2.03011 16.6962 2.05801 16.5504 2.11663C16.4046 2.17525 16.2722 2.26334 16.1616 2.37547C16.0509 2.4876 15.9643 2.62138 15.9071 2.76854C15.8498 2.9157 15.8232 3.07311 15.8288 3.23105C15.8288 4.22396 15.7883 5.21688 15.8288 6.2098C15.9299 8.24446 17.446 10.1448 19.2937 10.5274C18.0646 7.81311 17.7897 4.989 18.0242 2.03466ZM18.566 26.0844H31.132V25.1851H18.566V26.0844ZM22.3625 19.191H27.4042C26.4137 17.9295 23.1145 18.0312 22.3625 19.1788V19.191ZM25.7425 14.9751H23.9918L24.4204 17.4737H25.318L25.7425 14.9751Z" fill="#0D0D0D"/>
<path d="M2.16711 8.48428C2.49865 7.60937 2.49865 7.60938 3.4407 7.60938C6.01617 7.60938 8.59568 7.60938 11.1712 7.60938C11.6078 7.60938 11.8302 7.74366 11.8423 8.18315C11.8423 8.43138 11.9717 8.5087 12.2022 8.49242C12.3906 8.4782 12.5798 8.4782 12.7682 8.49242C12.95 8.49767 13.1289 8.53907 13.2947 8.61422C13.4606 8.68938 13.61 8.79681 13.7344 8.93033C13.8588 9.06385 13.9557 9.22082 14.0195 9.39219C14.0834 9.56357 14.1129 9.74597 14.1065 9.92889C14.1541 10.843 14.1203 11.7595 14.0054 12.6676C13.6981 14.3156 12.6307 15.337 11.0377 15.8172C10.8266 15.8854 10.6407 16.0159 10.504 16.1916C10.0318 16.9113 9.40613 17.516 8.6725 17.9617C8.54048 18.0441 8.4362 18.1647 8.37331 18.3076C8.25174 18.6166 8.15573 18.935 8.08625 19.2599C7.90835 20.1348 7.92452 20.1429 8.67655 20.5295C8.91752 20.6288 9.13112 20.7851 9.29919 20.9853C9.41048 21.1591 9.57064 21.2956 9.75928 21.3775C9.94792 21.4594 10.1565 21.4829 10.3585 21.4451C10.9164 21.4125 10.9569 21.4736 10.9569 22.027V25.1116C11.2399 25.1116 11.4906 25.1116 11.7453 25.1116C12 25.1116 12.1819 25.2255 12.1739 25.5185C12.1658 25.8115 12.1739 26.1899 12.1739 26.5236C12.1739 26.8573 12.0283 26.9306 11.7412 26.9306H2.36522C2.07008 26.9306 1.93665 26.8085 1.96091 26.5236C1.98517 26.2388 1.96091 25.8807 1.96091 25.5592C1.96091 25.2377 2.09434 25.1075 2.40161 25.1156C2.6442 25.1156 2.88679 25.1156 3.18194 25.1156V22.4095C3.15135 22.2086 3.15135 22.0041 3.18194 21.8032C3.25098 21.6505 3.36923 21.5258 3.51752 21.4492C3.62835 21.4162 3.74631 21.4162 3.85714 21.4492C4.03304 21.4722 4.21186 21.4465 4.37431 21.3748C4.53676 21.3031 4.67667 21.1881 4.77897 21.0422C5.10743 20.7663 5.46869 20.5326 5.85444 20.3464C5.96765 20.2691 6.11725 20.0941 6.10107 19.9883C6.00404 19.4064 5.87466 18.8244 5.72506 18.2507C5.6694 18.1196 5.56903 18.0128 5.44204 17.9495C4.73705 17.525 4.12937 16.955 3.65902 16.277C3.50166 16.0657 3.28253 15.9092 3.03234 15.8294C2.18883 15.6013 1.43977 15.1079 0.894314 14.4213C0.348861 13.7347 0.0355328 12.8908 -4.22669e-06 12.0124C-4.22669e-06 11.3287 -4.22669e-06 10.641 -4.22669e-06 9.95738C-0.00842905 9.7634 0.0229849 9.56975 0.0922748 9.38854C0.161565 9.20733 0.267241 9.04245 0.402702 8.9042C0.538162 8.76596 0.700495 8.65731 0.879557 8.58506C1.05862 8.51281 1.25056 8.4785 1.44339 8.48428C1.69407 8.47614 1.9407 8.48428 2.16711 8.48428ZM2.83018 8.19943C2.45425 10.1482 2.58092 12.1615 3.19811 14.0471C3.51583 15.0966 4.0835 16.0521 4.85175 16.8305C6.12533 18.0838 7.71024 18.1693 9.05256 17.0055C9.50928 16.6041 9.89722 16.1298 10.2008 15.6015C11.4582 13.4204 11.6887 11.052 11.3571 8.59008C11.3127 8.25233 11.1833 8.18315 10.8639 8.18315C8.31671 8.18315 5.77358 8.18315 3.22641 8.18315C3.1132 8.17908 3 8.19129 2.83018 8.19943ZM10.3625 22.0351H3.75202V25.0668H10.3666L10.3625 22.0351ZM11.062 15.1702C12.376 14.9098 13.4879 13.5058 13.5566 12.0409C13.5849 11.345 13.5566 10.6451 13.5566 9.94924C13.5707 9.74291 13.5063 9.5389 13.3764 9.37866C13.2465 9.21842 13.0608 9.11397 12.8571 9.08654C12.5623 9.06798 12.2666 9.06798 11.9717 9.08654C12.2019 11.1566 11.8897 13.2512 11.066 15.162L11.062 15.1702ZM2.13072 9.06619C1.85579 9.06619 1.62938 9.06619 1.40296 9.06619C1.28957 9.0603 1.17622 9.0785 1.07028 9.11962C0.964345 9.16074 0.868199 9.22386 0.788104 9.30485C0.708009 9.38585 0.64576 9.48292 0.605409 9.58974C0.565057 9.69655 0.547508 9.81073 0.553904 9.92482C0.553904 10.641 0.525602 11.3572 0.553904 12.0694C0.62668 13.5221 1.73045 14.9179 3.04447 15.1743C2.21556 13.2491 1.90193 11.139 2.13477 9.05399L2.13072 9.06619ZM2.53504 26.369H11.5674V25.7179H2.52291L2.53504 26.369ZM5.25606 21.3963H8.89487C8.17115 20.4969 5.79784 20.5702 5.25606 21.3963ZM7.68194 18.3646H6.42857L6.73584 20.1592H7.38274L7.68194 18.3646Z" fill="#0D0D0D"/>
<path d="M36.9703 14.6018C37.1927 14.0117 37.1927 14.0117 37.8274 14.0117C39.5579 14.0117 41.2884 14.0117 43.0229 14.0117C43.314 14.0117 43.4636 14.1012 43.4716 14.3983C43.4716 14.5651 43.5606 14.618 43.7142 14.6058C43.8407 14.5957 43.9678 14.5957 44.0943 14.6058C44.2166 14.609 44.3371 14.6365 44.4487 14.6868C44.5604 14.7371 44.6611 14.8091 44.7449 14.8988C44.8288 14.9885 44.8941 15.094 44.9372 15.2093C44.9803 15.3245 45.0002 15.4472 44.9959 15.5703C45.0259 16.1842 45.0029 16.7997 44.9272 17.4096C44.8387 17.9221 44.602 18.397 44.2467 18.7748C43.8915 19.1526 43.4334 19.4166 42.9299 19.5338C42.7878 19.5758 42.663 19.6629 42.5741 19.782C42.2614 20.2641 41.8473 20.6711 41.3611 20.9743C41.2708 21.0279 41.1999 21.1092 41.159 21.2063C41.0761 21.4146 41.0111 21.6297 40.9649 21.8492C40.8396 22.4352 40.8557 22.4434 41.3692 22.6997C41.5261 22.7678 41.6647 22.8724 41.7735 23.0049C41.8477 23.1233 41.9559 23.2162 42.0836 23.2714C42.2114 23.3266 42.3528 23.3416 42.4892 23.3142C42.8611 23.2939 42.8935 23.3142 42.8935 23.7211V25.7924H43.4231C43.6132 25.7924 43.7142 25.8657 43.7142 26.0691C43.7142 26.2726 43.7142 26.5208 43.7142 26.7446C43.7142 26.9685 43.6132 27.0173 43.4231 27.0173H37.0997C36.9056 27.0173 36.8167 26.9359 36.8207 26.7365C36.8247 26.5371 36.8207 26.3052 36.8207 26.0895C36.8207 25.8738 36.9097 25.7843 37.1159 25.7924H37.6415V23.9612C37.6231 23.8262 37.6231 23.6893 37.6415 23.5543C37.6902 23.4524 37.7693 23.3685 37.8679 23.3142C37.9431 23.2917 38.0231 23.2917 38.0983 23.3142C38.2152 23.3309 38.3344 23.3155 38.4433 23.2697C38.5521 23.2239 38.6467 23.1493 38.7169 23.0538C38.9373 22.8672 39.1805 22.71 39.4407 22.5858C39.5175 22.5329 39.6185 22.4149 39.6064 22.3457C39.5417 21.9388 39.4528 21.5644 39.3517 21.1778C39.3142 21.0895 39.2469 21.0175 39.1617 20.9743C38.6798 20.6861 38.266 20.2959 37.9487 19.8309C37.8464 19.6926 37.7057 19.5878 37.5444 19.5297C36.9835 19.3741 36.4859 19.0438 36.1228 18.5863C35.7597 18.1287 35.5497 17.5673 35.5229 16.9823C35.5229 16.5225 35.5229 16.0586 35.5229 15.5988C35.5172 15.4684 35.5384 15.3383 35.585 15.2166C35.6316 15.0949 35.7027 14.9842 35.7938 14.8913C35.8848 14.7985 35.994 14.7256 36.1143 14.6772C36.2347 14.6288 36.3637 14.6059 36.4932 14.6099C36.6509 14.5977 36.8167 14.6018 36.9703 14.6018ZM37.4191 14.4105C37.1655 15.7205 37.2504 17.074 37.6657 18.3415C37.8801 19.046 38.2601 19.6881 38.7735 20.2134C38.9485 20.4135 39.1619 20.5757 39.401 20.6904C39.6401 20.805 39.8998 20.8696 40.1644 20.8802C40.429 20.8909 40.693 20.8474 40.9404 20.7523C41.1878 20.6573 41.4135 20.5127 41.6037 20.3273C41.9104 20.0569 42.1712 19.7381 42.376 19.3832C43.1616 17.9492 43.4356 16.2876 43.1522 14.675C43.1199 14.4431 43.035 14.3902 42.8207 14.3902C41.1064 14.3902 39.3962 14.3902 37.6859 14.3902L37.4191 14.4105ZM42.4811 23.7008H38.0336V25.7355H42.4811V23.7008ZM42.9501 19.0902C43.4146 18.9628 43.8272 18.6906 44.1286 18.3126C44.43 17.9347 44.6048 17.4705 44.628 16.9864C44.6482 16.5184 44.628 16.0505 44.628 15.5825C44.6395 15.4433 44.5971 15.3051 44.5097 15.1966C44.4223 15.0882 44.2966 15.0179 44.159 15.0006C43.9611 14.9882 43.7626 14.9882 43.5646 15.0006C43.7176 16.3944 43.5057 17.8043 42.9501 19.0902ZM36.946 14.9843C36.7641 14.9843 36.6105 14.9843 36.4568 14.9843C36.3808 14.9814 36.3051 14.9944 36.2344 15.0225C36.1636 15.0505 36.0994 15.0931 36.0459 15.1474C35.9923 15.2017 35.9505 15.2666 35.9231 15.338C35.8957 15.4094 35.8833 15.4857 35.8867 15.5621C35.8867 16.0423 35.8665 16.5225 35.8867 16.9986C35.9144 17.4795 36.0912 17.9395 36.3922 18.3139C36.6932 18.6884 37.1032 18.9585 37.5646 19.0862C37.0057 17.7968 36.7924 16.3825 36.946 14.9843ZM37.1967 26.6144H43.2614V26.1831H37.1967V26.6144ZM39.0363 23.2776H41.4622C41.0053 22.6753 39.4083 22.7242 39.0485 23.2776H39.0363ZM40.6536 21.2429H39.8328L40.039 22.4637H40.4757L40.6536 21.2429Z" fill="#0D0D0D"/>
</g>
<defs>
<clipPath id="clip0_564_1761">
<rect width="45" height="27" fill="white"/>
</clipPath>
</defs>
</svg>
