<svg xmlns="http://www.w3.org/2000/svg" viewBox="0 0 473.26 112.26"><defs><style>.cls-1{fill:#0d0d0d;}</style></defs><g id="Layer_2" data-name="Layer 2"><g id="Layer_2-2" data-name="Layer 2"><path class="cls-1" d="M158.14,110.06c-4.49-5.44-9.9-10.8-13.79-17.1-3.5-5.67-7.71-6.8-13.84-6.74-25.83.25-51.67.37-77.49-.17-15-.31-27.27-14.26-27.37-29.71-.09-15.66,12.2-29.9,27.46-30.13,30.82-.46,61.66-.54,92.48.05,16.92.33,30.35,18.36,26.55,34.82-1.26,5.47,0,9.47,3.89,12.3,4.05,3,8.84,5,13.51,6.91,1,.4,3.86-1.17,4.18-2.31,1.87-6.68,4.33-13.46,4.59-20.28C199.52,26.38,173.93.19,142.61.11Q100.35,0,58.11.14A83.37,83.37,0,0,0,47.19,1,55.19,55.19,0,0,0,0,57.89c1.14,30.43,25.41,54,54.6,54.23q44.49.31,89-.06C149.18,112,154.71,110.56,158.14,110.06Zm155-107.45c6.16,6.65,12.25,12.52,17.44,19.11,2.48,3.15,4.74,4.29,8.57,4.27,27-.08,54-.31,81,.22,15.06.29,27.31,14.21,27.44,29.64.14,15.66-12.14,30-27.38,30.2-30.82.47-61.66.55-92.47,0-16.94-.32-30.42-18.28-26.66-34.75,1.3-5.68-.12-9.74-4.16-12.68S288.35,33.81,283.8,32c-1-.41-3.92,1.1-4.22,2.21C277.7,41.06,275.17,48,275,55c-1,31.35,24.62,57.13,56.12,57.18,28.33,0,56.66-.21,85,.06,35.27.33,61-30.68,56.73-63.22C469.27,22.31,446.13.44,419.22.18,389.06-.11,358.89,0,328.73.23,323.43.27,318.14,1.81,313.17,2.61Zm-137.5-.15c6.43,7,12.48,13.11,17.94,19.71,2.11,2.55,3.87,3.85,7.27,3.83,26.13-.14,52.28-.21,78.41,0,19.89.13,33.94,16.66,30.14,35.87-1,5.14.32,8.68,3.82,11.33,3.74,2.84,8.15,4.84,12.39,7,3.23,1.62,4.87.18,6.19-3.12C346.45,40.63,319.67.33,280.48.13q-44-.22-87.9.07C186.88.25,181.19,1.69,175.67,2.46Zm122.1,107.33c-6.34-6.71-12.47-12.35-17.47-18.86-2.7-3.52-5.18-4.69-9.36-4.66q-38.46.24-76.92,0c-19.91-.14-33.94-16.6-30.2-35.82,1-5.11-.23-8.72-3.77-11.35-3.9-2.89-8.48-4.89-12.86-7.1-3.25-1.63-4.55.25-5.73,3.16-14.7,36.31,12.11,76.72,51.26,76.94q44,.24,87.9-.07C286.32,112,292,110.59,297.77,109.79Z"/><path class="cls-1" d="M158.14,110.06c-3.43.5-9,2-14.51,2q-44.49.34-89,.06C25.45,111.92,1.18,88.32,0,57.89A55.19,55.19,0,0,1,47.19,1,83.37,83.37,0,0,1,58.11.14q42.26-.11,84.5,0c31.32.08,56.91,26.27,55.7,57.59-.26,6.82-2.72,13.6-4.59,20.28-.32,1.14-3.2,2.71-4.18,2.31-4.67-1.92-9.46-4-13.51-6.91-3.88-2.83-5.15-6.83-3.89-12.3,3.8-16.46-9.63-34.49-26.55-34.82-30.82-.59-61.66-.51-92.48-.05-15.26.23-27.55,14.47-27.46,30.13C25.75,71.79,38,85.74,53,86.05c25.82.54,51.66.42,77.49.17,6.13-.06,10.34,1.07,13.84,6.74C148.24,99.26,153.65,104.62,158.14,110.06Z"/><path class="cls-1" d="M313.17,2.61c5-.8,10.26-2.34,15.56-2.38C358.89,0,389.06-.11,419.22.18c26.91.26,50,22.13,53.57,48.83,4.3,32.54-21.46,63.55-56.73,63.22-28.33-.27-56.66,0-85-.06C299.57,112.12,274,86.34,275,55c.22-7,2.75-13.93,4.63-20.78.3-1.11,3.21-2.62,4.22-2.21,4.55,1.81,9.22,3.74,13.14,6.59s5.46,7,4.16,12.68C297.34,67.74,310.82,85.7,327.76,86c30.81.58,61.65.5,92.47,0,15.24-.24,27.52-14.54,27.38-30.2-.13-15.43-12.38-29.35-27.44-29.64-27-.53-54-.3-81-.22-3.83,0-6.09-1.12-8.57-4.27C325.42,15.13,319.33,9.26,313.17,2.61Z"/><path class="cls-1" d="M175.67,2.46C181.19,1.69,186.88.25,192.58.2q43.95-.34,87.9-.07c39.19.2,66,40.5,51.35,76.89-1.32,3.3-3,4.74-6.19,3.12C321.4,78,317,76,313.25,73.17c-3.5-2.65-4.84-6.19-3.82-11.33,3.8-19.21-10.25-35.74-30.14-35.87-26.13-.18-52.28-.11-78.41,0-3.4,0-5.16-1.28-7.27-3.83C188.15,15.57,182.1,9.45,175.67,2.46Z"/><path class="cls-1" d="M297.77,109.79c-5.75.8-11.45,2.23-17.15,2.28q-44,.34-87.9.07c-39.15-.22-66-40.63-51.26-76.94,1.18-2.91,2.48-4.79,5.73-3.16,4.38,2.21,9,4.21,12.86,7.1,3.54,2.63,4.77,6.24,3.77,11.35-3.74,19.22,10.29,35.68,30.2,35.82q38.46.25,76.92,0c4.18,0,6.66,1.14,9.36,4.66C285.3,97.44,291.43,103.08,297.77,109.79Z"/></g></g></svg>