<svg width="907" height="579" viewBox="0 0 907 579" fill="none" xmlns="http://www.w3.org/2000/svg">
<rect x="33" y="45" width="844" height="490" fill="#0D0D0D"/>
<path d="M22 0C23.1046 0 24 0.895431 24 2V16C24 17.1046 23.1046 18 22 18V0Z" fill="#0D0D0D"/>
<path d="M21 72C19.8954 72 19 71.1046 19 70L19 56C19 54.8954 19.8954 54 21 54L21 72Z" fill="#0D0D0D"/>
<path d="M59 34C59 32.8954 59.8954 32 61 32L75 32C76.1046 32 77 32.8954 77 34L59 34Z" fill="#0D0D0D"/>
<path d="M0 34C1.31719e-08 32.8954 0.895431 32 2 32L8 32C9.10457 32 10 32.8954 10 34L0 34Z" fill="#0D0D0D"/>
<line x1="77" y1="34.5" x2="-4.37114e-08" y2="34.5" stroke="black"/>
<line x1="21.5" y1="72" x2="21.5" y2="-1.79095e-08" stroke="black"/>
<path d="M885 579C883.895 579 883 578.105 883 577L883 563C883 561.895 883.895 561 885 561L885 579Z" fill="#0D0D0D"/>
<path d="M886 502C887.105 502 888 502.895 888 504L888 523C888 524.105 887.105 525 886 525L886 502Z" fill="#0D0D0D"/>
<path d="M848 545C848 546.105 847.105 547 846 547L832 547C830.895 547 830 546.105 830 545L848 545Z" fill="#0D0D0D"/>
<path d="M907 545C907 546.105 906.105 547 905 547L899 547C897.895 547 897 546.105 897 545L907 545Z" fill="#0D0D0D"/>
<line x1="830" y1="544.5" x2="907" y2="544.5" stroke="black"/>
<line x1="885.5" y1="502" x2="885.5" y2="538" stroke="black"/>
<line x1="885.5" y1="552" x2="885.5" y2="579" stroke="black"/>
<path d="M23 531C21.3431 531 20 529.657 20 528L20 523C20 521.895 20.8954 521 22 521L23 521L23 531Z" fill="#0D0D0D"/>
<path d="M23 521V543C23 544.105 23.8954 545 25 545H46" stroke="#0D0D0D"/>
<path d="M46 545C46 546.657 44.6569 548 43 548L38 548C36.8954 548 36 547.105 36 546L36 545L46 545Z" fill="#0D0D0D"/>
<line x1="22.5" y1="476" x2="22.5" y2="487.331" stroke="#0D0D0D"/>
<line x1="67" y1="545.5" x2="62" y2="545.5" stroke="#0D0D0D"/>
<path d="M886 78.9961L886 38.9961C886 37.3392 884.657 35.9961 883 35.9961L863 35.9961" stroke="#0D0D0D"/>
<path d="M863 35.9961C863 34.3392 864.343 32.9961 866 32.9961L871 32.9961C872.105 32.9961 873 33.8915 873 34.9961L873 35.9961L863 35.9961Z" fill="#0D0D0D"/>
<line x1="886.5" y1="105.328" x2="886.5" y2="93.9974" stroke="#0D0D0D"/>
<line x1="842" y1="35.4961" x2="847" y2="35.4961" stroke="#0D0D0D"/>
<line x1="824" y1="35.4961" x2="829" y2="35.4961" stroke="#0D0D0D"/>
<path d="M886 58.9961C887.657 58.9961 889 60.3392 889 61.9961V75.9961C889 77.6529 887.657 78.9961 886 78.9961L886 58.9961Z" fill="#0D0D0D"/>
<line x1="54.5" y1="65" x2="54.5" y2="515" stroke="#F7F6F1"/>
<path d="M55 65C56.6569 65 58 66.3431 58 68L58 98.7606C58 100.417 56.6569 101.761 55 101.761L55 65Z" fill="#F7F6F1"/>
<path d="M54 515C52.8954 515 52 514.105 52 513L52 476.437C52 475.332 52.8954 474.437 54 474.437L54 515Z" fill="#F7F6F1"/>
<line y1="-0.5" x2="450" y2="-0.5" transform="matrix(4.37114e-08 1 1 -4.37114e-08 855 66)" stroke="#F7F6F1"/>
<path d="M854 66C852.343 66 851 67.3431 851 69V99.7606C851 101.417 852.343 102.761 854 102.761V66Z" fill="#F7F6F1"/>
<path d="M855 516C856.105 516 857 515.105 857 514L857 477.437C857 476.332 856.105 475.437 855 475.437L855 516Z" fill="#F7F6F1"/>
<line x1="43" y1="183.5" x2="68" y2="183.5" stroke="#0D0D0D" stroke-width="5"/>
<line x1="843" y1="329.5" x2="868" y2="329.5" stroke="#0D0D0D" stroke-width="5"/>
<line x1="46" y1="224.5" x2="71" y2="224.5" stroke="#0D0D0D" stroke-width="5"/>
</svg>
