<svg xmlns="http://www.w3.org/2000/svg" viewBox="0 0 306.49 306.58"><g id="Layer_2" data-name="Layer 2"><g id="Layer_2-2" data-name="Layer 2"><path d="M144.32,0h18.56c6.12.78,12.27,1.33,18.35,2.37C221,9.16,254.59,27.06,279.56,59.18c20.67,26.58,30.58,56.8,25.72,90.64-3.57,24.82-16.79,44-37.62,57.86-14.64,9.73-31,13.8-48.45,13.81-9.57,0-19.16-.26-28.73.12a25.19,25.19,0,0,0-23.06,33.88c1.35,3.83,4.12,7.22,6.51,10.63,4.56,6.53,6,13.67,4,21.28-3.31,12.12-13,19.29-25.67,19.18-25.08-.22-48.89-5.87-70.85-18C38.18,264.77,11.73,228.52,2.42,180,1.3,174.14.79,168.19,0,162.28v-18a21.38,21.38,0,0,0,.51-2.58A144,144,0,0,1,18,81.36C41.86,38.2,78.07,11.74,126.59,2.42,132.44,1.3,138.41.79,144.32,0ZM85.08,128.18a25.48,25.48,0,1,0-25.89,25.09C73,153.68,84.79,142.28,85.08,128.18Zm161.85-25.9a25.5,25.5,0,1,0,25.56,25.42A25.47,25.47,0,0,0,246.93,102.28ZM136.1,58.36a25.33,25.33,0,0,0-27.25-24.14C94.31,35.4,84.48,47.44,85.33,60.57c1,15.33,13,25.57,27.54,24.41C126.51,83.89,137.22,71.6,136.1,58.36Zm34.4,2.51A25.43,25.43,0,1,0,194,34.22C180.05,35.34,169.37,47.5,170.5,60.87Z"/></g></g></svg>