<svg width="263" height="339" viewBox="0 0 263 339" fill="none" xmlns="http://www.w3.org/2000/svg">
<path d="M89.8125 332.389C89.5978 332.562 89.283 332.529 89.1093 332.314C88.9356 332.1 88.9689 331.785 89.1836 331.611L89.8125 332.389ZM104.328 315.24L103.828 315.24L104.328 315.24ZM188.645 59.3201L188.895 59.7533L188.645 59.3201ZM193.654 50.6633L194.154 50.6637L193.654 50.6633ZM109.552 104.883L109.802 105.317L109.552 104.883ZM109.303 104.45L188.396 58.8868L188.895 59.7533L109.802 105.317L109.303 104.45ZM193.154 50.6629L193.177 22.3898L194.177 22.3907L194.154 50.6637L193.154 50.6629ZM89.1836 331.611L100.303 322.615L100.932 323.393L89.8125 332.389L89.1836 331.611ZM103.828 315.24L104.044 113.537L105.044 113.538L104.828 315.241L103.828 315.24ZM100.303 322.615C102.53 320.814 103.825 318.104 103.828 315.24L104.828 315.241C104.824 318.407 103.393 321.402 100.932 323.393L100.303 322.615ZM188.396 58.8868C191.337 57.1924 193.151 54.0574 193.154 50.6629L194.154 50.6637C194.151 54.4155 192.146 57.8806 188.895 59.7533L188.396 58.8868ZM109.802 105.317C106.861 107.011 105.048 110.145 105.044 113.538L104.044 113.537C104.048 109.786 106.053 106.322 109.303 104.45L109.802 105.317Z" fill="black"/>
<rect width="9.99991" height="2.99992" rx="1.49996" transform="matrix(1.57805e-05 -1 -1 1.59433e-05 195.007 30.0859)" fill="#0D0D0D"/>
</svg>
