<svg width="312" height="302" viewBox="0 0 312 302" fill="none" xmlns="http://www.w3.org/2000/svg">
<path d="M306.001 36.4219L280.47 51.0704C277.391 52.8367 273.607 52.8389 270.527 51.0762L190.494 5.28131C187.403 3.51291 183.605 3.52126 180.523 5.30323L9.72797 104.031C6.63652 105.818 4.73252 109.118 4.73252 112.689L4.73252 187.569C4.73252 191.142 6.63972 194.444 9.73529 196.23L181.02 295.049C184.103 296.828 187.9 296.833 190.989 295.063L270.079 249.742C273.131 247.993 276.878 247.976 279.946 249.699L303.5 262.922" stroke="black"/>
<path d="M299.09 40.2209C298.676 39.5035 298.921 38.5861 299.639 38.1719L305.701 34.6719C306.418 34.2577 307.336 34.5035 307.75 35.2209V35.2209C308.164 35.9384 307.918 36.8557 307.201 37.27L301.139 40.77C300.421 41.1842 299.504 40.9384 299.09 40.2209V40.2209Z" fill="#0D0D0D"/>
<path d="M299.75 261.221C300.164 260.503 301.082 260.258 301.799 260.672L307.861 264.172C308.579 264.586 308.824 265.503 308.41 266.221V266.221C307.996 266.938 307.079 267.184 306.361 266.77L300.299 263.27C299.582 262.856 299.336 261.938 299.75 261.221V261.221Z" fill="#0D0D0D"/>
</svg>
