<svg width="346" height="339" viewBox="0 0 346 339" fill="none" xmlns="http://www.w3.org/2000/svg">
<path d="M172.161 332.366C172.365 332.552 172.682 332.537 172.868 332.333C173.053 332.128 173.039 331.812 172.834 331.626L172.161 332.366ZM160.371 320.959L160.034 321.329L160.371 320.959ZM157.102 313.585L156.602 313.586L157.102 313.585ZM72.5629 59.3076L72.3133 59.7409L72.5629 59.3076ZM67.5545 50.6506L68.0545 50.6502L67.5545 50.6506ZM156.672 113.517L156.172 113.518L156.672 113.517ZM151.913 104.44L72.8125 58.8744L72.3133 59.7409L151.414 105.307L151.913 104.44ZM68.0545 50.6502L68.0316 22.377L67.0316 22.3778L67.0545 50.651L68.0545 50.6502ZM172.834 331.626L160.707 320.589L160.034 321.329L172.161 332.366L172.834 331.626ZM157.602 313.584L157.172 113.516L156.172 113.518L156.602 313.586L157.602 313.584ZM160.707 320.589C158.735 318.794 157.608 316.251 157.602 313.584L156.602 313.586C156.608 316.534 157.854 319.344 160.034 321.329L160.707 320.589ZM72.8125 58.8744C69.8711 57.1799 68.0572 54.0448 68.0545 50.6502L67.0545 50.651C67.0575 54.4029 69.0623 57.8681 72.3133 59.7409L72.8125 58.8744ZM151.414 105.307C154.351 106.999 156.165 110.128 156.172 113.518L157.172 113.516C157.164 109.769 155.16 106.31 151.913 104.44L151.414 105.307Z" fill="black"/>
<rect x="66.2031" y="30.0781" width="10" height="3" rx="1.5" transform="rotate(-90 66.2031 30.0781)" fill="#0D0D0D"/>
<path d="M172.813 332.389C172.598 332.562 172.283 332.529 172.109 332.314C171.936 332.1 171.969 331.785 172.184 331.611L172.813 332.389ZM187.328 315.24L186.828 315.24L187.328 315.24ZM271.645 59.3201L271.895 59.7533L271.645 59.3201ZM276.654 50.6633L277.154 50.6637L276.654 50.6633ZM192.552 104.883L192.802 105.317L192.552 104.883ZM192.303 104.45L271.396 58.8868L271.895 59.7533L192.802 105.317L192.303 104.45ZM276.154 50.6629L276.177 22.3898L277.177 22.3907L277.154 50.6637L276.154 50.6629ZM172.184 331.611L183.303 322.615L183.932 323.393L172.813 332.389L172.184 331.611ZM186.828 315.24L187.044 113.537L188.044 113.538L187.828 315.241L186.828 315.24ZM183.303 322.615C185.53 320.814 186.825 318.104 186.828 315.24L187.828 315.241C187.824 318.407 186.393 321.402 183.932 323.393L183.303 322.615ZM271.396 58.8868C274.337 57.1924 276.151 54.0574 276.154 50.6629L277.154 50.6637C277.151 54.4155 275.146 57.8806 271.895 59.7533L271.396 58.8868ZM192.802 105.317C189.861 107.011 188.048 110.145 188.044 113.538L187.044 113.537C187.048 109.786 189.053 106.322 192.303 104.45L192.802 105.317Z" fill="black"/>
<rect width="9.99991" height="2.99992" rx="1.49996" transform="matrix(1.57805e-05 -1 -1 1.59433e-05 278.007 30.0859)" fill="#0D0D0D"/>
</svg>
