<svg width="341" height="489" viewBox="0 0 341 489" fill="none" xmlns="http://www.w3.org/2000/svg">
<path d="M335.5 37L310.993 51.1248C307.905 52.9051 304.102 52.9063 301.012 51.1282L221.494 5.36786C218.405 3.59007 214.603 3.59097 211.514 5.37024L37.5117 105.614C34.4131 107.4 32.5036 110.703 32.5036 114.279L32.5036 184.712C32.5036 188.292 34.4176 191.599 37.522 193.383L212.004 293.627C215.098 295.405 218.905 295.399 221.994 293.612L301.005 247.892C304.098 246.102 307.911 246.099 311.007 247.883L335.503 261.999" stroke="black"/>
<rect x="329" y="39" width="10" height="3" rx="1.5" transform="rotate(-30 329 39)" fill="#0D0D0D"/>
<rect x="329.5" y="257" width="10" height="3" rx="1.5" transform="rotate(30 329.5 257)" fill="#0D0D0D"/>
<path d="M14.5007 199.987C14.5078 199.711 14.7373 199.493 15.0134 199.5C15.2894 199.507 15.5075 199.737 15.5004 200.013L14.5007 199.987ZM14.6524 213.563L14.1526 213.551L14.6524 213.563ZM19.6397 222.475L19.3892 222.908L19.6397 222.475ZM199.84 423.88L199.34 423.88L199.84 423.88ZM204.833 432.546L204.582 432.979L204.833 432.546ZM194.937 323.938L195.187 323.505L194.937 323.938ZM200.427 332.603L200.34 423.881L199.34 423.88L199.427 332.602L200.427 332.603ZM205.083 432.113L229.557 446.27L229.056 447.136L204.582 432.979L205.083 432.113ZM15.5004 200.013L15.1522 213.576L14.1526 213.551L14.5007 199.987L15.5004 200.013ZM19.8901 222.042L195.187 323.505L194.686 324.37L19.3892 222.908L19.8901 222.042ZM15.1522 213.576C15.063 217.053 16.8804 220.3 19.8901 222.042L19.3892 222.908C16.0626 220.982 14.0539 217.393 14.1526 213.551L15.1522 213.576ZM200.34 423.881C200.337 427.275 202.145 430.414 205.083 432.113L204.582 432.979C201.335 431.1 199.336 427.632 199.34 423.88L200.34 423.881ZM199.427 332.602C199.431 329.208 197.624 326.07 194.686 324.37L195.187 323.505C198.434 325.384 200.431 328.852 200.427 332.603L199.427 332.602Z" fill="black"/>
<rect width="9.99991" height="2.99992" rx="1.49996" transform="matrix(0.866018 0.500014 0.499986 -0.866033 221.973 444.008)" fill="#0D0D0D"/>
</svg>
