<svg width="267" height="304" viewBox="0 0 267 304" fill="none" xmlns="http://www.w3.org/2000/svg">
<path d="M131.787 0.408347C132.74 -0.136116 133.912 -0.136116 134.866 0.408347L265.117 74.8614C266.065 75.4059 266.656 76.4119 266.656 77.5014V226.404C266.656 227.496 266.065 228.502 265.117 229.044L134.866 303.501C133.912 304.044 132.74 304.044 131.787 303.501L1.53953 229.044C0.586869 228.502 0 227.496 0 226.404V77.5014C0 76.4119 0.586869 75.4059 1.53953 74.8614L131.787 0.408347Z" fill="#0D0D0D"/>
<path d="M256.489 210.887V211.497H257.105V210.887H256.489ZM256.489 190.864H257.105V190.255H256.489V190.864ZM251.285 190.864V190.255H250.669V190.864H251.285ZM251.285 204.565V205.174H251.901V204.565H251.285ZM228.9 204.565V203.955H228.285V204.565H228.9ZM228.9 210.887H228.285V211.497H228.9V210.887ZM257.105 210.887V190.864H255.873V210.887H257.105ZM256.489 190.255H251.285V191.474H256.489V190.255ZM250.669 190.864V204.565H251.901V190.864H250.669ZM251.285 203.955H228.9V205.174H251.285V203.955ZM228.285 204.565V210.887H229.516V204.565H228.285ZM228.9 211.497H256.489V210.277H228.9V211.497ZM228.9 169.263H228.285V169.665L228.654 169.824L228.9 169.263ZM248.606 177.689L248.847 178.25L250.171 177.695L248.853 177.128L248.606 177.689ZM228.9 185.999L228.66 185.438L228.285 185.597V185.999H228.9ZM228.9 192.828H228.285V193.761L229.147 193.389L228.9 192.828ZM256.489 181.048L256.735 181.603L257.105 181.445V181.048H256.489ZM256.489 174.805H257.105V174.403L256.735 174.244L256.489 174.805ZM228.9 162.977L229.147 162.422L228.285 162.05V162.977H228.9ZM228.654 169.824L248.36 178.25L248.853 177.128L229.147 168.702L228.654 169.824ZM248.366 177.128L228.66 185.438L229.141 186.56L248.847 178.25L248.366 177.128ZM228.285 185.999V192.828H229.516V185.999H228.285ZM229.147 193.389L256.735 181.603L256.243 180.487L228.654 192.273L229.147 193.389ZM257.105 181.048V174.805H255.873V181.048H257.105ZM256.735 174.244L229.147 162.422L228.654 163.538L256.243 175.36L256.735 174.244ZM228.285 162.977V169.263H229.516V162.977H228.285ZM256.489 160.696V161.306H257.105V160.696H256.489ZM256.489 140.68H257.105V140.07H256.489V140.68ZM251.285 140.68V140.07H250.669V140.68H251.285ZM251.285 154.38V154.99H251.901V154.38H251.285ZM228.9 154.38V153.77H228.285V154.38H228.9ZM228.9 160.696H228.285V161.306H228.9V160.696ZM257.105 160.696V140.68H255.873V160.696H257.105ZM256.489 140.07H251.285V141.29H256.489V140.07ZM250.669 140.68V154.38H251.901V140.68H250.669ZM251.285 153.77H228.9V154.99H251.285V153.77ZM228.285 154.38V160.696H229.516V154.38H228.285ZM228.9 161.306H256.489V160.087H228.9V161.306Z" fill="#F7F6F1"/>
</svg>
