<svg width="77" height="77" viewBox="0 0 77 77" fill="none" xmlns="http://www.w3.org/2000/svg">
<path d="M55 77V77C53.8954 77 53 76.1046 53 75L53 61C53 59.8954 53.8954 59 55 59V59L55 77Z" fill="#0D0D0D"/>
<path d="M56 0V0C57.1046 1.93129e-07 58 0.895433 58 2L58 21C58 22.1046 57.1046 23 56 23V23L56 0Z" fill="#0D0D0D"/>
<path d="M18 43V43C18 44.1046 17.1046 45 16 45L2 45C0.895431 45 -4.82823e-08 44.1046 0 43V43L18 43Z" fill="#0D0D0D"/>
<path d="M77 43V43C77 44.1046 76.1046 45 75 45L69 45C67.8954 45 67 44.1046 67 43V43L77 43Z" fill="#0D0D0D"/>
<line x1="8.74228e-08" y1="42.5" x2="77" y2="42.5" stroke="#0D0D0D"/>
<line x1="55.5" y1="5.30624e-08" x2="55.5" y2="36" stroke="#0D0D0D"/>
<line x1="55.5" y1="50" x2="55.5" y2="77" stroke="#0D0D0D"/>
</svg>
