<svg width="47" height="72" viewBox="0 0 47 72" fill="none" xmlns="http://www.w3.org/2000/svg">
<path d="M3 55V55C1.34315 55 -7.17044e-07 53.6569 -5.72197e-07 52L-1.35083e-07 47C-3.85183e-08 45.8954 0.89543 45 2 45L3 45L3 55Z" fill="#0D0D0D"/>
<path d="M3 45V67C3 68.1046 3.89543 69 5 69H26" stroke="#0D0D0D"/>
<path d="M26 69V69C26 70.6569 24.6569 72 23 72L18 72C16.8954 72 16 71.1046 16 70L16 69L26 69Z" fill="#0D0D0D"/>
<line x1="2.5" y1="2.18557e-08" x2="2.5" y2="11.3307" stroke="#0D0D0D"/>
<line x1="47" y1="69.5" x2="42" y2="69.5" stroke="#0D0D0D"/>
</svg>
