<svg width="65" height="73" viewBox="0 0 65 73" fill="none" xmlns="http://www.w3.org/2000/svg">
<path d="M62 46L62 6C62 4.34315 60.6569 3 59 3L39 3" stroke="#0D0D0D"/>
<path d="M39 3V3C39 1.34315 40.3431 -6.01806e-07 42 -2.92354e-07L47 6.41498e-07C48.1046 8.47799e-07 49 0.895432 49 2L49 3L39 3Z" fill="#0D0D0D"/>
<line x1="62.5" y1="72.332" x2="62.5" y2="61.0013" stroke="#0D0D0D"/>
<line x1="18" y1="2.5" x2="23" y2="2.5" stroke="#0D0D0D"/>
<line x1="4.37114e-08" y1="2.5" x2="5" y2="2.5" stroke="#0D0D0D"/>
<path d="M62 26V26C63.6569 26 65 27.3431 65 29V43C65 44.6569 63.6569 46 62 46V46L62 26Z" fill="#0D0D0D"/>
</svg>
