<svg width="77" height="72" viewBox="0 0 77 72" fill="none" xmlns="http://www.w3.org/2000/svg">
<path d="M22 0V0C23.1046 0 24 0.895431 24 2V16C24 17.1046 23.1046 18 22 18V18V0Z" fill="#0D0D0D"/>
<path d="M21 72V72C19.8954 72 19 71.1046 19 70L19 56C19 54.8954 19.8954 54 21 54V54L21 72Z" fill="#0D0D0D"/>
<path d="M59 34V34C59 32.8954 59.8954 32 61 32L75 32C76.1046 32 77 32.8954 77 34V34L59 34Z" fill="#0D0D0D"/>
<path d="M0 34V34C1.31719e-08 32.8954 0.895431 32 2 32L8 32C9.10457 32 10 32.8954 10 34V34L0 34Z" fill="#0D0D0D"/>
<line x1="77" y1="34.5" x2="-4.37114e-08" y2="34.5" stroke="#0D0D0D"/>
<line x1="21.5" y1="72" x2="21.5" y2="-1.79095e-08" stroke="#0D0D0D"/>
</svg>
