<svg xmlns="http://www.w3.org/2000/svg" viewBox="0 0 335.86 316.38"><defs><style>.cls-1{fill:#f7f6f1;stroke:#f7f6f1;stroke-miterlimit:10;stroke-width:2px;}</style></defs><g id="Layer_2" data-name="Layer 2"><g id="Layer_2-2" data-name="Layer 2"><path class="cls-1" d="M162.72,140.13a1.15,1.15,0,0,1-1.91,1.27c-.36-.46-.73-.9-1.12-1.32-2.73-2.94-7.88-4.2-11.72-3.3-8.75,2-14.62,12.4-12.58,22.12,3.18,15.13,19.09,24.84,35,21.34,24.71-5.45,37.47-33.18,26.46-57.46-11.89-26.2-44-36.91-71-23.71-35.36,17.31-45.49,63.8-21,96.31,28.46,37.75,84.53,39.29,117.66,3.25,32.91-35.81,28.51-94-9.52-126-46.41-39-115.95-27.46-149,24.8-31.91,50.49-16.5,118.49,34.4,151.72,63,41.12,148.64,15.46,178.81-54.71C299.48,142.74,291.17,94.35,254.47,52,224.19,17.06,184.36,2.38,138.66,5.7,76.19,10.22,24.36,55,8,116.73-11.81,191.86,29,271.22,102.74,301.1c76.89,31.15,166.24-.58,207.53-73.65,13.08-23.14,20.83-47.88,22.3-74.46,3.26-59.17-18.12-108-62-147.41-.95-.85-2-1.57-3.08-2.48a1.2,1.2,0,0,1,1.54-1.84c.89.69,1.65,1.47,2.44,2.17C307.4,35,329.78,74.11,334,122c6.4,73.27-21.77,130.42-84.11,169.66-27.88,17.55-59.2,25-92.12,23.54-80.22-3.5-143.65-61-154.94-136.48C-9.71,95,44.2,19.74,124.75,5.22,199.48-8.25,273.26,38.58,288.5,114.89,302.89,187,257.06,255.1,187.83,268.77c-63.9,12.62-129.13-27.33-140.94-94.22C36,112.93,76.9,56.42,136.28,48.13c51.58-7.2,99.51,25.89,109.24,76.71,9.08,47.37-21.67,93.08-69.06,101C135.37,232.74,94.9,206,89.75,162.8c-4.35-36.45,20.74-70,58.65-71.49C180.64,90,203.94,115,202.93,143.14c-.73,20.66-15.45,37.06-35.4,39.74C150.62,185.15,135,173.46,133,157c-1.35-11.17,6.07-21.52,16.33-22.64,4.64-.5,10.76,1.4,13.32,5.69Z"/></g></g></svg>