<svg width="35" height="19" viewBox="0 0 35 19" fill="none" xmlns="http://www.w3.org/2000/svg">
<path opacity="0.6" d="M4.97955 7.0431C6.07944 6.44144 7.15221 5.84174 8.24305 5.27639C8.36158 5.21554 8.61973 5.3235 8.76839 5.42067C10.9662 6.85073 13.1559 8.29452 15.3506 9.72949C16.9136 10.7522 17.8698 10.7718 19.4408 9.68434C21.6788 8.13748 23.8846 6.5445 26.0873 4.94758C26.4309 4.69926 26.684 4.6708 27.0667 4.86808C28.0531 5.3765 29.0726 5.83094 30.1323 6.33445C29.61 6.88017 29.1279 7.39056 28.6357 7.89701C26.2296 10.3927 23.8213 12.8857 21.4106 15.3761C20.8523 15.9396 20.2628 16.4727 19.6447 16.973C18.4805 17.931 17.226 18.0262 15.9403 17.2272C15.3799 16.8721 14.857 16.4634 14.3793 16.0072C11.3659 13.1582 8.35957 10.2994 5.36024 7.4308C5.24172 7.31792 5.13022 7.1972 4.97955 7.0431Z" stroke="#F7F6F1" stroke-miterlimit="10"/>
<path opacity="0.6" d="M7.48389 4.58993C6.51056 5.22006 5.5955 5.82172 4.66536 6.40081C4.59866 6.4294 4.52572 6.44132 4.45312 6.4355C4.38052 6.42967 4.31055 6.40628 4.24951 6.36744C3.45498 5.62051 2.66145 4.87064 1.91012 4.08348C1.66111 3.79742 1.47082 3.46718 1.34963 3.1108C1.16782 2.63085 1.26324 2.1607 1.67708 1.81619C2.09092 1.47169 2.5811 1.47659 3.04416 1.6994C3.46207 1.90616 3.86482 2.14097 4.24951 2.40215C5.31123 3.1108 6.36391 3.83221 7.48389 4.58993Z" stroke="#F7F6F1" stroke-miterlimit="10"/>
<path opacity="0.6" d="M27.4083 3.9947C28.7814 3.04362 30.0772 2.13475 31.398 1.24648C31.6128 1.12209 31.8527 1.04473 32.1011 1.01976C32.5742 0.952033 33.0102 1.05018 33.3176 1.44279C33.6249 1.83539 33.5928 2.28394 33.3497 2.68145C33.0974 3.08445 32.809 3.4648 32.4879 3.81803C31.9655 4.40694 31.4201 4.98504 30.8636 5.54745C30.7632 5.6456 30.5221 5.73491 30.4267 5.68388C29.4423 5.15288 28.47 4.59244 27.4083 3.9947Z" stroke="#F7F6F1" stroke-miterlimit="10"/>
</svg>
