<svg width="41" height="28" viewBox="0 0 41 28" fill="none" xmlns="http://www.w3.org/2000/svg">
<g clip-path="url(#clip0_2224_6240)">
<path d="M9.42247 11.8687L9.42165 11.8681C9.3618 11.8272 9.27546 11.7822 9.20158 11.7573C9.19931 11.7565 9.19711 11.7558 9.19499 11.7551C8.1757 12.3097 7.16946 12.8884 6.14531 13.4774C6.01769 13.5508 5.88979 13.6244 5.76156 13.6981C5.77245 13.7091 5.7834 13.7201 5.79447 13.7312L5.79534 13.732C9.54557 17.4849 13.3046 21.2248 17.0724 24.9518L17.0742 24.9536C17.6476 25.5265 18.2751 26.0398 18.9473 26.4857C19.6793 26.9611 20.3658 27.1482 21.0095 27.1007C21.6546 27.0532 22.3129 26.7658 22.9793 26.1921L22.9824 26.1894L22.9824 26.1894C23.7407 25.5473 24.4639 24.8631 25.149 24.1398C28.1629 20.8822 31.1738 17.6212 34.1819 14.3567L34.1832 14.3553C34.601 13.9055 35.012 13.4544 35.4387 12.986C35.4934 12.926 35.5483 12.8657 35.6036 12.8051C35.4077 12.7091 35.2123 12.6138 35.0175 12.5187C34.1114 12.0765 33.2179 11.6405 32.35 11.1725L32.35 11.1724C32.1571 11.0684 32.0597 11.0584 32.0023 11.0636C31.9418 11.0692 31.8442 11.0992 31.6648 11.2347C31.6646 11.2349 31.6645 11.235 31.6643 11.2352L31.3627 10.8364C28.6079 12.9259 25.8494 15.0102 23.0506 17.0342L9.42247 11.8687ZM9.42247 11.8687C11.1024 13.0123 12.7773 14.1619 14.4531 15.312C15.5189 16.0435 16.585 16.7752 17.653 17.5059L9.42247 11.8687Z" stroke="black"/>
<path d="M0.901384 8.27578L0.898826 8.26791L0.896008 8.26012C0.731004 7.80437 0.818845 7.41388 1.16378 7.11345C1.4917 6.82783 1.87453 6.8066 2.3178 7.02898C2.81872 7.28842 3.30156 7.58304 3.76286 7.91073L3.76285 7.91074L3.76615 7.91304C4.65213 8.53176 5.53179 9.15701 6.43679 9.80027C6.69555 9.9842 6.95639 10.1696 7.22004 10.3567C7.14551 10.4074 7.07123 10.4579 6.99718 10.5082C6.09591 11.1207 5.22906 11.7098 4.35138 12.2824C4.35076 12.2824 4.35014 12.2824 4.34953 12.2823C3.37627 11.3249 2.4144 10.372 1.50414 9.37476C1.23707 9.05156 1.03232 8.67862 0.901384 8.27578Z" stroke="black"/>
<path d="M38.9357 6.19107L38.9466 6.18993L38.9574 6.1883C39.425 6.11828 39.7612 6.22203 40.0043 6.54689C40.2418 6.86431 40.2396 7.227 40.0144 7.61363C39.7141 8.11501 39.3712 8.58806 38.9896 9.02727L38.9895 9.02724L38.9856 9.03191C38.3417 9.79147 37.6687 10.538 36.9813 11.2653C36.9776 11.268 36.971 11.2725 36.9616 11.278C36.9498 11.285 36.9365 11.2917 36.9229 11.2977C36.0664 10.8123 35.2168 10.3089 34.3245 9.78012C34.1923 9.70181 34.0593 9.62296 33.9251 9.54352C34.1163 9.40463 34.3064 9.26646 34.4956 9.12897C35.7782 8.19691 37.0181 7.29581 38.2769 6.40989C38.4793 6.2899 38.7039 6.21546 38.9357 6.19107Z" stroke="black"/>
<path d="M12.9843 4.44446C14.9257 6.35056 16.8716 8.25037 18.8219 10.1439L18.8237 10.1457C19.1198 10.436 19.4439 10.6963 19.7912 10.9224C20.1504 11.1512 20.4702 11.231 20.757 11.2103C21.0451 11.1894 21.3536 11.0633 21.6819 10.7858L21.6849 10.7833L21.685 10.7833C22.0847 10.451 22.4659 10.097 22.827 9.72286C24.4427 8.00882 26.0569 6.29294 27.6694 4.57525L27.6708 4.57376C27.8509 4.38345 28.0283 4.19311 28.21 3.99748C28.2035 3.99437 28.197 3.99127 28.1905 3.98816C27.703 3.75459 27.2173 3.52195 26.7479 3.2735C26.7479 3.2735 26.7479 3.27349 26.7479 3.27349L12.9843 4.44446ZM12.9843 4.44446C13.4751 4.16744 13.9566 3.89617 14.4432 3.63457C15.3357 4.231 16.225 4.83004 17.1152 5.42969C17.6914 5.81786 18.268 6.20629 18.8461 6.59442C19.3985 6.96562 19.9235 7.2118 20.497 7.20883C21.0722 7.20584 21.5988 6.95302 22.1572 6.55606C23.6629 5.48731 25.146 4.38736 26.623 3.28782L12.9843 4.44446ZM26.623 3.28779C26.6542 3.26464 26.6751 3.25221 26.6873 3.2458L26.623 3.28779ZM26.701 3.23955C26.701 3.23957 26.7007 3.23969 26.7 3.23987L26.701 3.23955ZM26.6743 3.24189C26.6731 3.24175 26.6725 3.24161 26.6725 3.24158L26.6743 3.24189Z" stroke="black"/>
<path d="M10.2104 1.46547L10.2077 1.45751L10.2048 1.44963C10.148 1.29544 10.1774 1.19906 10.2802 1.11119L10.2802 1.11116C10.3692 1.03513 10.4717 1.01123 10.6484 1.09785C10.907 1.22942 11.1563 1.37876 11.3945 1.54482L11.3945 1.54483L11.3977 1.54708C11.871 1.87146 12.3402 2.19881 12.8238 2.5362C12.8696 2.56811 12.9155 2.60011 12.9615 2.6322C12.591 2.87919 12.2309 3.11836 11.8688 3.35216C11.3934 2.89223 10.9279 2.43586 10.4861 1.96103C10.364 1.81487 10.2704 1.64675 10.2104 1.46547Z" stroke="black"/>
<path d="M30.4199 0.677825L30.4092 0.67893C30.3197 0.688168 30.2331 0.715786 30.1545 0.760153C29.4837 1.22366 28.8231 1.69485 28.1382 2.18337C28.1364 2.18469 28.1345 2.18602 28.1326 2.18735C28.523 2.41435 28.8979 2.63175 29.2735 2.84259C29.6045 2.49586 29.9282 2.14144 30.2388 1.78179L30.2428 1.77721L30.2428 1.77724C30.4379 1.55684 30.6132 1.31955 30.7667 1.06815C30.8107 0.993589 30.8228 0.936009 30.8228 0.898095C30.8228 0.865509 30.8145 0.826628 30.776 0.776109L30.4199 0.677825ZM30.4199 0.677825L30.4305 0.676259M30.4199 0.677825L30.4305 0.676259M30.4305 0.676259C30.5351 0.660883 30.6065 0.668864 30.6533 0.684028M30.4305 0.676259L30.6533 0.684028M30.6533 0.684028C30.6937 0.697122 30.7338 0.720788 30.776 0.776017L30.6533 0.684028Z" stroke="black"/>
</g>
<defs>
<clipPath id="clip0_2224_6240">
<rect width="41" height="28" fill="white"/>
</clipPath>
</defs>
</svg>
