<svg width="10" height="13" viewBox="0 0 10 13" fill="none" xmlns="http://www.w3.org/2000/svg">
<path d="M3.0869 11.4415L3.07903 11.444L3.07124 11.4469C2.33157 11.7147 1.66296 11.5729 1.15874 10.994C0.669381 10.4321 0.650972 9.77222 1.00515 9.06706C1.38692 8.32983 1.82044 7.61926 2.30265 6.94044L2.30266 6.94045L2.30496 6.93716C3.20294 5.65128 4.11078 4.37402 5.0441 3.06093C5.3736 2.59734 5.70628 2.12929 6.04282 1.65482C6.17561 1.85037 6.30765 2.04466 6.43899 2.23791C7.33879 3.5619 8.20516 4.8367 9.04692 6.12779C9.05883 6.16393 9.06328 6.20179 9.06013 6.2393C9.05714 6.27486 9.04735 6.30988 9.031 6.34257C7.62783 7.76899 6.22782 9.1834 4.76116 10.5219C4.26877 10.9297 3.70052 11.242 3.0869 11.4415Z" stroke="black" stroke-miterlimit="10"/>
</svg>
