<svg width="10" height="12" viewBox="0 0 10 12" fill="none" xmlns="http://www.w3.org/2000/svg">
<path d="M0.764652 3.02162L0.763505 3.01072L0.761881 2.99987C0.651797 2.26487 0.813616 1.68216 1.37071 1.2653C1.92032 0.854046 2.54828 0.874355 3.17015 1.23702C3.90991 1.67991 4.60797 2.18593 5.25619 2.74911L5.25617 2.74913L5.2608 2.75306C6.37033 3.69362 7.46041 4.67646 8.5218 5.68008C8.52899 5.68759 8.54763 5.70989 8.5713 5.75033C8.59548 5.79164 8.61755 5.83937 8.63374 5.88584C8.64185 5.90911 8.64736 5.92886 8.65102 5.94462C7.92927 7.22103 7.17968 8.48601 6.39283 9.81386C6.22261 10.1011 6.05064 10.3913 5.87683 10.6852C5.60797 10.3148 5.34096 9.94741 5.07562 9.58231C3.71943 7.71618 2.40721 5.91055 1.11738 4.07767C0.923896 3.75376 0.803793 3.3937 0.764652 3.02162Z" stroke="black" stroke-miterlimit="10"/>
</svg>
