<svg width="27" height="49" viewBox="0 0 27 49" fill="none" xmlns="http://www.w3.org/2000/svg">
<path d="M5.71583 47.3252C4.57267 45.3278 3.43324 43.3797 2.35908 41.3988C2.24345 41.1835 2.44859 40.7147 2.63321 40.4448C5.35032 36.4537 8.09353 32.4772 10.82 28.4916C12.7631 25.6533 12.8004 23.9168 10.7342 21.0639C7.79515 16.9999 4.76848 12.9942 1.73435 8.99401C1.26254 8.37017 1.20846 7.9105 1.58329 7.21553C2.54929 5.42428 3.41272 3.57284 4.3694 1.64844C5.40626 2.59696 6.37599 3.47252 7.33826 4.36632C12.08 8.73559 16.8167 13.1091 21.5485 17.4869C22.6192 18.5007 23.6321 19.5712 24.5826 20.6937C26.4028 22.8078 26.5836 25.086 25.0656 27.4209C24.3909 28.4385 23.6144 29.388 22.7476 30.2555C17.3345 35.7277 11.9028 41.1872 6.45245 46.6339C6.23799 46.8491 6.00861 47.0516 5.71583 47.3252Z" stroke="black" stroke-miterlimit="10"/>
</svg>
