<svg width="26" height="47" viewBox="0 0 26 47" fill="none" xmlns="http://www.w3.org/2000/svg">
<path d="M4.71583 46.3252C3.57267 44.3278 2.43324 42.3797 1.35908 40.3988C1.24345 40.1835 1.44859 39.7147 1.63321 39.4448C4.35032 35.4537 7.09353 31.4772 9.81996 27.4916C11.7631 24.6533 11.8004 22.9168 9.73417 20.0639C6.79515 15.9999 3.76848 11.9942 0.734347 7.99401C0.262537 7.37017 0.208455 6.9105 0.583293 6.21553C1.54929 4.42428 2.41272 2.57284 3.3694 0.648438C4.40626 1.59696 5.37599 2.47252 6.33826 3.36632C11.08 7.73559 15.8167 12.1091 20.5485 16.4869C21.6192 17.5007 22.6321 18.5712 23.5826 19.6937C25.4028 21.8078 25.5836 24.086 24.0656 26.4209C23.3909 27.4385 22.6144 28.388 21.7476 29.2555C16.3345 34.7277 10.9028 40.1872 5.45245 45.6339C5.23799 45.8491 5.00861 46.0516 4.71583 46.3252Z" fill="#F7F6F1"/>
</svg>
