<svg width="26" height="47" viewBox="0 0 26 47" fill="none" xmlns="http://www.w3.org/2000/svg">
<path d="M3.52303 1.4659C3.33743 1.84317 3.15409 2.21883 2.97167 2.59262C2.33053 3.90634 1.70068 5.19693 1.02338 6.45286L1.02336 6.45288C0.860968 6.75398 0.825994 6.94129 0.83924 7.08581C0.852773 7.23346 0.923749 7.41549 1.13296 7.69216C4.1669 11.6921 7.19654 15.7017 10.1391 19.7706C11.1949 21.2284 11.7737 22.48 11.7806 23.7806C11.7875 25.0793 11.2233 26.327 10.2326 27.7739L3.52303 1.4659ZM3.52303 1.4659C3.68763 1.61604 3.85057 1.7645 4.01214 1.91171C4.69093 2.5302 5.34558 3.12668 5.99798 3.73267L5.99944 3.73401C10.7402 8.10243 15.476 12.4751 20.2069 16.852C21.2635 17.8526 22.263 18.9091 23.2011 20.0168L23.2011 20.0168L23.2037 20.0199C24.0608 21.0154 24.5039 22.0156 24.5773 23.0112C24.6506 24.0054 24.3594 25.051 23.6476 26.1465C22.9916 27.1355 22.2367 28.0586 21.3939 28.9021L21.3922 28.9038C15.9798 34.3754 10.5487 39.8342 5.09901 45.2802L5.09825 45.281C5.01408 45.3655 4.92917 45.4463 4.83733 45.5318C4.68217 45.2616 4.52732 44.9923 4.37291 44.7238C3.50307 43.2114 2.64709 41.723 1.82809 40.2148C1.83199 40.1893 1.84067 40.1516 1.85739 40.1019C1.90092 39.9727 1.97628 39.8289 2.04593 39.727L2.04652 39.7262C3.70506 37.29 5.37247 34.8605 7.04048 32.4301C8.10497 30.8791 9.16971 29.3277 10.2325 27.7741L3.52303 1.4659ZM1.82543 40.2407C1.82559 40.2429 1.82556 40.2442 1.82551 40.2442C1.82545 40.2442 1.82537 40.2431 1.82543 40.2407Z" stroke="black" stroke-miterlimit="10"/>
</svg>
